<svg width="416" height="240" viewBox="0 0 416 240" fill="none" xmlns="http://www.w3.org/2000/svg">
<g clip-path="url(#clip0_716_14502)">
<path d="M158.619 82.8507H158.119V83.3507V128.775C158.119 129.516 157.512 130.123 156.756 130.123H32.8629C32.1065 130.123 31.5 129.516 31.5 128.775V5.8484C31.5 5.10738 32.1065 4.5 32.8629 4.5H156.756C157.512 4.5 158.119 5.10738 158.119 5.8484L158.119 51.0159V51.5159H158.619H182.026V82.8507H158.619Z" fill="white" fill-opacity="0.06" stroke="#323A47"/>
<path d="M182.182 51.8828V51.3828H181.682H158.124V5.8484C158.124 5.1037 158.728 4.5 159.472 4.5H282.399C283.144 4.5 283.747 5.1037 283.747 5.8484V128.775C283.747 129.52 283.144 130.123 282.399 130.123H159.472C158.728 130.123 158.124 129.52 158.124 128.775V83.2406H181.682H182.182V82.7406V51.8828Z" fill="white" fill-opacity="0.06" stroke="#323A47"/>
<g opacity="0.8">
<path d="M105.287 59.4431V53.8018H92.2438V59.3696H94.2787L90.2505 63.9659H88.5826V59.3696H90.876V53.8018H87.7819V55.8917H86.1056V53.8018H83.0448V55.8917H81.3685V53.8018H78.2744V59.4431H81.0099V66.4641V73.4851H78.2744V79.1264H90.876V73.5586H88.5826V68.9623H90.2505L94.2787 73.5586H92.2438V79.1264H105.287V73.4851H103.261L97.1143 66.4641L103.261 59.4431H105.287Z" fill="#718096"/>
</g>
<g opacity="0.8">
<path d="M232.393 55.4994L229.581 56.8558C229.517 56.8881 229.493 56.9608 229.525 57.0173L233.803 66.205C235.397 69.6202 234.965 72.2118 232.545 73.3824C230.59 74.3271 228.9 73.665 227.586 71.364L222.523 60.4889C220.472 56.0807 217.667 54.9101 214.351 56.5167C212.187 57.5582 210.938 59.4232 210.962 61.7888C210.962 61.813 210.954 61.8453 210.938 61.8614C210.906 61.9018 210.841 61.9179 210.793 61.8937C210.769 61.8857 210.745 61.8614 210.737 61.8372L209.632 59.4636C209.616 59.4313 209.592 59.4151 209.56 59.399C209.528 59.3909 209.496 59.3909 209.471 59.4071L206.651 60.7715C206.595 60.8038 206.563 60.8765 206.595 60.933L214.367 77.6049C214.383 77.6372 214.407 77.6534 214.439 77.6695C214.471 77.6776 214.503 77.6776 214.535 77.6614L217.347 76.3051C217.411 76.2728 217.435 76.2001 217.403 76.1436L213.245 67.2142C211.547 63.5811 211.875 60.9491 214.471 59.6977C216.466 58.737 218.012 59.3828 219.406 61.8453C219.406 61.8453 219.406 61.8534 219.414 61.8534L224.429 72.6155C226.36 76.7653 229.373 78.1943 232.545 76.6603C234.997 75.4735 236.014 73.6892 235.958 71.3479C235.958 71.2914 235.998 71.2429 236.046 71.2268C236.103 71.2106 236.159 71.2429 236.183 71.2914L237.304 73.6973C237.328 73.7458 237.368 73.77 237.416 73.77C237.432 73.77 237.448 73.7619 237.465 73.7619L240.277 72.3975C240.325 72.3813 240.349 72.3329 240.349 72.2844C240.349 72.2683 240.341 72.2521 240.333 72.236L232.561 55.564C232.521 55.4994 232.449 55.4752 232.393 55.4994Z" fill="#718096"/>
</g>
<g filter="url(#filter0_dd_716_14502)">
<rect x="89.5908" y="87.9121" width="296.455" height="148.727" rx="2.5" fill="url(#paint0_linear_716_14502)" stroke="#9974FF"/>
<g clip-path="url(#clip1_716_14502)">
<path d="M280.095 133.346H252.195V142.645H280.095V133.346ZM233.589 142.645H224.289V151.95H233.589V142.645ZM224.289 189.154H233.589V161.25H224.289V189.154ZM242.889 142.645V151.95H252.195V142.645H242.889ZM242.889 189.154H252.195V161.25H242.889V189.154ZM242.889 133.346H233.589V142.645H242.889V133.346ZM196.383 133.346V142.645H224.289V133.346H196.383ZM280.095 161.25V151.95H252.195V161.25H280.095ZM233.589 151.95V161.25H242.889V151.95H233.589ZM196.383 151.95V161.25H224.289V151.95H196.383Z" fill="#D5C6FF"/>
</g>
</g>
</g>
<defs>
<filter id="filter0_dd_716_14502" x="77.0908" y="85.4121" width="321.455" height="173.728" filterUnits="userSpaceOnUse" color-interpolation-filters="sRGB">
<feFlood flood-opacity="0" result="BackgroundImageFix"/>
<feColorMatrix in="SourceAlpha" type="matrix" values="0 0 0 0 0 0 0 0 0 0 0 0 0 0 0 0 0 0 127 0" result="hardAlpha"/>
<feMorphology radius="2" operator="erode" in="SourceAlpha" result="effect1_dropShadow_716_14502"/>
<feOffset dy="4"/>
<feGaussianBlur stdDeviation="3"/>
<feColorMatrix type="matrix" values="0 0 0 0 0 0 0 0 0 0 0 0 0 0 0 0 0 0 0.05 0"/>
<feBlend mode="normal" in2="BackgroundImageFix" result="effect1_dropShadow_716_14502"/>
<feColorMatrix in="SourceAlpha" type="matrix" values="0 0 0 0 0 0 0 0 0 0 0 0 0 0 0 0 0 0 127 0" result="hardAlpha"/>
<feMorphology radius="3" operator="erode" in="SourceAlpha" result="effect2_dropShadow_716_14502"/>
<feOffset dy="10"/>
<feGaussianBlur stdDeviation="7.5"/>
<feColorMatrix type="matrix" values="0 0 0 0 0 0 0 0 0 0 0 0 0 0 0 0 0 0 0.1 0"/>
<feBlend mode="normal" in2="effect1_dropShadow_716_14502" result="effect2_dropShadow_716_14502"/>
<feBlend mode="normal" in="SourceGraphic" in2="effect2_dropShadow_716_14502" result="shape"/>
</filter>
<linearGradient id="paint0_linear_716_14502" x1="90.0908" y1="88.4121" x2="229.822" y2="327.246" gradientUnits="userSpaceOnUse">
<stop stop-color="#7D00FF"/>
<stop offset="1" stop-color="#7F00AC"/>
</linearGradient>
<clipPath id="clip0_716_14502">
<rect width="416" height="240" fill="white"/>
</clipPath>
<clipPath id="clip1_716_14502">
<rect width="83.7121" height="55.8081" fill="white" transform="translate(196.383 133.346)"/>
</clipPath>
</defs>
</svg>
