<svg width="51" height="50" viewBox="0 0 51 50" fill="none" xmlns="http://www.w3.org/2000/svg">
<rect x="0.70166" width="50.0481" height="50" rx="5" fill="#2C3442"/>
<path d="M21.5561 23.5229H24.4776C26.0078 22.5575 26.445 21.9783 26.445 20.6267C26.445 19.5455 25.6435 19.4039 25.2427 19.4682H17.2638C14.5531 20.395 14.5313 23.3942 14.8592 24.778C14.8592 24.778 16.0979 28.704 16.608 29.2188L19.4498 33.0805L19.5591 36H32.7844V33.7563C32.8937 32.9518 33.9867 30.5704 33.9867 30.5704C34.4604 29.6694 35.4514 27.5004 35.6262 26.033L35.7355 24.9711V16.8616C35.7355 16.3789 35.2983 15.3749 33.5495 15.2204C31.8007 15.066 31.2907 15.864 31.2542 16.2824M21.5561 23.5229H21.3079C21.3856 23.5189 21.4686 23.5187 21.5561 23.5229ZM21.5561 23.5229C22.8627 23.5861 25.1608 24.6341 25.5706 28.5431M31.2542 16.2824C31.2907 15.5744 30.9263 14.0813 29.1775 13.7723C27.4287 13.4634 26.7729 14.2872 26.6636 14.7377M31.2542 16.2824C31.2542 17.4056 31.2447 19.3189 31.2133 20.6267M26.6636 14.7377C26.4814 14.1585 25.7673 13 24.3683 13C22.6195 13 21.9637 14.4481 21.8544 14.8343C21.7451 14.4159 21.133 13.5792 19.5591 13.5792C17.9196 13.5792 17.3731 15.0274 17.3731 15.2204V19.3717M26.6636 14.7377V21.206C26.8822 21.5278 27.6255 22.1907 28.8496 22.2679C30.0738 22.3451 30.9355 21.206 31.2133 20.6267M35.7355 22.5575C35.4441 22.9759 34.5551 23.7933 33.3309 23.716C31.8007 23.6195 31.0356 22.5575 31.1449 21.9783C31.1748 21.8201 31.197 21.3047 31.2133 20.6267M21.8544 14.7377V19.4682" stroke="url(#paint0_linear_2432_3244)" stroke-width="2.25"/>
<defs>
<linearGradient id="paint0_linear_2432_3244" x1="25.2254" y1="13" x2="25.2254" y2="36" gradientUnits="userSpaceOnUse">
<stop stop-color="#BD30FF"/>
<stop offset="1" stop-color="#7D00FF"/>
</linearGradient>
</defs>
</svg>
