<svg width="80" height="80" viewBox="0 0 80 80" fill="none" xmlns="http://www.w3.org/2000/svg">
<circle cx="40" cy="40" r="40" fill="#2EC897"/>
<path d="M44.1898 22.5V38.8486L44.3605 38.9118C48.2217 35.0506 52.0829 31.1893 55.8999 27.366C57.7831 29.2429 59.6095 31.0819 61.4484 32.8956C61.7202 33.161 61.7391 33.3253 61.4674 33.5907C59.3251 35.7078 57.1891 37.8375 55.0468 39.9608C53.5806 41.4143 52.1082 42.8678 50.6484 44.3276C50.503 44.473 50.4209 44.6752 50.2566 44.928H64.9178C64.9368 45.0291 64.9621 45.1049 64.9621 45.1807C64.9747 47.7591 64.9747 50.3438 65 52.9221C65 53.2318 64.9558 53.3645 64.6019 53.3519C63.8498 53.3266 63.1041 53.3519 62.3521 53.3519C46.9199 53.3519 31.4939 53.3519 16.0617 53.3519C15.3539 53.3519 15 53.0043 15 52.3092C15 50.0594 15 47.8097 15 45.5536C15 45.3577 15 45.1681 15 44.9153H29.8698C25.9454 41.0288 22.0589 37.1866 18.1345 33.2937C18.3936 33.0473 18.5516 32.9146 18.6906 32.7692C20.4032 31.0377 22.1221 29.3124 23.8284 27.5746C24.0495 27.3534 24.2012 27.3534 24.4098 27.5683C25.4841 28.6362 26.5647 29.6916 27.639 30.7596C30.2679 33.3822 32.8905 36.0048 35.5131 38.6337C35.5637 38.6843 35.6269 38.7285 35.8102 38.7664C35.8102 38.3936 35.8102 38.0207 35.8102 37.6542C35.8102 32.8893 35.8228 28.1244 35.8291 23.3595" fill="black"/>
</svg>
