<svg width="64" height="64" viewBox="0 0 64 64" fill="none" xmlns="http://www.w3.org/2000/svg">
<circle cx="32" cy="32" r="32" fill="#2EC897"/>
<path d="M35.3519 18V31.0789L35.4884 31.1294C38.5774 28.0404 41.6663 24.9515 44.7199 21.8928C46.2265 23.3943 47.6876 24.8655 49.1587 26.3165C49.3761 26.5288 49.3913 26.6603 49.1739 26.8726C47.4601 28.5662 45.7513 30.27 44.0374 31.9687C42.8645 33.1314 41.6866 34.2942 40.5187 35.4621C40.4024 35.5784 40.3367 35.7401 40.2053 35.9424H51.9343C51.9494 36.0233 51.9697 36.0839 51.9697 36.1446C51.9798 38.2073 51.9798 40.275 52 42.3377C52 42.5854 51.9646 42.6916 51.6815 42.6815C51.0799 42.6613 50.4833 42.6815 49.8817 42.6815C37.5359 42.6815 25.1951 42.6815 12.8493 42.6815C12.2831 42.6815 12 42.4034 12 41.8473C12 40.0475 12 38.2477 12 36.4429C12 36.2861 12 36.1345 12 35.9323H23.8959C20.7563 32.8231 17.6471 29.7492 14.5076 26.635C14.7149 26.4378 14.8413 26.3316 14.9525 26.2154C16.3225 24.8301 17.6977 23.4499 19.0627 22.0597C19.2396 21.8827 19.361 21.8827 19.5278 22.0546C20.3873 22.909 21.2518 23.7533 22.1112 24.6077C24.2144 26.7058 26.3124 28.8038 28.4105 30.907C28.451 30.9474 28.5015 30.9828 28.6481 31.0131C28.6481 30.7149 28.6481 30.4166 28.6481 30.1234C28.6481 26.3114 28.6582 22.4995 28.6633 18.6876" fill="black"/>
</svg>
