<svg width="32" height="34" viewBox="0 0 32 34" fill="none" xmlns="http://www.w3.org/2000/svg">
<path fill-rule="evenodd" clip-rule="evenodd" d="M0.597474 9.9631L14.2491 17.8898C14.8535 18.2408 15.5974 18.2508 16.211 17.916L30.8173 9.94897C31.5071 9.57277 31.5135 8.58467 30.8288 8.1995L16.7238 0.265455C16.115 -0.0770101 15.3716 -0.0770106 14.7627 0.265455L0.609349 8.22674C-0.0649808 8.60605 -0.0716048 9.57461 0.597474 9.9631ZM6.46097 8.22018L14.8152 3.84413C15.3965 3.53968 16.0901 3.53968 16.6713 3.84413L24.945 8.17799C25.6673 8.55633 25.6575 9.59359 24.9282 9.95824L17.1 13.8723C15.9245 14.4601 14.5352 14.4329 13.3835 13.7995L6.44306 9.98223C5.74425 9.59788 5.75449 8.59024 6.46097 8.22018Z" fill="white"/>
<path d="M25.2627 17.358C25.1817 17.4469 25.0826 17.524 24.9654 17.5837L16.7276 21.6781C15.5199 22.2941 15.1985 22.3419 14.0154 21.6781L6.86368 17.6089C6.83825 17.5946 6.81373 17.5795 6.79013 17.5637L3.22579 15.5657C2.67092 15.2547 1.99343 15.2581 1.44172 15.5747L1.10326 15.769C0.410503 16.1665 0.403697 17.1816 1.09106 17.5888L14.4599 25.5081C15.0809 25.876 15.8451 25.8864 16.4755 25.5356L30.7828 17.574C31.4914 17.1797 31.498 16.1441 30.7945 15.7404L30.58 15.6173C29.9872 15.2772 29.2619 15.2632 28.6565 15.5803L25.2627 17.358Z" fill="white"/>
<path d="M25.3217 24.869C25.2408 24.9579 25.1417 25.0349 25.0245 25.0946L16.7867 29.189C15.579 29.8051 15.2575 29.8529 14.0744 29.189L6.92276 25.1198C6.89733 25.1055 6.87281 25.0904 6.84921 25.0746L3.28487 23.0767C2.73 22.7656 2.05251 22.7691 1.5008 23.0857L1.16234 23.2799C0.469585 23.6774 0.462779 24.6926 1.15014 25.0997L14.519 33.019C15.14 33.3869 15.9041 33.3973 16.5346 33.0465L30.8419 25.0849C31.5504 24.6906 31.5571 23.655 30.8536 23.2514L30.6391 23.1282C30.0463 22.7881 29.321 22.7741 28.7156 23.0912L25.3217 24.869Z" fill="white"/>
</svg>
