<svg width="58" height="59" viewBox="0 0 58 59" fill="none" xmlns="http://www.w3.org/2000/svg">
<ellipse cx="29" cy="29.5" rx="29" ry="29.5" fill="#6747ED"/>
<path d="M46.9975 19H34.9992V23.1667H46.9975V19ZM27.0003 23.1667H23.0009V27.3333H27.0003V23.1667ZM23.0009 44H27.0003V31.5H23.0009V44ZM30.9997 23.1667V27.3333H34.9992V23.1667H30.9997ZM30.9997 44H34.9992V31.5H30.9997V44ZM30.9997 19H27.0003V23.1667H30.9997V19ZM11 19V23.1667H23.0009V19H11ZM47 31.5V27.3333H34.9992V31.5H47ZM27.003 27.3333V31.5H30.9997V27.3333H27.003ZM11.0026 27.3333V31.5H23.0035V27.3333H11.0026Z" fill="#FCF9FF"/>
</svg>
