<svg width="36" height="35" viewBox="0 0 36 35" fill="none" xmlns="http://www.w3.org/2000/svg">
<path d="M17.8613 0C8.17655 0 0 7.62387 0 17.0189C0 17.25 0 34.5 0 34.5H17.8613C27.6257 34.5 35.5641 26.645 35.5641 17.25C35.5641 7.93191 27.6257 0 17.8613 0ZM17.7821 27.1071C16.1944 27.1071 14.7654 26.7991 13.4159 26.183L6.9858 27.7231L8.81163 21.9475C8.01778 20.5613 7.62088 19.0212 7.62088 17.25C7.62088 11.8594 12.1458 7.39284 17.7821 7.39284C23.339 7.39284 27.9431 11.8594 27.9431 17.25C27.9431 22.7175 23.339 27.1071 17.7821 27.1071Z" fill="white"/>
</svg>
