<svg width="33" height="26" viewBox="0 0 33 26" fill="none" xmlns="http://www.w3.org/2000/svg">
<path d="M28.0662 2.1556C25.9847 1.14036 23.7881 0.416384 21.5313 0.00179451C21.5107 -0.00228305 21.4894 0.000628822 21.4705 0.0101163C21.4516 0.0196037 21.436 0.035184 21.4259 0.0546427C21.1266 0.631786 20.855 1.2246 20.612 1.83082C18.1449 1.43831 15.6895 1.43831 13.2731 1.83082C13.0538 1.27159 12.73 0.58793 12.4465 0.0546427C12.436 0.035573 12.4203 0.0203213 12.4015 0.0108898C12.3827 0.0014583 12.3617 -0.00171219 12.3411 0.00179451C10.0843 0.415557 7.8877 1.13957 5.80669 2.1556C5.78888 2.16369 5.77387 2.17746 5.76373 2.195C1.60141 8.80103 0.461012 15.2456 1.02036 21.6095C1.02193 21.6252 1.02646 21.6404 1.03368 21.6542C1.04091 21.668 1.05068 21.6801 1.06241 21.6897C3.8085 23.8325 6.46823 25.1331 9.07911 25.9954C9.09943 26.0018 9.12109 26.0015 9.14121 25.9945C9.16133 25.9874 9.17895 25.974 9.19171 25.956C9.81077 25.0607 10.3593 24.1126 10.8318 23.1215C10.8382 23.1079 10.8418 23.093 10.8425 23.0778C10.8431 23.0626 10.8407 23.0474 10.8355 23.0333C10.8302 23.0191 10.8222 23.0063 10.812 22.9957C10.8018 22.9851 10.7896 22.9768 10.7761 22.9716C9.91105 22.6197 9.07355 22.1956 8.27152 21.7032C8.25695 21.6941 8.24471 21.6813 8.2359 21.6659C8.22709 21.6506 8.22196 21.6332 8.22098 21.6152C8.21999 21.5973 8.22318 21.5793 8.23026 21.563C8.23734 21.5467 8.2481 21.5325 8.26157 21.5216C8.42978 21.3876 8.59799 21.2482 8.75897 21.1075C8.77332 21.095 8.79066 21.0871 8.80904 21.0845C8.82741 21.082 8.84609 21.0849 8.86297 21.093C14.1169 23.6413 19.8048 23.6413 24.9968 21.093C25.0137 21.0844 25.0326 21.081 25.0512 21.0833C25.0699 21.0856 25.0875 21.0935 25.1021 21.106C25.2631 21.2468 25.4313 21.3876 25.6009 21.5216C25.6144 21.5324 25.6252 21.5466 25.6324 21.5628C25.6395 21.5791 25.6428 21.597 25.6419 21.615C25.641 21.6329 25.636 21.6503 25.6272 21.6657C25.6185 21.6811 25.6063 21.694 25.5918 21.7032C24.7919 22.1997 23.9539 22.6235 23.0868 22.9701C23.0733 22.9756 23.0611 22.984 23.0509 22.9948C23.0408 23.0056 23.0328 23.0186 23.0277 23.0328C23.0225 23.0471 23.0202 23.0624 23.021 23.0776C23.0217 23.0929 23.0255 23.1078 23.032 23.1215C23.5123 24.1071 24.0601 25.0541 24.6707 25.9546C24.6832 25.973 24.7007 25.9868 24.7209 25.9941C24.7411 26.0013 24.763 26.0016 24.7833 25.995C27.4064 25.1331 30.0666 23.832 32.8127 21.6897C32.8245 21.6805 32.8343 21.6687 32.8415 21.6551C32.8487 21.6415 32.853 21.6265 32.8543 21.611C33.5235 14.253 31.7329 7.86177 28.1078 2.19548C28.0987 2.17711 28.0838 2.16279 28.0657 2.15512L28.0662 2.1556ZM11.6158 17.7348C10.0346 17.7348 8.73094 16.1921 8.73094 14.2968C8.73094 12.4019 10.0092 10.8587 11.6158 10.8587C13.236 10.8587 14.527 12.4154 14.5017 14.2968C14.5017 16.1921 13.2229 17.7348 11.6158 17.7348ZM22.2841 17.7348C20.7024 17.7348 19.3992 16.1921 19.3992 14.2968C19.3992 12.4019 20.6771 10.8587 22.2841 10.8587C23.9038 10.8587 25.1948 12.4154 25.169 14.2968C25.169 16.1921 23.9038 17.7348 22.2841 17.7348Z" fill="#5D5F78"/>
</svg>
