<svg width="20" height="24" viewBox="0 0 20 24" fill="none" xmlns="http://www.w3.org/2000/svg">
<path d="M19.75 3.11812C19.7441 2.5014 19.4953 1.91187 19.0576 1.47735C18.6199 1.04282 18.0286 0.798327 17.4119 0.796875L2.57687 0.75C1.96076 0.750122 1.36983 0.994542 0.933648 1.42967C0.497462 1.8648 0.251613 2.45514 0.25 3.07125V18.375C0.25 19.6547 1.29437 20.625 2.57687 20.625H15.25L14.6406 18.5625L19.75 23.25V3.11812ZM13.218 15.4598C13.218 15.4598 12.8092 14.9728 12.468 14.5542C13.9558 14.1352 14.5234 13.2188 14.5234 13.2188C14.1148 13.4898 13.6769 13.7139 13.218 13.8867C12.6881 14.1067 12.1364 14.27 11.5722 14.3738C10.6 14.5523 9.60301 14.5485 8.63219 14.3625C8.06113 14.2564 7.50221 14.0931 6.96391 13.875C6.67914 13.7659 6.40223 13.6373 6.13516 13.4902C6.10094 13.4677 6.06719 13.4564 6.03297 13.4334C6.01 13.4222 5.99875 13.4109 5.98609 13.4109C5.78172 13.2975 5.66828 13.2183 5.66828 13.2183C5.66828 13.2183 6.21297 14.1131 7.65484 14.543C7.31406 14.9733 6.89406 15.4716 6.89406 15.4716C4.38578 15.3923 3.43234 13.762 3.43234 13.762C3.43234 10.1498 5.06687 7.21734 5.06687 7.21734C6.70141 6.00563 8.245 6.03984 8.245 6.03984L8.35844 6.17578C6.31516 6.75328 5.38469 7.64766 5.38469 7.64766C5.38469 7.64766 5.63406 7.51172 6.05406 7.33031C7.26859 6.79828 8.23375 6.66234 8.63219 6.61734C8.69578 6.60413 8.7604 6.59644 8.82531 6.59437C9.58591 6.49568 10.3556 6.48813 11.118 6.57187C12.315 6.70938 13.4748 7.07453 14.5347 7.64766C14.5347 7.64766 13.638 6.79688 11.7081 6.22031L11.867 6.03937C11.867 6.03937 13.4219 6.00516 15.0456 7.21875C15.0456 7.21875 16.6802 10.1512 16.6802 13.7634C16.6802 13.7503 15.7262 15.3806 13.218 15.4598Z" fill="#B1BCCC"/>
<path d="M7.93985 10.2188C7.29297 10.2188 6.78203 10.7738 6.78203 11.4642C6.78203 12.1547 7.30422 12.7097 7.93985 12.7097C8.58672 12.7097 9.09766 12.1552 9.09766 11.4642C9.10938 10.7723 8.58672 10.2188 7.93985 10.2188Z" fill="#B1BCCC"/>
<path d="M12.0827 10.2188C11.4358 10.2188 10.9248 10.7738 10.9248 11.4642C10.9248 12.1547 11.447 12.7097 12.0827 12.7097C12.73 12.7097 13.2405 12.1552 13.2405 11.4642C13.2405 10.7733 12.7187 10.2188 12.0827 10.2188Z" fill="#B1BCCC"/>
</svg>
