<svg width="24" height="24" viewBox="0 0 24 24" fill="none" xmlns="http://www.w3.org/2000/svg">
<path d="M20.0625 10.5H13.5C12.9033 10.5 12.331 10.2629 11.909 9.84099C11.4871 9.41903 11.25 8.84674 11.25 8.25V1.6875C11.25 1.63777 11.2302 1.59008 11.1951 1.55492C11.1599 1.51975 11.1122 1.5 11.0625 1.5H6.75C5.95435 1.5 5.19129 1.81607 4.62868 2.37868C4.06607 2.94129 3.75 3.70435 3.75 4.5V19.5C3.75 20.2956 4.06607 21.0587 4.62868 21.6213C5.19129 22.1839 5.95435 22.5 6.75 22.5H17.25C18.0456 22.5 18.8087 22.1839 19.3713 21.6213C19.9339 21.0587 20.25 20.2956 20.25 19.5V10.6875C20.25 10.6378 20.2302 10.5901 20.1951 10.5549C20.1599 10.5198 20.1122 10.5 20.0625 10.5Z" fill="#F6F7FA"/>
<path d="M19.6509 8.84062L12.9098 2.09953C12.8967 2.0865 12.8801 2.07763 12.8619 2.07405C12.8438 2.07046 12.825 2.07232 12.8079 2.07938C12.7908 2.08644 12.7762 2.0984 12.7659 2.11374C12.7556 2.12909 12.7501 2.14714 12.75 2.16562V8.25047C12.75 8.44938 12.829 8.64014 12.9697 8.7808C13.1103 8.92145 13.3011 9.00047 13.5 9.00047H19.5848C19.6033 9.00039 19.6214 8.99485 19.6367 8.98454C19.6521 8.97423 19.664 8.95962 19.6711 8.94254C19.6781 8.92546 19.68 8.90667 19.6764 8.88853C19.6728 8.8704 19.664 8.85373 19.6509 8.84062Z" fill="#F6F7FA"/>
</svg>
