<svg width="1527" height="560" viewBox="0 0 1527 560" fill="none" xmlns="http://www.w3.org/2000/svg">
<rect x="1297" width="68" height="68" rx="12" fill="white" fill-opacity="0.0175"/>
<rect x="1297" y="80" width="68" height="67" rx="12" fill="white" fill-opacity="0.0175"/>
<rect x="1216" width="69" height="68" rx="12" fill="white" fill-opacity="0.0175"/>
<rect x="1216" y="80" width="69" height="67" rx="12" fill="white" fill-opacity="0.0175"/>
<rect x="1378" width="68" height="68" rx="12" fill="white" fill-opacity="0.0175"/>
<rect x="1378" y="80" width="68" height="67" rx="12" fill="white" fill-opacity="0.0175"/>
<rect x="1459" width="68" height="68" rx="12" fill="white" fill-opacity="0.0175"/>
<rect x="1459" y="80" width="68" height="67" rx="12" fill="white" fill-opacity="0.0175"/>
<rect x="972" width="69" height="68" rx="12" fill="white" fill-opacity="0.0175"/>
<rect x="1055" width="67" height="68" rx="12" fill="white" fill-opacity="0.0175"/>
<rect x="1135" width="67" height="68" rx="12" fill="white" fill-opacity="0.0175"/>
<rect x="972" y="81" width="68" height="69" rx="12" fill="white" fill-opacity="0.0175"/>
<rect x="972" y="160" width="68" height="69" rx="12" fill="white" fill-opacity="0.0175"/>
<rect x="891" y="81" width="69" height="69" rx="12" fill="white" fill-opacity="0.0175"/>
<rect x="891" y="160" width="69" height="69" rx="12" fill="white" fill-opacity="0.0175"/>
<rect x="1054" y="81" width="68" height="69" rx="12" fill="white" fill-opacity="0.0175"/>
<rect x="1054" y="160" width="68" height="69" rx="12" fill="white" fill-opacity="0.0175"/>
<rect x="1134" y="81" width="68" height="69" rx="12" fill="white" fill-opacity="0.0175"/>
<rect x="1134" y="160" width="68" height="69" rx="12" fill="white" fill-opacity="0.0175"/>
<rect x="648" y="81" width="67" height="69" rx="12" fill="white" fill-opacity="0.0175"/>
<rect x="729" y="81" width="69" height="69" rx="12" fill="white" fill-opacity="0.0175"/>
<rect x="810" y="81" width="67" height="69" rx="12" fill="white" fill-opacity="0.0175"/>
<rect x="650" y="168" width="68" height="68" rx="12" fill="white" fill-opacity="0.0175"/>
<rect x="892" y="331" width="68" height="68" rx="12" fill="white" fill-opacity="0.0175"/>
<rect x="650" y="248" width="68" height="67" rx="12" fill="white" fill-opacity="0.0175"/>
<rect x="892" y="410" width="68" height="68" rx="12" fill="white" fill-opacity="0.0175"/>
<rect x="569" y="168" width="69" height="68" rx="12" fill="white" fill-opacity="0.0175"/>
<rect x="811" y="331" width="68" height="68" rx="12" fill="white" fill-opacity="0.0175"/>
<rect x="569" y="248" width="69" height="67" rx="12" fill="white" fill-opacity="0.0175"/>
<rect x="811" y="410" width="68" height="68" rx="12" fill="white" fill-opacity="0.0175"/>
<rect x="731" y="168" width="69" height="68" rx="12" fill="white" fill-opacity="0.0175"/>
<rect x="973" y="331" width="69" height="68" rx="12" fill="white" fill-opacity="0.0175"/>
<rect x="731" y="248" width="69" height="67" rx="12" fill="white" fill-opacity="0.0175"/>
<rect x="973" y="410" width="69" height="68" rx="12" fill="white" fill-opacity="0.0175"/>
<rect x="812" y="168" width="67" height="68" rx="12" fill="white" fill-opacity="0.0175"/>
<rect x="1055" y="331" width="67" height="68" rx="12" fill="white" fill-opacity="0.0175"/>
<rect x="812" y="248" width="67" height="67" rx="12" fill="white" fill-opacity="0.0175"/>
<rect x="1055" y="410" width="67" height="68" rx="12" fill="white" fill-opacity="0.0175"/>
<rect x="325" y="168" width="68" height="68" rx="12" fill="white" fill-opacity="0.0175"/>
<rect x="567" y="331" width="68" height="68" rx="12" fill="white" fill-opacity="0.0175"/>
<rect x="407" y="168" width="68" height="68" rx="12" fill="white" fill-opacity="0.0175"/>
<rect x="649" y="331" width="68" height="68" rx="12" fill="white" fill-opacity="0.0175"/>
<rect x="488" y="168" width="67" height="68" rx="12" fill="white" fill-opacity="0.0175"/>
<rect x="730" y="331" width="67" height="68" rx="12" fill="white" fill-opacity="0.0175"/>
<rect x="325" y="249" width="67" height="69" rx="12" fill="white" fill-opacity="0.0175"/>
<rect x="567" y="412" width="68" height="68" rx="12" fill="white" fill-opacity="0.0175"/>
<rect x="325" y="328" width="67" height="69" rx="12" fill="white" fill-opacity="0.0175"/>
<rect x="567" y="491" width="68" height="69" rx="12" fill="white" fill-opacity="0.0175"/>
<rect x="244" y="249" width="69" height="69" rx="12" fill="white" fill-opacity="0.0175"/>
<rect x="487" y="412" width="68" height="68" rx="12" fill="white" fill-opacity="0.0175"/>
<rect x="244" y="328" width="69" height="69" rx="12" fill="white" fill-opacity="0.0175"/>
<rect x="487" y="491" width="68" height="69" rx="12" fill="white" fill-opacity="0.0175"/>
<rect x="406" y="249" width="69" height="69" rx="12" fill="white" fill-opacity="0.0175"/>
<rect x="649" y="412" width="68" height="68" rx="12" fill="white" fill-opacity="0.0175"/>
<rect x="406" y="328" width="69" height="69" rx="12" fill="white" fill-opacity="0.0175"/>
<rect x="649" y="491" width="68" height="69" rx="12" fill="white" fill-opacity="0.0175"/>
<rect x="488" y="249" width="67" height="69" rx="12" fill="white" fill-opacity="0.0175"/>
<rect x="729" y="412" width="68" height="68" rx="12" fill="white" fill-opacity="0.0175"/>
<rect x="488" y="328" width="67" height="69" rx="12" fill="white" fill-opacity="0.0175"/>
<rect x="729" y="491" width="68" height="69" rx="12" fill="white" fill-opacity="0.0175"/>
<rect y="249" width="68" height="69" rx="12" fill="white" fill-opacity="0.0175"/>
<rect x="243" y="412" width="68" height="68" rx="12" fill="white" fill-opacity="0.0175"/>
<rect x="82" y="249" width="69" height="69" rx="12" fill="white" fill-opacity="0.0175"/>
<rect x="324" y="412" width="69" height="68" rx="12" fill="white" fill-opacity="0.0175"/>
<rect x="162" y="249" width="68" height="69" rx="12" fill="white" fill-opacity="0.0175"/>
<rect x="404" y="412" width="69" height="68" rx="12" fill="white" fill-opacity="0.0175"/>
</svg>
