<svg width="32" height="35" viewBox="0 0 32 35" fill="none" xmlns="http://www.w3.org/2000/svg">
<path fill-rule="evenodd" clip-rule="evenodd" d="M16.0003 0.729187C12.202 0.731343 8.52813 2.20277 5.63578 4.88037C2.74344 7.55796 0.821164 11.2671 0.212685 15.3446C-0.395793 19.4221 0.349195 23.602 2.31445 27.1369C4.27971 30.6719 7.33708 33.3313 10.9399 34.6398C11.7347 34.8011 12.0341 34.2623 12.0341 33.8042C12.0341 33.346 12.0182 32.0177 12.0129 30.5655C7.56182 31.6172 6.62127 28.5111 6.62127 28.5111C5.89532 26.4942 4.84614 25.964 4.84614 25.964C3.39425 24.8864 4.95478 24.9066 4.95478 24.9066C6.56299 25.0305 7.40817 26.7017 7.40817 26.7017C8.83357 29.3611 11.1518 28.5918 12.0632 28.1423C12.2063 27.0157 12.6223 26.2493 13.0806 25.8142C9.52507 25.3762 5.78934 23.8837 5.78934 17.2163C5.76731 15.4871 6.35732 13.8149 7.43731 12.5456C7.27304 12.1076 6.7246 10.3385 7.59361 7.93544C7.59361 7.93544 8.9369 7.46866 11.9944 9.719C14.6168 8.93906 17.3838 8.93906 20.0063 9.719C23.0611 7.46866 24.4017 7.93544 24.4017 7.93544C25.2734 10.3327 24.7249 12.1019 24.5607 12.5456C25.6441 13.8151 26.2353 15.4902 26.2113 17.222C26.2113 23.9039 22.4676 25.3762 18.9067 25.8056C19.479 26.3473 19.9904 27.4047 19.9904 29.0298C19.9904 31.3579 19.9718 33.2308 19.9718 33.8042C19.9718 34.2681 20.2606 34.8098 21.0713 34.6398C24.6746 33.3312 27.7322 30.6713 29.6974 27.1357C31.6627 23.6002 32.4073 19.4196 31.7981 15.3418C31.1889 11.2639 29.2657 7.5547 26.3724 4.87757C23.4791 2.20044 19.8044 0.729976 16.0056 0.729187H16.0003Z" fill="white"/>
</svg>
