<svg width="24" height="24" viewBox="0 0 24 24" fill="none" xmlns="http://www.w3.org/2000/svg">
<path d="M16.5 7.5H7.5V16.5H16.5V7.5Z" fill="#F6F7FA"/>
<path d="M22.5 9.28125V7.21875H21V4.125C21 3.82663 20.8815 3.54048 20.6705 3.3295C20.4595 3.11853 20.1734 3 19.875 3H16.7812V1.5H14.7188V3H13.0312V1.5H10.9688V3H9.28125V1.5H7.21875V3H4.125C3.82663 3 3.54048 3.11853 3.3295 3.3295C3.11853 3.54048 3 3.82663 3 4.125V7.21875H1.5V9.28125H3V10.9688H1.5V13.0312H3V14.7188H1.5V16.7812H3V19.875C3 20.1734 3.11853 20.4595 3.3295 20.6705C3.54048 20.8815 3.82663 21 4.125 21H7.21875V22.5H9.28125V21H10.9688V22.5H13.0312V21H14.7188V22.5H16.7812V21H19.875C20.1734 21 20.4595 20.8815 20.6705 20.6705C20.8815 20.4595 21 20.1734 21 19.875V16.7812H22.5V14.7188H21V13.0312H22.5V10.9688H21V9.28125H22.5ZM6 6H18V18H6V6Z" fill="#F6F7FA"/>
</svg>
