<svg width="416" height="298" viewBox="0 0 416 298" fill="none" xmlns="http://www.w3.org/2000/svg">
<path d="M25.8572 41.6314V36.3043H31.1587V41.6314H25.8572Z" fill="#1D2229"/>
<path d="M307.071 41.6314V36.3043H312.373V41.6314H307.071Z" fill="#1D2229"/>
<path d="M17.9049 41.6314L17.9049 36.3043H23.2064V41.6314H17.9049Z" fill="#1D2229"/>
<path d="M299.119 41.6314V36.3043L304.421 36.3043V41.6314L299.119 41.6314Z" fill="#1D2229"/>
<path d="M275.032 41.6314V36.3043H280.333V41.6314H275.032Z" fill="#1D2229"/>
<path d="M267.079 41.6314V36.3043H272.381V41.6314H267.079Z" fill="#1D2229"/>
<path d="M259.127 41.6314V36.3043H264.429V41.6314H259.127Z" fill="#1D2229"/>
<path d="M259.127 49.6224V44.2953H264.429V49.6224H259.127Z" fill="#1D2229"/>
<path d="M259.127 57.6125V52.2854H264.429V57.6125H259.127Z" fill="#1D2229"/>
<path d="M267.079 57.6125V52.2854H272.381V57.6125H267.079Z" fill="#1D2229"/>
<path d="M259.127 65.6039V60.2768H264.429V65.6039H259.127Z" fill="#1D2229"/>
<path d="M259.127 73.594V68.2669H264.429V73.594H259.127Z" fill="#1D2229"/>
<path d="M259.127 101.561V96.2341H264.429V101.561H259.127Z" fill="#1D2229"/>
<path d="M298.889 101.561V96.2341H304.19V101.561H298.889Z" fill="#1D2229"/>
<path d="M306.841 101.561V96.2341L312.143 96.2341V101.561L306.841 101.561Z" fill="#1D2229"/>
<path d="M259.127 109.552V104.225H264.429V109.552H259.127Z" fill="#1D2229"/>
<path d="M298.889 109.552V104.225H304.19V109.552H298.889Z" fill="#1D2229"/>
<path d="M306.841 109.552V104.225L312.143 104.225V109.552L306.841 109.552Z" fill="#1D2229"/>
<path d="M259.127 117.542V112.215H264.429V117.542H259.127Z" fill="#1D2229"/>
<path d="M298.889 117.542V112.215H304.19V117.542H298.889Z" fill="#1D2229"/>
<path d="M306.841 117.542V112.215L312.143 112.215V117.542L306.841 117.542Z" fill="#1D2229"/>
<path d="M259.127 133.524V128.197H264.429V133.524H259.127Z" fill="#1D2229"/>
<path d="M395.643 133.524V128.197H400.944V133.524H395.643Z" fill="#1D2229"/>
<path d="M259.127 125.533V120.206H264.429V125.533H259.127Z" fill="#1D2229"/>
<path d="M395.643 125.533V120.206L400.944 120.206V125.533L395.643 125.533Z" fill="#1D2229"/>
<path d="M275.032 125.533V120.206H280.333V125.533H275.032Z" fill="#1D2229"/>
<path d="M259.127 141.515V136.188H264.429V141.515H259.127Z" fill="#1D2229"/>
<path d="M395.643 141.515V136.188H400.944V141.515H395.643Z" fill="#1D2229"/>
<path d="M267.079 73.594V68.2669H272.381V73.594H267.079Z" fill="#1D2229"/>
<path d="M97.4286 138.851V133.524H102.73V138.851H97.4286Z" fill="#1D2229"/>
<path d="M275.032 141.515V136.188H280.333V141.515H275.032Z" fill="#1D2229"/>
<path d="M113.333 138.851V133.524H118.635V138.851H113.333Z" fill="#1D2229"/>
<path d="M290.936 141.515V136.188H296.238V141.515H290.936Z" fill="#1D2229"/>
<path d="M121.286 138.851V133.524H126.587V138.851H121.286Z" fill="#1D2229"/>
<path d="M298.889 141.515V136.188H304.19V141.515H298.889Z" fill="#1D2229"/>
<path d="M113.333 130.861V125.533H118.635V130.861H113.333Z" fill="#1D2229"/>
<path d="M290.936 133.524V128.197H296.238V133.524H290.936Z" fill="#1D2229"/>
<path d="M105.381 138.851V133.524H110.682V138.851H105.381Z" fill="#1D2229"/>
<path d="M282.984 141.515V136.188H288.286V141.515H282.984Z" fill="#1D2229"/>
<path d="M97.4286 146.842L97.4286 141.515H102.73L102.73 146.842H97.4286Z" fill="#1D2229"/>
<path d="M275.032 149.505V144.178H280.333V149.505H275.032Z" fill="#1D2229"/>
<path d="M89.4763 146.842L89.4763 141.515L94.7779 141.515L94.7779 146.842L89.4763 146.842Z" fill="#1D2229"/>
<path d="M267.079 149.505V144.178L272.381 144.178V149.505L267.079 149.505Z" fill="#1D2229"/>
<path d="M113.333 146.842L113.333 141.515H118.635L118.635 146.842H113.333Z" fill="#1D2229"/>
<path d="M290.936 149.505V144.178H296.238V149.505H290.936Z" fill="#1D2229"/>
<path d="M105.381 146.842L105.381 141.515H110.682L110.682 146.842H105.381Z" fill="#1D2229"/>
<path d="M282.984 149.505V144.178H288.286V149.505H282.984Z" fill="#1D2229"/>
<path d="M97.4286 154.832V149.505H102.73V154.832H97.4286Z" fill="#1D2229"/>
<path d="M275.032 157.496V152.169H280.333V157.496H275.032Z" fill="#1D2229"/>
<path d="M113.333 154.832V149.505H118.635V154.832H113.333Z" fill="#1D2229"/>
<path d="M290.936 157.496V152.169H296.238V157.496H290.936Z" fill="#1D2229"/>
<path d="M108.032 16.3271V11H113.333V16.3271H108.032Z" fill="#1D2229"/>
<path d="M290.936 173.477V168.15H296.238V173.477H290.936Z" fill="#1D2229"/>
<path d="M115.984 16.3271V11L121.286 11V16.3271L115.984 16.3271Z" fill="#1D2229"/>
<path d="M298.889 173.477V168.15H304.19V173.477H298.889Z" fill="#1D2229"/>
<path d="M105.381 154.832V149.505H110.682V154.832H105.381Z" fill="#1D2229"/>
<path d="M282.984 157.496V152.169H288.286V157.496H282.984Z" fill="#1D2229"/>
<path d="M251.174 41.6314V36.3043H256.476V41.6314H251.174Z" fill="#1D2229"/>
<path d="M251.174 49.6224V44.2953H256.476V49.6224H251.174Z" fill="#1D2229"/>
<path d="M251.174 57.6125V52.2854H256.476V57.6125H251.174Z" fill="#1D2229"/>
<path d="M251.174 65.6039V60.2768H256.476V65.6039H251.174Z" fill="#1D2229"/>
<path d="M251.174 73.594V68.2669H256.476V73.594H251.174Z" fill="#1D2229"/>
<path d="M251.174 101.561L251.174 96.2341H256.476V101.561H251.174Z" fill="#1D2229"/>
<path d="M290.936 101.561V96.2341H296.238V101.561H290.936Z" fill="#1D2229"/>
<path d="M251.174 109.552V104.225H256.476V109.552H251.174Z" fill="#1D2229"/>
<path d="M243.222 109.552V104.225H248.524V109.552H243.222Z" fill="#1D2229"/>
<path d="M235.27 109.552V104.225H240.571V109.552H235.27Z" fill="#1D2229"/>
<path d="M227.317 109.552V104.225H232.619V109.552H227.317Z" fill="#1D2229"/>
<path d="M290.936 109.552V104.225H296.238V109.552H290.936Z" fill="#1D2229"/>
<path d="M251.174 117.542V112.215H256.476V117.542H251.174Z" fill="#1D2229"/>
<path d="M243.222 117.542V112.215H248.524V117.542H243.222Z" fill="#1D2229"/>
<path d="M235.27 117.542V112.215H240.571V117.542H235.27Z" fill="#1D2229"/>
<path d="M227.317 117.542V112.215H232.619V117.542H227.317Z" fill="#1D2229"/>
<path d="M290.936 117.542V112.215H296.238V117.542H290.936Z" fill="#1D2229"/>
<path d="M275.032 117.542V112.215H280.333V117.542H275.032Z" fill="#1D2229"/>
<path d="M282.984 117.542V112.215H288.286V117.542H282.984Z" fill="#1D2229"/>
<path d="M251.174 133.524V128.197H256.476V133.524H251.174Z" fill="#1D2229"/>
<path d="M387.69 133.524V128.197H392.992V133.524H387.69Z" fill="#1D2229"/>
<path d="M243.222 133.524V128.197H248.524V133.524H243.222Z" fill="#1D2229"/>
<path d="M379.738 133.524V128.197H385.04V133.524H379.738Z" fill="#1D2229"/>
<path d="M227.317 133.524V128.197H232.619V133.524H227.317Z" fill="#1D2229"/>
<path d="M363.833 133.524V128.197H369.135V133.524H363.833Z" fill="#1D2229"/>
<path d="M227.317 181.468V176.141H232.619V181.468H227.317Z" fill="#1D2229"/>
<path d="M219.365 133.524V128.197L224.667 128.197V133.524L219.365 133.524Z" fill="#1D2229"/>
<path d="M355.881 133.524V128.197H361.183V133.524H355.881Z" fill="#1D2229"/>
<path d="M219.365 181.468V176.141H224.667V181.468H219.365Z" fill="#1D2229"/>
<path d="M219.365 117.542V112.215L224.667 112.215V117.542L219.365 117.542Z" fill="#1D2229"/>
<path d="M219.365 165.487V160.159H224.667V165.487H219.365Z" fill="#1D2229"/>
<path d="M211.413 133.524V128.197H216.714V133.524H211.413Z" fill="#1D2229"/>
<path d="M347.928 133.524V128.197H353.23V133.524H347.928Z" fill="#1D2229"/>
<path d="M211.413 181.468V176.141H216.714V181.468H211.413Z" fill="#1D2229"/>
<path d="M211.413 173.477V168.15H216.714V173.477H211.413Z" fill="#1D2229"/>
<path d="M211.413 117.542V112.215H216.714V117.542H211.413Z" fill="#1D2229"/>
<path d="M211.413 165.487V160.159H216.714V165.487H211.413Z" fill="#1D2229"/>
<path d="M227.317 141.515V136.188H232.619V141.515H227.317Z" fill="#1D2229"/>
<path d="M363.833 141.515V136.188H369.135V141.515H363.833Z" fill="#1D2229"/>
<path d="M227.317 189.459V184.132H232.619V189.459H227.317Z" fill="#1D2229"/>
<path d="M68.2696 32.3086V26.9815H73.5712V32.3086H68.2696Z" fill="#1D2229"/>
<path d="M251.174 189.459V184.132H256.476V189.459H251.174Z" fill="#1D2229"/>
<path d="M68.2696 24.3178V18.9907H73.5712V24.3178H68.2696Z" fill="#1D2229"/>
<path d="M251.174 181.468V176.141H256.476V181.468H251.174Z" fill="#1D2229"/>
<path d="M76.2222 32.3086V26.9815H81.5238V32.3086H76.2222Z" fill="#1D2229"/>
<path d="M259.127 189.459L259.127 184.132H264.429L264.429 189.459H259.127Z" fill="#1D2229"/>
<path d="M76.2222 24.3178V18.9907L81.5238 18.9907V24.3178H76.2222Z" fill="#1D2229"/>
<path d="M259.127 181.468V176.141H264.429V181.468H259.127Z" fill="#1D2229"/>
<path d="M84.1745 32.3086V26.9815H89.4761V32.3086H84.1745Z" fill="#1D2229"/>
<path d="M267.079 189.459L267.079 184.132L272.381 184.132L272.381 189.459L267.079 189.459Z" fill="#1D2229"/>
<path d="M84.1745 24.3178V18.9907H89.4761V24.3178H84.1745Z" fill="#1D2229"/>
<path d="M267.079 181.468V176.141L272.381 176.141V181.468L267.079 181.468Z" fill="#1D2229"/>
<path d="M92.127 32.3086V26.9815H97.4286V32.3086H92.127Z" fill="#1D2229"/>
<path d="M275.032 189.459L275.032 184.132H280.333L280.333 189.459H275.032Z" fill="#1D2229"/>
<path d="M92.127 24.3178V18.9907H97.4286V24.3178H92.127Z" fill="#1D2229"/>
<path d="M275.032 181.468V176.141H280.333V181.468H275.032Z" fill="#1D2229"/>
<path d="M219.365 141.515V136.188L224.667 136.188V141.515H219.365Z" fill="#1D2229"/>
<path d="M355.881 141.515V136.188H361.183V141.515H355.881Z" fill="#1D2229"/>
<path d="M219.365 189.459V184.132H224.667V189.459H219.365Z" fill="#1D2229"/>
<path d="M211.413 141.515V136.188H216.714V141.515H211.413Z" fill="#1D2229"/>
<path d="M347.928 141.515V136.188H353.23V141.515H347.928Z" fill="#1D2229"/>
<path d="M211.413 189.459V184.132H216.714V189.459H211.413Z" fill="#1D2229"/>
<path d="M227.317 149.505V144.178H232.619V149.505H227.317Z" fill="#1D2229"/>
<path d="M363.833 149.505V144.178H369.135V149.505H363.833Z" fill="#1D2229"/>
<path d="M227.317 157.496V152.169H232.619V157.496H227.317Z" fill="#1D2229"/>
<path d="M227.317 197.449V192.122H232.619V197.449H227.317Z" fill="#1D2229"/>
<path d="M68.2696 40.2993V34.9722H73.5712V40.2993H68.2696Z" fill="#1D2229"/>
<path d="M251.174 197.449V192.122H256.476V197.449H251.174Z" fill="#1D2229"/>
<path d="M76.2222 40.2993V34.9722H81.5238V40.2993H76.2222Z" fill="#1D2229"/>
<path d="M259.127 197.449V192.122H264.429V197.449H259.127Z" fill="#1D2229"/>
<path d="M84.1745 40.2993V34.9722H89.4761V40.2993H84.1745Z" fill="#1D2229"/>
<path d="M267.079 197.449V192.122L272.381 192.122V197.449L267.079 197.449Z" fill="#1D2229"/>
<path d="M92.127 40.2993V34.9722H97.4286V40.2993H92.127Z" fill="#1D2229"/>
<path d="M275.032 197.449V192.122H280.333V197.449H275.032Z" fill="#1D2229"/>
<path d="M227.317 205.44V200.113H232.619V205.44H227.317Z" fill="#1D2229"/>
<path d="M227.317 213.431V208.104H232.619V213.431H227.317Z" fill="#1D2229"/>
<path d="M227.317 221.421V216.094H232.619V221.421H227.317Z" fill="#1D2229"/>
<path d="M227.317 229.412V224.085H232.619V229.412H227.317Z" fill="#1D2229"/>
<path d="M227.317 245.393V240.066H232.619V245.393H227.317Z" fill="#1D2229"/>
<path d="M227.317 285.346V280.019H232.619V285.346H227.317Z" fill="#1D2229"/>
<path d="M160.04 279.155L160.04 273.828H165.341L165.341 279.155H160.04Z" fill="#1D2229"/>
<path d="M160.04 287.146V281.818H165.341V287.146H160.04Z" fill="#1D2229"/>
<path d="M251.174 213.431V208.104H256.476V213.431H251.174Z" fill="#1D2229"/>
<path d="M251.174 221.421V216.094H256.476V221.421H251.174Z" fill="#1D2229"/>
<path d="M251.174 229.412V224.085H256.476V229.412H251.174Z" fill="#1D2229"/>
<path d="M251.174 245.393V240.066H256.476V245.393H251.174Z" fill="#1D2229"/>
<path d="M251.174 261.374V256.047H256.476V261.374H251.174Z" fill="#1D2229"/>
<path d="M251.174 277.356L251.174 272.028H256.476L256.476 277.356H251.174Z" fill="#1D2229"/>
<path d="M183.897 279.155L183.897 273.828H189.198L189.198 279.155H183.897Z" fill="#1D2229"/>
<path d="M2 213.431L2 208.104H7.30158L7.30158 213.431H2Z" fill="#1D2229"/>
<path d="M2 245.393L2 240.066H7.30158L7.30158 245.393H2Z" fill="#1D2229"/>
<path d="M298.889 213.431V208.104H304.19V213.431H298.889Z" fill="#1D2229"/>
<path d="M2 221.421L2 216.094H7.30158L7.30158 221.421H2Z" fill="#1D2229"/>
<path d="M2 253.384L2 248.057H7.30158L7.30158 253.384H2Z" fill="#1D2229"/>
<path d="M298.889 221.421V216.094H304.19V221.421H298.889Z" fill="#1D2229"/>
<path d="M2 229.412L2 224.085H7.30158L7.30158 229.412H2Z" fill="#1D2229"/>
<path d="M2 261.374L2 256.047H7.30158L7.30158 261.374H2Z" fill="#1D2229"/>
<path d="M298.889 229.412V224.085H304.19V229.412H298.889Z" fill="#1D2229"/>
<path d="M2 237.402L2 232.075H7.30158L7.30158 237.402H2Z" fill="#1D2229"/>
<path d="M2 269.365L2 264.038H7.30158L7.30158 269.365H2Z" fill="#1D2229"/>
<path d="M298.889 237.402V232.075H304.19V237.402H298.889Z" fill="#1D2229"/>
<path d="M17.9049 221.421V216.094H23.2064L23.2064 221.421H17.9049Z" fill="#1D2229"/>
<path d="M17.9049 253.384L17.9049 248.057H23.2064V253.384H17.9049Z" fill="#1D2229"/>
<path d="M314.794 221.421V216.094H320.095V221.421H314.794Z" fill="#1D2229"/>
<path d="M17.9049 229.412V224.085H23.2064V229.412H17.9049Z" fill="#1D2229"/>
<path d="M17.9049 261.374L17.9049 256.047H23.2064V261.374H17.9049Z" fill="#1D2229"/>
<path d="M314.794 229.412V224.085H320.095V229.412H314.794Z" fill="#1D2229"/>
<path d="M17.9049 237.402V232.075H23.2064V237.402H17.9049Z" fill="#1D2229"/>
<path d="M17.9049 269.365V264.038H23.2064L23.2064 269.365H17.9049Z" fill="#1D2229"/>
<path d="M314.794 237.402V232.075H320.095V237.402H314.794Z" fill="#1D2229"/>
<path d="M33.8096 221.421L33.8096 216.094H39.1112V221.421H33.8096Z" fill="#1D2229"/>
<path d="M33.8096 253.384V248.057H39.1112V253.384H33.8096Z" fill="#1D2229"/>
<path d="M330.698 221.421V216.094H336V221.421H330.698Z" fill="#1D2229"/>
<path d="M306.841 197.449V192.122H312.143V197.449H306.841Z" fill="#1D2229"/>
<path d="M33.8096 229.412V224.085H39.1112V229.412H33.8096Z" fill="#1D2229"/>
<path d="M33.8096 261.374V256.047H39.1112V261.374H33.8096Z" fill="#1D2229"/>
<path d="M330.698 229.412V224.085H336V229.412H330.698Z" fill="#1D2229"/>
<path d="M306.841 205.44V200.113H312.143V205.44H306.841Z" fill="#1D2229"/>
<path d="M33.8096 237.402V232.075H39.1112V237.402H33.8096Z" fill="#1D2229"/>
<path d="M33.8096 269.365V264.038H39.1112V269.365H33.8096Z" fill="#1D2229"/>
<path d="M330.698 237.402V232.075H336V237.402H330.698Z" fill="#1D2229"/>
<path d="M306.841 213.431V208.104H312.143V213.431H306.841Z" fill="#1D2229"/>
<path d="M49.7141 221.421V216.094H55.0157V221.421H49.7141Z" fill="#1D2229"/>
<path d="M49.7141 253.384V248.057H55.0157V253.384H49.7141Z" fill="#1D2229"/>
<path d="M346.603 221.421V216.094H351.905V221.421H346.603Z" fill="#1D2229"/>
<path d="M322.746 197.449V192.122H328.047V197.449H322.746Z" fill="#1D2229"/>
<path d="M49.7141 229.412V224.085H55.0157V229.412H49.7141Z" fill="#1D2229"/>
<path d="M49.7141 261.374V256.047H55.0157V261.374H49.7141Z" fill="#1D2229"/>
<path d="M346.603 229.412V224.085H351.905V229.412H346.603Z" fill="#1D2229"/>
<path d="M322.746 205.44V200.113H328.047V205.44H322.746Z" fill="#1D2229"/>
<path d="M49.7141 237.402V232.075H55.0157V237.402H49.7141Z" fill="#1D2229"/>
<path d="M49.7141 269.365V264.038H55.0157V269.365H49.7141Z" fill="#1D2229"/>
<path d="M346.603 237.402V232.075H351.905V237.402H346.603Z" fill="#1D2229"/>
<path d="M322.746 213.431V208.104H328.047V213.431H322.746Z" fill="#1D2229"/>
<path d="M65.619 221.421V216.094H70.9205V221.421H65.619Z" fill="#1D2229"/>
<path d="M65.619 253.384V248.057H70.9205V253.384H65.619Z" fill="#1D2229"/>
<path d="M362.508 221.421V216.094H367.809V221.421H362.508Z" fill="#1D2229"/>
<path d="M338.651 197.449V192.122H343.952V197.449H338.651Z" fill="#1D2229"/>
<path d="M65.619 229.412V224.085H70.9205V229.412H65.619Z" fill="#1D2229"/>
<path d="M65.619 261.374V256.047H70.9205V261.374H65.619Z" fill="#1D2229"/>
<path d="M362.508 229.412V224.085H367.809V229.412H362.508Z" fill="#1D2229"/>
<path d="M338.651 205.44V200.113H343.952V205.44H338.651Z" fill="#1D2229"/>
<path d="M65.619 237.402V232.075H70.9205V237.402H65.619Z" fill="#1D2229"/>
<path d="M65.619 269.365V264.038H70.9205V269.365H65.619Z" fill="#1D2229"/>
<path d="M362.508 237.402V232.075H367.809V237.402H362.508Z" fill="#1D2229"/>
<path d="M338.651 213.431V208.104H343.952V213.431H338.651Z" fill="#1D2229"/>
<path d="M81.5237 221.421V216.094H86.8253V221.421H81.5237Z" fill="#1D2229"/>
<path d="M378.413 221.421V216.094H383.714V221.421H378.413Z" fill="#1D2229"/>
<path d="M354.556 197.449V192.122H359.857V197.449H354.556Z" fill="#1D2229"/>
<path d="M81.5237 229.412V224.085H86.8253V229.412H81.5237Z" fill="#1D2229"/>
<path d="M378.413 229.412V224.085H383.714V229.412H378.413Z" fill="#1D2229"/>
<path d="M354.556 205.44V200.113H359.857V205.44H354.556Z" fill="#1D2229"/>
<path d="M81.5237 237.402V232.075H86.8253V237.402H81.5237Z" fill="#1D2229"/>
<path d="M378.413 237.402V232.075H383.714V237.402H378.413Z" fill="#1D2229"/>
<path d="M354.556 213.431V208.104H359.857V213.431H354.556Z" fill="#1D2229"/>
<path d="M97.4286 221.421V216.094H102.73V221.421H97.4286Z" fill="#1D2229"/>
<path d="M394.317 221.421V216.094H399.619V221.421H394.317Z" fill="#1D2229"/>
<path d="M370.46 197.449V192.122H375.762V197.449H370.46Z" fill="#1D2229"/>
<path d="M97.4286 229.412V224.085H102.73V229.412H97.4286Z" fill="#1D2229"/>
<path d="M394.317 229.412V224.085H399.619V229.412H394.317Z" fill="#1D2229"/>
<path d="M370.46 205.44V200.113H375.762V205.44H370.46Z" fill="#1D2229"/>
<path d="M97.4286 237.402V232.075H102.73V237.402H97.4286Z" fill="#1D2229"/>
<path d="M394.317 237.402V232.075H399.619V237.402H394.317Z" fill="#1D2229"/>
<path d="M370.46 213.431V208.104H375.762V213.431H370.46Z" fill="#1D2229"/>
<path d="M219.365 149.505V144.178H224.667V149.505H219.365Z" fill="#1D2229"/>
<path d="M355.881 149.505V144.178H361.183V149.505H355.881Z" fill="#1D2229"/>
<path d="M219.365 197.449V192.122H224.667V197.449H219.365Z" fill="#1D2229"/>
<path d="M219.365 205.44V200.113H224.667V205.44H219.365Z" fill="#1D2229"/>
<path d="M219.365 213.431V208.104H224.667V213.431H219.365Z" fill="#1D2229"/>
<path d="M219.365 221.421V216.094H224.667V221.421H219.365Z" fill="#1D2229"/>
<path d="M219.365 229.412V224.085H224.667V229.412H219.365Z" fill="#1D2229"/>
<path d="M219.365 237.402V232.075H224.667V237.402H219.365Z" fill="#1D2229"/>
<path d="M219.365 245.393V240.066H224.667V245.393H219.365Z" fill="#1D2229"/>
<path d="M219.365 261.374V256.047H224.667V261.374H219.365Z" fill="#1D2229"/>
<path d="M219.365 269.365V264.038H224.667V269.365H219.365Z" fill="#1D2229"/>
<path d="M219.365 277.356L219.365 272.028H224.667L224.667 277.356H219.365Z" fill="#1D2229"/>
<path d="M219.365 285.346V280.019H224.667V285.346H219.365Z" fill="#1D2229"/>
<path d="M152.087 279.155L152.087 273.828H157.389L157.389 279.155H152.087Z" fill="#1D2229"/>
<path d="M152.087 287.146V281.818H157.389V287.146H152.087Z" fill="#1D2229"/>
<path d="M243.222 213.431V208.104H248.524V213.431H243.222Z" fill="#1D2229"/>
<path d="M243.222 221.421V216.094H248.524V221.421H243.222Z" fill="#1D2229"/>
<path d="M243.222 229.412V224.085H248.524V229.412H243.222Z" fill="#1D2229"/>
<path d="M290.936 213.431V208.104H296.238V213.431H290.936Z" fill="#1D2229"/>
<path d="M290.936 221.421V216.094H296.238V221.421H290.936Z" fill="#1D2229"/>
<path d="M290.936 229.412V224.085H296.238V229.412H290.936Z" fill="#1D2229"/>
<path d="M290.936 237.402V232.075H296.238V237.402H290.936Z" fill="#1D2229"/>
<path d="M9.9523 221.421L9.9523 216.094H15.2539V221.421H9.9523Z" fill="#1D2229"/>
<path d="M9.9523 253.384V248.057H15.2539L15.2539 253.384H9.9523Z" fill="#1D2229"/>
<path d="M306.841 221.421V216.094H312.143V221.421H306.841Z" fill="#1D2229"/>
<path d="M9.9523 229.412V224.085H15.2539L15.2539 229.412H9.9523Z" fill="#1D2229"/>
<path d="M9.9523 261.374V256.047H15.2539L15.2539 261.374H9.9523Z" fill="#1D2229"/>
<path d="M306.841 229.412V224.085H312.143V229.412H306.841Z" fill="#1D2229"/>
<path d="M9.9523 237.402V232.075H15.2539V237.402H9.9523Z" fill="#1D2229"/>
<path d="M9.9523 269.365L9.9523 264.038H15.2539V269.365H9.9523Z" fill="#1D2229"/>
<path d="M306.841 237.402V232.075H312.143V237.402H306.841Z" fill="#1D2229"/>
<path d="M25.8572 221.421L25.8572 216.094H31.1587L31.1587 221.421H25.8572Z" fill="#1D2229"/>
<path d="M25.8572 253.384V248.057H31.1587V253.384H25.8572Z" fill="#1D2229"/>
<path d="M322.746 221.421V216.094H328.047V221.421H322.746Z" fill="#1D2229"/>
<path d="M25.8572 229.412V224.085H31.1587V229.412H25.8572Z" fill="#1D2229"/>
<path d="M25.8572 261.374V256.047H31.1587V261.374H25.8572Z" fill="#1D2229"/>
<path d="M322.746 229.412V224.085H328.047V229.412H322.746Z" fill="#1D2229"/>
<path d="M25.8572 237.402V232.075H31.1587V237.402H25.8572Z" fill="#1D2229"/>
<path d="M25.8572 269.365L25.8572 264.038H31.1587L31.1587 269.365H25.8572Z" fill="#1D2229"/>
<path d="M322.746 237.402V232.075H328.047V237.402H322.746Z" fill="#1D2229"/>
<path d="M41.762 221.421V216.094H47.0635V221.421H41.762Z" fill="#1D2229"/>
<path d="M41.762 253.384V248.057H47.0635V253.384H41.762Z" fill="#1D2229"/>
<path d="M338.651 221.421V216.094H343.952V221.421H338.651Z" fill="#1D2229"/>
<path d="M314.794 197.449V192.122H320.095V197.449H314.794Z" fill="#1D2229"/>
<path d="M41.762 229.412V224.085H47.0635V229.412H41.762Z" fill="#1D2229"/>
<path d="M41.762 261.374V256.047H47.0635V261.374H41.762Z" fill="#1D2229"/>
<path d="M338.651 229.412V224.085H343.952V229.412H338.651Z" fill="#1D2229"/>
<path d="M314.794 205.44V200.113H320.095V205.44H314.794Z" fill="#1D2229"/>
<path d="M41.762 237.402V232.075H47.0635V237.402H41.762Z" fill="#1D2229"/>
<path d="M41.762 269.365V264.038H47.0635V269.365H41.762Z" fill="#1D2229"/>
<path d="M338.651 237.402V232.075H343.952V237.402H338.651Z" fill="#1D2229"/>
<path d="M314.794 213.431V208.104H320.095V213.431H314.794Z" fill="#1D2229"/>
<path d="M57.6666 221.421V216.094H62.9682V221.421H57.6666Z" fill="#1D2229"/>
<path d="M57.6666 253.384V248.057H62.9682V253.384H57.6666Z" fill="#1D2229"/>
<path d="M354.556 221.421V216.094H359.857V221.421H354.556Z" fill="#1D2229"/>
<path d="M330.698 197.449V192.122H336V197.449H330.698Z" fill="#1D2229"/>
<path d="M57.6666 229.412V224.085H62.9682V229.412H57.6666Z" fill="#1D2229"/>
<path d="M57.6666 261.374V256.047H62.9682V261.374H57.6666Z" fill="#1D2229"/>
<path d="M354.556 229.412V224.085H359.857V229.412H354.556Z" fill="#1D2229"/>
<path d="M330.698 205.44V200.113H336V205.44H330.698Z" fill="#1D2229"/>
<path d="M57.6666 237.402V232.075H62.9682V237.402H57.6666Z" fill="#1D2229"/>
<path d="M57.6666 269.365V264.038H62.9682V269.365H57.6666Z" fill="#1D2229"/>
<path d="M354.556 237.402V232.075H359.857V237.402H354.556Z" fill="#1D2229"/>
<path d="M330.698 213.431V208.104H336V213.431H330.698Z" fill="#1D2229"/>
<path d="M73.5715 221.421V216.094H78.8731V221.421H73.5715Z" fill="#1D2229"/>
<path d="M73.5715 253.384V248.057H78.8731V253.384H73.5715Z" fill="#1D2229"/>
<path d="M370.46 221.421V216.094H375.762V221.421H370.46Z" fill="#1D2229"/>
<path d="M346.603 197.449V192.122H351.905V197.449H346.603Z" fill="#1D2229"/>
<path d="M73.5715 229.412V224.085H78.8731V229.412H73.5715Z" fill="#1D2229"/>
<path d="M73.5715 261.374V256.047H78.8731V261.374H73.5715Z" fill="#1D2229"/>
<path d="M370.46 229.412V224.085H375.762V229.412H370.46Z" fill="#1D2229"/>
<path d="M346.603 205.44V200.113H351.905V205.44H346.603Z" fill="#1D2229"/>
<path d="M73.5715 237.402V232.075H78.8731V237.402H73.5715Z" fill="#1D2229"/>
<path d="M73.5715 269.365V264.038H78.8731V269.365H73.5715Z" fill="#1D2229"/>
<path d="M370.46 237.402V232.075H375.762V237.402H370.46Z" fill="#1D2229"/>
<path d="M346.603 213.431V208.104H351.905V213.431H346.603Z" fill="#1D2229"/>
<path d="M89.4763 221.421V216.094L94.7779 216.094V221.421L89.4763 221.421Z" fill="#1D2229"/>
<path d="M386.365 221.421V216.094H391.667V221.421H386.365Z" fill="#1D2229"/>
<path d="M362.508 197.449V192.122H367.809V197.449H362.508Z" fill="#1D2229"/>
<path d="M89.4763 229.412V224.085L94.7779 224.085V229.412L89.4763 229.412Z" fill="#1D2229"/>
<path d="M386.365 229.412V224.085H391.667V229.412H386.365Z" fill="#1D2229"/>
<path d="M362.508 205.44V200.113H367.809V205.44H362.508Z" fill="#1D2229"/>
<path d="M89.4763 237.402V232.075L94.7779 232.075V237.402L89.4763 237.402Z" fill="#1D2229"/>
<path d="M386.365 237.402V232.075H391.667V237.402H386.365Z" fill="#1D2229"/>
<path d="M362.508 213.431V208.104H367.809V213.431H362.508Z" fill="#1D2229"/>
<path d="M211.413 149.505V144.178H216.714V149.505H211.413Z" fill="#1D2229"/>
<path d="M347.928 149.505V144.178H353.23V149.505H347.928Z" fill="#1D2229"/>
<path d="M211.413 197.449V192.122H216.714V197.449H211.413Z" fill="#1D2229"/>
<path d="M211.413 205.44V200.113H216.714V205.44H211.413Z" fill="#1D2229"/>
<path d="M211.413 213.431V208.104H216.714V213.431H211.413Z" fill="#1D2229"/>
<path d="M211.413 221.421V216.094H216.714V221.421H211.413Z" fill="#1D2229"/>
<path d="M211.413 229.412V224.085H216.714V229.412H211.413Z" fill="#1D2229"/>
<path d="M211.413 237.402V232.075H216.714V237.402H211.413Z" fill="#1D2229"/>
<path d="M211.413 245.393V240.066H216.714V245.393H211.413Z" fill="#1D2229"/>
<path d="M211.413 253.384V248.057H216.714V253.384H211.413Z" fill="#1D2229"/>
<path d="M211.413 261.374V256.047H216.714V261.374H211.413Z" fill="#1D2229"/>
<path d="M211.413 269.365V264.038H216.714V269.365H211.413Z" fill="#1D2229"/>
<path d="M211.413 277.356L211.413 272.028H216.714L216.714 277.356H211.413Z" fill="#1D2229"/>
<path d="M211.413 285.346V280.019H216.714V285.346H211.413Z" fill="#1D2229"/>
<path d="M144.135 279.155L144.135 273.828H149.437L149.437 279.155H144.135Z" fill="#1D2229"/>
<path d="M144.135 287.146V281.818H149.437V287.146H144.135Z" fill="#1D2229"/>
<path d="M235.27 213.431V208.104H240.571V213.431H235.27Z" fill="#1D2229"/>
<path d="M235.27 221.421V216.094H240.571V221.421H235.27Z" fill="#1D2229"/>
<path d="M235.27 229.412V224.085H240.571V229.412H235.27Z" fill="#1D2229"/>
<path d="M235.27 237.402V232.075H240.571V237.402H235.27Z" fill="#1D2229"/>
<path d="M235.27 245.393V240.066H240.571V245.393H235.27Z" fill="#1D2229"/>
<path d="M235.27 253.384V248.057H240.571V253.384H235.27Z" fill="#1D2229"/>
<path d="M235.27 261.374V256.047H240.571V261.374H235.27Z" fill="#1D2229"/>
<path d="M235.27 269.365V264.038H240.571V269.365H235.27Z" fill="#1D2229"/>
<path d="M235.27 277.356L235.27 272.028H240.571L240.571 277.356H235.27Z" fill="#1D2229"/>
<path d="M235.27 285.346V280.019H240.571V285.346H235.27Z" fill="#1D2229"/>
<path d="M167.992 279.155L167.992 273.828H173.294L173.294 279.155H167.992Z" fill="#1D2229"/>
<path d="M175.944 279.155L175.944 273.828L181.246 273.828L181.246 279.155L175.944 279.155Z" fill="#1D2229"/>
<path d="M167.992 287.146V281.818H173.294V287.146H167.992Z" fill="#1D2229"/>
<path d="M259.127 213.431V208.104H264.429V213.431H259.127Z" fill="#1D2229"/>
<path d="M259.127 221.421V216.094H264.429V221.421H259.127Z" fill="#1D2229"/>
<path d="M259.127 229.412V224.085H264.429V229.412H259.127Z" fill="#1D2229"/>
<path d="M282.984 213.431V208.104H288.286V213.431H282.984Z" fill="#1D2229"/>
<path d="M251.174 141.515V136.188H256.476V141.515H251.174Z" fill="#1D2229"/>
<path d="M387.69 141.515V136.188H392.992V141.515H387.69Z" fill="#1D2229"/>
<path d="M251.174 149.505V144.178H256.476V149.505H251.174Z" fill="#1D2229"/>
<path d="M387.69 149.505V144.178H392.992V149.505H387.69Z" fill="#1D2229"/>
<path d="M243.222 149.505V144.178H248.524V149.505H243.222Z" fill="#1D2229"/>
<path d="M379.738 149.505V144.178H385.04V149.505H379.738Z" fill="#1D2229"/>
<path d="M243.222 165.487V160.159H248.524V165.487H243.222Z" fill="#1D2229"/>
<path d="M251.174 157.496V152.169H256.476V157.496H251.174Z" fill="#1D2229"/>
<path d="M251.174 165.487V160.159H256.476V165.487H251.174Z" fill="#1D2229"/>
<path d="M25.8572 21.6548V16.3277H31.1587V21.6548L25.8572 21.6548Z" fill="#1D2229"/>
<path d="M324.071 21.6548V16.3277L329.373 16.3277V21.6548L324.071 21.6548Z" fill="#1D2229"/>
<path d="M17.9049 21.6548V16.3277H23.2064V21.6548L17.9049 21.6548Z" fill="#1D2229"/>
<path d="M316.119 21.6548V16.3277H321.421V21.6548H316.119Z" fill="#1D2229"/>
<path d="M9.9523 21.6548L9.9523 16.3277H15.2539L15.2539 21.6548H9.9523Z" fill="#1D2229"/>
<path d="M308.167 21.6548V16.3277H313.468V21.6548H308.167Z" fill="#1D2229"/>
<path d="M25.8572 49.6224V44.2953H31.1587V49.6224H25.8572Z" fill="#1D2229"/>
<path d="M307.071 49.6224V44.2953H312.373V49.6224H307.071Z" fill="#1D2229"/>
<path d="M73.5715 98.8979V93.5708H78.8731V98.8979H73.5715Z" fill="#1D2229"/>
<path d="M73.5715 122.87V117.543H78.8731V122.87H73.5715Z" fill="#1D2229"/>
<path d="M73.5715 197.449V192.122H78.8731V197.449H73.5715Z" fill="#1D2229"/>
<path d="M371.786 98.8979V93.5708H377.087V98.8979H371.786Z" fill="#1D2229"/>
<path d="M195.508 40.2993V34.9722H200.809V40.2993H195.508Z" fill="#1D2229"/>
<path d="M203.46 98.8979V93.5708H208.762V98.8979H203.46Z" fill="#1D2229"/>
<path d="M203.46 221.421V216.094H208.762V221.421H203.46Z" fill="#1D2229"/>
<path d="M203.46 90.9072V85.5801H208.762V90.9072H203.46Z" fill="#1D2229"/>
<path d="M203.46 213.431V208.104H208.762V213.431H203.46Z" fill="#1D2229"/>
<path d="M203.46 205.44V200.113H208.762V205.44H203.46Z" fill="#1D2229"/>
<path d="M203.46 197.449V192.122H208.762V197.449H203.46Z" fill="#1D2229"/>
<path d="M203.46 189.459V184.132H208.762V189.459H203.46Z" fill="#1D2229"/>
<path d="M131.889 98.8979V93.5708L137.191 93.5708V98.8979L131.889 98.8979Z" fill="#1D2229"/>
<path d="M131.889 221.421V216.094H137.191V221.421H131.889Z" fill="#1D2229"/>
<path d="M406.246 197.449V192.122H411.547V197.449H406.246Z" fill="#1D2229"/>
<path d="M155.746 221.421V216.094H161.048V221.421H155.746Z" fill="#1D2229"/>
<path d="M131.889 74.926V69.5989H137.191V74.926H131.889Z" fill="#1D2229"/>
<path d="M131.889 66.9353V61.6082H137.191V66.9353H131.889Z" fill="#1D2229"/>
<path d="M131.889 58.9445V53.6174H137.191V58.9445H131.889Z" fill="#1D2229"/>
<path d="M73.5715 90.9072V85.5801H78.8731V90.9072H73.5715Z" fill="#1D2229"/>
<path d="M73.5715 189.459V184.132H78.8731V189.459H73.5715Z" fill="#1D2229"/>
<path d="M371.786 90.9072V85.5801H377.087V90.9072H371.786Z" fill="#1D2229"/>
<path d="M195.508 32.3093V26.9822L200.809 26.9822V32.3093H195.508Z" fill="#1D2229"/>
<path d="M49.7141 82.9167V77.5897H55.0157V82.9167H49.7141Z" fill="#1D2229"/>
<path d="M49.7141 181.468V176.141H55.0157V181.468H49.7141Z" fill="#1D2229"/>
<path d="M347.928 82.9167V77.5897H353.23V82.9167H347.928Z" fill="#1D2229"/>
<path d="M49.7141 90.9072V85.5801H55.0157V90.9072H49.7141Z" fill="#1D2229"/>
<path d="M49.7141 189.459V184.132H55.0157V189.459H49.7141Z" fill="#1D2229"/>
<path d="M347.928 90.9072V85.5801H353.23V90.9072H347.928Z" fill="#1D2229"/>
<path d="M171.651 32.3093V26.9822L176.952 26.9822V32.3093H171.651Z" fill="#1D2229"/>
<path d="M49.7141 98.8979V93.5708H55.0157V98.8979H49.7141Z" fill="#1D2229"/>
<path d="M49.7141 122.87L49.7141 117.543H55.0157L55.0157 122.87H49.7141Z" fill="#1D2229"/>
<path d="M49.7141 197.449V192.122H55.0157V197.449H49.7141Z" fill="#1D2229"/>
<path d="M347.928 98.8979V93.5708H353.23V98.8979H347.928Z" fill="#1D2229"/>
<path d="M171.651 40.2993V34.9722H176.952V40.2993H171.651Z" fill="#1D2229"/>
<path d="M49.7141 106.889V101.562H55.0157V106.889H49.7141Z" fill="#1D2229"/>
<path d="M49.7141 130.861V125.533H55.0157V130.861H49.7141Z" fill="#1D2229"/>
<path d="M49.7141 205.44V200.113H55.0157V205.44H49.7141Z" fill="#1D2229"/>
<path d="M347.928 106.889V101.562H353.23V106.889H347.928Z" fill="#1D2229"/>
<path d="M171.651 48.2908V42.9637H176.952V48.2908H171.651Z" fill="#1D2229"/>
<path d="M49.7141 114.879V109.552H55.0157V114.879H49.7141Z" fill="#1D2229"/>
<path d="M49.7141 138.851V133.524H55.0157V138.851H49.7141Z" fill="#1D2229"/>
<path d="M49.7141 213.431L49.7141 208.104H55.0157L55.0157 213.431H49.7141Z" fill="#1D2229"/>
<path d="M49.7141 245.393V240.066H55.0157V245.393H49.7141Z" fill="#1D2229"/>
<path d="M347.928 114.879V109.552H353.23V114.879H347.928Z" fill="#1D2229"/>
<path d="M171.651 56.2808V50.9537H176.952V56.2808H171.651Z" fill="#1D2229"/>
<path d="M17.9049 49.6224V44.2953H23.2064V49.6224H17.9049Z" fill="#1D2229"/>
<path d="M299.119 49.6224V44.2953H304.421V49.6224H299.119Z" fill="#1D2229"/>
<path d="M89.4763 98.8979V93.5708H94.7779V98.8979H89.4763Z" fill="#1D2229"/>
<path d="M89.4763 122.87V117.543H94.7779V122.87H89.4763Z" fill="#1D2229"/>
<path d="M89.4763 197.449V192.122L94.7779 192.122V197.449L89.4763 197.449Z" fill="#1D2229"/>
<path d="M387.69 98.8979V93.5708H392.992V98.8979H387.69Z" fill="#1D2229"/>
<path d="M147.793 98.8979V93.5708H153.095V98.8979H147.793Z" fill="#1D2229"/>
<path d="M147.793 221.421V216.094H153.095V221.421H147.793Z" fill="#1D2229"/>
<path d="M171.651 221.421V216.094H176.952V221.421H171.651Z" fill="#1D2229"/>
<path d="M179.603 221.421V216.094H184.905V221.421H179.603Z" fill="#1D2229"/>
<path d="M147.793 74.926V69.5989H153.095V74.926H147.793Z" fill="#1D2229"/>
<path d="M65.619 98.8979V93.5708H70.9205V98.8979H65.619Z" fill="#1D2229"/>
<path d="M65.619 122.87L65.619 117.543H70.9205V122.87H65.619Z" fill="#1D2229"/>
<path d="M65.619 197.449V192.122H70.9205V197.449H65.619Z" fill="#1D2229"/>
<path d="M363.833 98.8979V93.5708H369.135V98.8979H363.833Z" fill="#1D2229"/>
<path d="M187.556 40.2993V34.9722H192.857V40.2993H187.556Z" fill="#1D2229"/>
<path d="M195.508 98.8979V93.5708H200.809V98.8979H195.508Z" fill="#1D2229"/>
<path d="M195.508 221.421V216.094H200.809V221.421H195.508Z" fill="#1D2229"/>
<path d="M195.508 90.9072V85.5801H200.809V90.9072H195.508Z" fill="#1D2229"/>
<path d="M195.508 213.431V208.104H200.809V213.431H195.508Z" fill="#1D2229"/>
<path d="M195.508 205.44V200.113H200.809V205.44H195.508Z" fill="#1D2229"/>
<path d="M195.508 197.449V192.122H200.809V197.449H195.508Z" fill="#1D2229"/>
<path d="M195.508 189.459V184.132H200.809V189.459H195.508Z" fill="#1D2229"/>
<path d="M123.936 98.8979V93.5708H129.238V98.8979H123.936Z" fill="#1D2229"/>
<path d="M123.936 221.421V216.094H129.238V221.421H123.936Z" fill="#1D2229"/>
<path d="M398.294 197.449V192.122H403.595V197.449H398.294Z" fill="#1D2229"/>
<path d="M123.936 74.926V69.5989H129.238V74.926H123.936Z" fill="#1D2229"/>
<path d="M187.556 98.8979V93.5708H192.857V98.8979H187.556Z" fill="#1D2229"/>
<path d="M187.556 221.421V216.094H192.857V221.421H187.556Z" fill="#1D2229"/>
<path d="M187.556 90.9072V85.5801H192.857V90.9072H187.556Z" fill="#1D2229"/>
<path d="M187.556 213.431V208.104H192.857V213.431H187.556Z" fill="#1D2229"/>
<path d="M187.556 205.44V200.113H192.857V205.44H187.556Z" fill="#1D2229"/>
<path d="M187.556 197.449V192.122H192.857V197.449H187.556Z" fill="#1D2229"/>
<path d="M187.556 189.459V184.132H192.857V189.459H187.556Z" fill="#1D2229"/>
<path d="M115.984 98.8979V93.5708H121.286V98.8979H115.984Z" fill="#1D2229"/>
<path d="M115.984 221.421V216.094H121.286V221.421H115.984Z" fill="#1D2229"/>
<path d="M390.341 197.449V192.122H395.643V197.449H390.341Z" fill="#1D2229"/>
<path d="M115.984 74.926V69.5989H121.286V74.926H115.984Z" fill="#1D2229"/>
<path d="M115.984 66.9353V61.6082H121.286V66.9353H115.984Z" fill="#1D2229"/>
<path d="M115.984 58.9445L115.984 53.6174H121.286L121.286 58.9445H115.984Z" fill="#1D2229"/>
<path d="M65.619 90.9072V85.5801H70.9205V90.9072H65.619Z" fill="#1D2229"/>
<path d="M65.619 189.459V184.132H70.9205V189.459H65.619Z" fill="#1D2229"/>
<path d="M363.833 90.9072V85.5801H369.135V90.9072H363.833Z" fill="#1D2229"/>
<path d="M187.556 32.3093V26.9822L192.857 26.9822V32.3093H187.556Z" fill="#1D2229"/>
<path d="M41.762 82.9167V77.5897L47.0635 77.5897V82.9167L41.762 82.9167Z" fill="#1D2229"/>
<path d="M41.762 181.468V176.141H47.0635V181.468H41.762Z" fill="#1D2229"/>
<path d="M339.976 82.9167V77.5897H345.278V82.9167H339.976Z" fill="#1D2229"/>
<path d="M41.762 90.9072V85.5801L47.0635 85.5801V90.9072L41.762 90.9072Z" fill="#1D2229"/>
<path d="M41.762 189.459V184.132H47.0635V189.459H41.762Z" fill="#1D2229"/>
<path d="M339.976 90.9072V85.5801H345.278V90.9072H339.976Z" fill="#1D2229"/>
<path d="M163.698 32.3093V26.9822L169 26.9822V32.3093H163.698Z" fill="#1D2229"/>
<path d="M41.762 98.8979V93.5708L47.0635 93.5708V98.8979L41.762 98.8979Z" fill="#1D2229"/>
<path d="M41.762 122.87L41.762 117.543L47.0635 117.543L47.0635 122.87L41.762 122.87Z" fill="#1D2229"/>
<path d="M41.762 197.449V192.122H47.0635V197.449H41.762Z" fill="#1D2229"/>
<path d="M339.976 98.8979V93.5708H345.278V98.8979H339.976Z" fill="#1D2229"/>
<path d="M163.698 40.2993V34.9722H169V40.2993H163.698Z" fill="#1D2229"/>
<path d="M41.762 106.889V101.562L47.0635 101.562V106.889L41.762 106.889Z" fill="#1D2229"/>
<path d="M41.762 130.861V125.533L47.0635 125.533V130.861H41.762Z" fill="#1D2229"/>
<path d="M41.762 205.44V200.113H47.0635V205.44H41.762Z" fill="#1D2229"/>
<path d="M339.976 106.889V101.562H345.278V106.889H339.976Z" fill="#1D2229"/>
<path d="M41.762 114.879V109.552L47.0635 109.552V114.879L41.762 114.879Z" fill="#1D2229"/>
<path d="M41.762 138.851V133.524H47.0635V138.851H41.762Z" fill="#1D2229"/>
<path d="M41.762 213.431L41.762 208.104H47.0635L47.0635 213.431H41.762Z" fill="#1D2229"/>
<path d="M41.762 245.393V240.066H47.0635V245.393H41.762Z" fill="#1D2229"/>
<path d="M339.976 114.879V109.552H345.278V114.879H339.976Z" fill="#1D2229"/>
<path d="M9.9523 49.6224L9.9523 44.2953H15.2539V49.6224H9.9523Z" fill="#1D2229"/>
<path d="M291.167 49.6224V44.2953H296.468V49.6224H291.167Z" fill="#1D2229"/>
<path d="M81.5237 98.8979V93.5708H86.8253V98.8979H81.5237Z" fill="#1D2229"/>
<path d="M81.5237 122.87V117.543H86.8253V122.87H81.5237Z" fill="#1D2229"/>
<path d="M81.5237 197.449V192.122H86.8253V197.449H81.5237Z" fill="#1D2229"/>
<path d="M379.738 98.8979V93.5708H385.04V98.8979H379.738Z" fill="#1D2229"/>
<path d="M203.46 40.2993V34.9722H208.762V40.2993H203.46Z" fill="#1D2229"/>
<path d="M139.841 98.8979V93.5708H145.143V98.8979H139.841Z" fill="#1D2229"/>
<path d="M139.841 221.421V216.094H145.143V221.421H139.841Z" fill="#1D2229"/>
<path d="M163.698 221.421V216.094H169V221.421H163.698Z" fill="#1D2229"/>
<path d="M139.841 74.926V69.5989H145.143V74.926H139.841Z" fill="#1D2229"/>
<path d="M57.6666 98.8979V93.5708H62.9682V98.8979H57.6666Z" fill="#1D2229"/>
<path d="M57.6666 122.87L57.6666 117.543H62.9682L62.9682 122.87H57.6666Z" fill="#1D2229"/>
<path d="M57.6666 197.449V192.122H62.9682V197.449H57.6666Z" fill="#1D2229"/>
<path d="M355.881 98.8979V93.5708H361.183V98.8979H355.881Z" fill="#1D2229"/>
<path d="M179.603 40.2993V34.9722H184.905V40.2993H179.603Z" fill="#1D2229"/>
<path d="M57.6666 90.9072V85.5801H62.9682V90.9072H57.6666Z" fill="#1D2229"/>
<path d="M57.6666 189.459V184.132H62.9682V189.459H57.6666Z" fill="#1D2229"/>
<path d="M355.881 90.9072V85.5801H361.183V90.9072H355.881Z" fill="#1D2229"/>
<path d="M179.603 32.3093V26.9822L184.905 26.9822V32.3093H179.603Z" fill="#1D2229"/>
<path d="M33.8096 82.9167V77.5897H39.1112V82.9167H33.8096Z" fill="#1D2229"/>
<path d="M33.8096 181.468V176.141H39.1112V181.468H33.8096Z" fill="#1D2229"/>
<path d="M332.024 82.9167V77.5897H337.325V82.9167H332.024Z" fill="#1D2229"/>
<path d="M25.8572 57.6125V52.2854H31.1587V57.6125H25.8572Z" fill="#1D2229"/>
<path d="M371.071 57.6125V52.2854H376.373V57.6125H371.071Z" fill="#1D2229"/>
<path d="M73.5715 106.889V101.562H78.8731V106.889H73.5715Z" fill="#1D2229"/>
<path d="M73.5715 130.861V125.533H78.8731V130.861H73.5715Z" fill="#1D2229"/>
<path d="M73.5715 205.44V200.113H78.8731V205.44H73.5715Z" fill="#1D2229"/>
<path d="M371.786 106.889V101.562H377.087V106.889H371.786Z" fill="#1D2229"/>
<path d="M195.508 48.2908V42.9637H200.809V48.2908H195.508Z" fill="#1D2229"/>
<path d="M203.46 106.889V101.562H208.762V106.889H203.46Z" fill="#1D2229"/>
<path d="M203.46 229.412V224.085H208.762V229.412H203.46Z" fill="#1D2229"/>
<path d="M131.889 106.889V101.562L137.191 101.562V106.889L131.889 106.889Z" fill="#1D2229"/>
<path d="M131.889 229.412V224.085H137.191V229.412H131.889Z" fill="#1D2229"/>
<path d="M406.246 205.44V200.113H411.547V205.44H406.246Z" fill="#1D2229"/>
<path d="M155.746 229.412V224.085H161.048V229.412H155.746Z" fill="#1D2229"/>
<path d="M131.889 82.9167V77.5897L137.191 77.5897V82.9167L131.889 82.9167Z" fill="#1D2229"/>
<path d="M17.9049 57.6125V52.2854H23.2064V57.6125H17.9049Z" fill="#1D2229"/>
<path d="M363.119 57.6125V52.2854H368.421V57.6125H363.119Z" fill="#1D2229"/>
<path d="M89.4763 106.889V101.562H94.7779V106.889H89.4763Z" fill="#1D2229"/>
<path d="M89.4763 130.861V125.533H94.7779V130.861H89.4763Z" fill="#1D2229"/>
<path d="M89.4763 205.44V200.113L94.7779 200.113V205.44L89.4763 205.44Z" fill="#1D2229"/>
<path d="M387.69 106.889V101.562H392.992V106.889H387.69Z" fill="#1D2229"/>
<path d="M147.793 106.889V101.562H153.095V106.889H147.793Z" fill="#1D2229"/>
<path d="M147.793 229.412V224.085H153.095V229.412H147.793Z" fill="#1D2229"/>
<path d="M171.651 229.412V224.085H176.952V229.412H171.651Z" fill="#1D2229"/>
<path d="M179.603 229.412V224.085H184.905V229.412H179.603Z" fill="#1D2229"/>
<path d="M147.793 82.9167V77.5897H153.095V82.9167H147.793Z" fill="#1D2229"/>
<path d="M65.619 106.889V101.562H70.9205V106.889H65.619Z" fill="#1D2229"/>
<path d="M65.619 130.861V125.533H70.9205V130.861H65.619Z" fill="#1D2229"/>
<path d="M65.619 205.44V200.113H70.9205V205.44H65.619Z" fill="#1D2229"/>
<path d="M363.833 106.889V101.562H369.135V106.889H363.833Z" fill="#1D2229"/>
<path d="M187.556 48.2908V42.9637H192.857V48.2908H187.556Z" fill="#1D2229"/>
<path d="M195.508 106.889V101.562H200.809V106.889H195.508Z" fill="#1D2229"/>
<path d="M195.508 229.412V224.085H200.809V229.412H195.508Z" fill="#1D2229"/>
<path d="M123.936 106.889V101.562H129.238V106.889H123.936Z" fill="#1D2229"/>
<path d="M123.936 229.412V224.085H129.238V229.412H123.936Z" fill="#1D2229"/>
<path d="M398.294 205.44V200.113H403.595V205.44H398.294Z" fill="#1D2229"/>
<path d="M123.936 82.9167V77.5897H129.238V82.9167H123.936Z" fill="#1D2229"/>
<path d="M187.556 106.889V101.562H192.857V106.889H187.556Z" fill="#1D2229"/>
<path d="M187.556 229.412V224.085H192.857V229.412H187.556Z" fill="#1D2229"/>
<path d="M115.984 106.889V101.562H121.286V106.889H115.984Z" fill="#1D2229"/>
<path d="M115.984 229.412V224.085H121.286V229.412H115.984Z" fill="#1D2229"/>
<path d="M390.341 205.44V200.113H395.643V205.44H390.341Z" fill="#1D2229"/>
<path d="M115.984 82.9167V77.5897H121.286V82.9167H115.984Z" fill="#1D2229"/>
<path d="M9.9523 57.6125V52.2854H15.2539V57.6125H9.9523Z" fill="#1D2229"/>
<path d="M291.167 57.6125V52.2854H296.468V57.6125H291.167Z" fill="#1D2229"/>
<path d="M81.5237 106.889V101.562H86.8253V106.889H81.5237Z" fill="#1D2229"/>
<path d="M81.5237 130.861V125.533H86.8253V130.861H81.5237Z" fill="#1D2229"/>
<path d="M81.5237 205.44V200.113H86.8253V205.44H81.5237Z" fill="#1D2229"/>
<path d="M379.738 106.889V101.562H385.04V106.889H379.738Z" fill="#1D2229"/>
<path d="M203.46 48.2908V42.9637H208.762V48.2908H203.46Z" fill="#1D2229"/>
<path d="M139.841 106.889V101.562H145.143V106.889H139.841Z" fill="#1D2229"/>
<path d="M139.841 229.412V224.085H145.143V229.412H139.841Z" fill="#1D2229"/>
<path d="M163.698 229.412V224.085H169V229.412H163.698Z" fill="#1D2229"/>
<path d="M139.841 82.9167V77.5897H145.143V82.9167H139.841Z" fill="#1D2229"/>
<path d="M57.6666 106.889V101.562H62.9682V106.889H57.6666Z" fill="#1D2229"/>
<path d="M57.6666 130.861V125.533H62.9682V130.861H57.6666Z" fill="#1D2229"/>
<path d="M57.6666 205.44V200.113H62.9682V205.44H57.6666Z" fill="#1D2229"/>
<path d="M355.881 106.889V101.562H361.183V106.889H355.881Z" fill="#1D2229"/>
<path d="M179.603 48.2908V42.9637H184.905V48.2908H179.603Z" fill="#1D2229"/>
<path d="M25.8572 65.6039V60.2768H31.1587V65.6039H25.8572Z" fill="#1D2229"/>
<path d="M371.071 65.6039V60.2768H376.373V65.6039H371.071Z" fill="#1D2229"/>
<path d="M73.5715 114.879V109.552H78.8731V114.879H73.5715Z" fill="#1D2229"/>
<path d="M73.5715 138.851V133.524H78.8731V138.851H73.5715Z" fill="#1D2229"/>
<path d="M73.5715 213.431V208.104H78.8731V213.431H73.5715Z" fill="#1D2229"/>
<path d="M73.5715 245.393V240.066H78.8731V245.393H73.5715Z" fill="#1D2229"/>
<path d="M371.786 114.879V109.552H377.087V114.879H371.786Z" fill="#1D2229"/>
<path d="M195.508 56.2808V50.9537H200.809V56.2808H195.508Z" fill="#1D2229"/>
<path d="M203.46 114.879V109.552H208.762V114.879H203.46Z" fill="#1D2229"/>
<path d="M203.46 237.402V232.075H208.762V237.402H203.46Z" fill="#1D2229"/>
<path d="M131.889 114.879V109.552L137.191 109.552V114.879L131.889 114.879Z" fill="#1D2229"/>
<path d="M131.889 237.402V232.075H137.191V237.402H131.889Z" fill="#1D2229"/>
<path d="M406.246 213.431V208.104H411.547V213.431H406.246Z" fill="#1D2229"/>
<path d="M155.746 237.402V232.075H161.048V237.402H155.746Z" fill="#1D2229"/>
<path d="M131.889 90.9072V85.5801L137.191 85.5801V90.9072L131.889 90.9072Z" fill="#1D2229"/>
<path d="M131.889 213.431V208.104H137.191V213.431H131.889Z" fill="#1D2229"/>
<path d="M406.246 189.459L406.246 184.132H411.547L411.547 189.459H406.246Z" fill="#1D2229"/>
<path d="M131.889 205.44V200.113H137.191V205.44H131.889Z" fill="#1D2229"/>
<path d="M406.246 181.468V176.141H411.547V181.468H406.246Z" fill="#1D2229"/>
<path d="M131.889 197.449V192.122H137.191V197.449H131.889Z" fill="#1D2229"/>
<path d="M406.246 173.477V168.15H411.547V173.477H406.246Z" fill="#1D2229"/>
<path d="M131.889 189.459V184.132H137.191V189.459H131.889Z" fill="#1D2229"/>
<path d="M406.246 165.487V160.159H411.547V165.487H406.246Z" fill="#1D2229"/>
<path d="M17.9049 65.6039V60.2768H23.2064V65.6039H17.9049Z" fill="#1D2229"/>
<path d="M363.119 65.6039V60.2768H368.421V65.6039H363.119Z" fill="#1D2229"/>
<path d="M89.4763 114.879V109.552H94.7779V114.879H89.4763Z" fill="#1D2229"/>
<path d="M89.4763 138.851V133.524H94.7779V138.851H89.4763Z" fill="#1D2229"/>
<path d="M89.4763 213.431V208.104L94.7779 208.104V213.431L89.4763 213.431Z" fill="#1D2229"/>
<path d="M387.69 114.879V109.552H392.992V114.879H387.69Z" fill="#1D2229"/>
<path d="M147.793 114.879V109.552H153.095V114.879H147.793Z" fill="#1D2229"/>
<path d="M147.793 237.402V232.075H153.095V237.402H147.793Z" fill="#1D2229"/>
<path d="M171.651 237.402V232.075H176.952V237.402H171.651Z" fill="#1D2229"/>
<path d="M179.603 237.402V232.075H184.905V237.402H179.603Z" fill="#1D2229"/>
<path d="M147.793 90.9072V85.5801H153.095V90.9072H147.793Z" fill="#1D2229"/>
<path d="M147.793 213.431V208.104H153.095V213.431H147.793Z" fill="#1D2229"/>
<path d="M147.793 205.44V200.113H153.095V205.44H147.793Z" fill="#1D2229"/>
<path d="M147.793 197.449V192.122H153.095V197.449H147.793Z" fill="#1D2229"/>
<path d="M147.793 189.459V184.132H153.095V189.459H147.793Z" fill="#1D2229"/>
<path d="M155.746 90.9072V85.5801H161.048V90.9072H155.746Z" fill="#1D2229"/>
<path d="M155.746 213.431V208.104H161.048V213.431H155.746Z" fill="#1D2229"/>
<path d="M155.746 205.44V200.113H161.048V205.44H155.746Z" fill="#1D2229"/>
<path d="M155.746 197.449V192.122H161.048V197.449H155.746Z" fill="#1D2229"/>
<path d="M155.746 189.459V184.132H161.048V189.459H155.746Z" fill="#1D2229"/>
<path d="M163.698 90.9072V85.5801H169V90.9072H163.698Z" fill="#1D2229"/>
<path d="M163.698 213.431V208.104H169V213.431H163.698Z" fill="#1D2229"/>
<path d="M163.698 205.44V200.113H169V205.44H163.698Z" fill="#1D2229"/>
<path d="M163.698 197.449V192.122H169V197.449H163.698Z" fill="#1D2229"/>
<path d="M163.698 189.459V184.132H169V189.459H163.698Z" fill="#1D2229"/>
<path d="M171.651 90.9072V85.5801H176.952V90.9072H171.651Z" fill="#1D2229"/>
<path d="M171.651 213.431V208.104H176.952V213.431H171.651Z" fill="#1D2229"/>
<path d="M171.651 205.44V200.113H176.952V205.44H171.651Z" fill="#1D2229"/>
<path d="M171.651 197.449V192.122H176.952V197.449H171.651Z" fill="#1D2229"/>
<path d="M171.651 189.459V184.132H176.952V189.459H171.651Z" fill="#1D2229"/>
<path d="M179.603 90.9072V85.5801H184.905V90.9072H179.603Z" fill="#1D2229"/>
<path d="M179.603 213.431V208.104H184.905V213.431H179.603Z" fill="#1D2229"/>
<path d="M179.603 205.44V200.113H184.905V205.44H179.603Z" fill="#1D2229"/>
<path d="M179.603 197.449V192.122H184.905V197.449H179.603Z" fill="#1D2229"/>
<path d="M179.603 189.459V184.132H184.905V189.459H179.603Z" fill="#1D2229"/>
<path d="M65.619 114.879V109.552H70.9205V114.879H65.619Z" fill="#1D2229"/>
<path d="M65.619 138.851V133.524H70.9205V138.851H65.619Z" fill="#1D2229"/>
<path d="M65.619 213.431V208.104H70.9205V213.431H65.619Z" fill="#1D2229"/>
<path d="M65.619 245.393V240.066H70.9205V245.393H65.619Z" fill="#1D2229"/>
<path d="M363.833 114.879V109.552H369.135V114.879H363.833Z" fill="#1D2229"/>
<path d="M187.556 56.2808V50.9537H192.857V56.2808H187.556Z" fill="#1D2229"/>
<path d="M195.508 114.879V109.552H200.809V114.879H195.508Z" fill="#1D2229"/>
<path d="M195.508 237.402V232.075H200.809V237.402H195.508Z" fill="#1D2229"/>
<path d="M123.936 114.879V109.552H129.238V114.879H123.936Z" fill="#1D2229"/>
<path d="M123.936 237.402V232.075H129.238V237.402H123.936Z" fill="#1D2229"/>
<path d="M398.294 213.431V208.104H403.595V213.431H398.294Z" fill="#1D2229"/>
<path d="M123.936 90.9072V85.5801H129.238V90.9072H123.936Z" fill="#1D2229"/>
<path d="M123.936 213.431V208.104H129.238V213.431H123.936Z" fill="#1D2229"/>
<path d="M398.294 189.459L398.294 184.132H403.595L403.595 189.459H398.294Z" fill="#1D2229"/>
<path d="M123.936 205.44V200.113H129.238V205.44H123.936Z" fill="#1D2229"/>
<path d="M398.294 181.468V176.141H403.595V181.468H398.294Z" fill="#1D2229"/>
<path d="M123.936 197.449V192.122H129.238V197.449H123.936Z" fill="#1D2229"/>
<path d="M398.294 173.477V168.15H403.595V173.477H398.294Z" fill="#1D2229"/>
<path d="M123.936 189.459V184.132H129.238V189.459H123.936Z" fill="#1D2229"/>
<path d="M398.294 165.487V160.159H403.595V165.487H398.294Z" fill="#1D2229"/>
<path d="M187.556 114.879V109.552H192.857V114.879H187.556Z" fill="#1D2229"/>
<path d="M187.556 237.402V232.075H192.857V237.402H187.556Z" fill="#1D2229"/>
<path d="M115.984 114.879V109.552H121.286V114.879H115.984Z" fill="#1D2229"/>
<path d="M115.984 237.402V232.075H121.286V237.402H115.984Z" fill="#1D2229"/>
<path d="M390.341 213.431V208.104H395.643V213.431H390.341Z" fill="#1D2229"/>
<path d="M115.984 90.9072V85.5801H121.286V90.9072H115.984Z" fill="#1D2229"/>
<path d="M115.984 213.431V208.104H121.286V213.431H115.984Z" fill="#1D2229"/>
<path d="M390.341 189.459L390.341 184.132H395.643L395.643 189.459H390.341Z" fill="#1D2229"/>
<path d="M115.984 205.44V200.113H121.286V205.44H115.984Z" fill="#1D2229"/>
<path d="M390.341 181.468V176.141H395.643V181.468H390.341Z" fill="#1D2229"/>
<path d="M115.984 197.449V192.122H121.286V197.449H115.984Z" fill="#1D2229"/>
<path d="M390.341 173.477V168.15H395.643V173.477H390.341Z" fill="#1D2229"/>
<path d="M115.984 189.459V184.132H121.286V189.459H115.984Z" fill="#1D2229"/>
<path d="M390.341 165.487V160.159H395.643V165.487H390.341Z" fill="#1D2229"/>
<path d="M9.9523 65.6039L9.9523 60.2768H15.2539L15.2539 65.6039H9.9523Z" fill="#1D2229"/>
<path d="M291.167 65.6039V60.2768H296.468V65.6039H291.167Z" fill="#1D2229"/>
<path d="M81.5237 114.879V109.552H86.8253V114.879H81.5237Z" fill="#1D2229"/>
<path d="M81.5237 138.851V133.524H86.8253V138.851H81.5237Z" fill="#1D2229"/>
<path d="M81.5237 213.431V208.104H86.8253V213.431H81.5237Z" fill="#1D2229"/>
<path d="M379.738 114.879V109.552H385.04V114.879H379.738Z" fill="#1D2229"/>
<path d="M203.46 56.2808V50.9537H208.762V56.2808H203.46Z" fill="#1D2229"/>
<path d="M139.841 114.879V109.552H145.143V114.879H139.841Z" fill="#1D2229"/>
<path d="M139.841 237.402V232.075H145.143V237.402H139.841Z" fill="#1D2229"/>
<path d="M163.698 237.402V232.075H169V237.402H163.698Z" fill="#1D2229"/>
<path d="M139.841 90.9072V85.5801H145.143V90.9072H139.841Z" fill="#1D2229"/>
<path d="M139.841 213.431V208.104H145.143V213.431H139.841Z" fill="#1D2229"/>
<path d="M139.841 205.44V200.113H145.143V205.44H139.841Z" fill="#1D2229"/>
<path d="M139.841 197.449V192.122H145.143V197.449H139.841Z" fill="#1D2229"/>
<path d="M139.841 189.459V184.132H145.143V189.459H139.841Z" fill="#1D2229"/>
<path d="M57.6666 114.879V109.552H62.9682V114.879H57.6666Z" fill="#1D2229"/>
<path d="M57.6666 138.851V133.524H62.9682V138.851H57.6666Z" fill="#1D2229"/>
<path d="M57.6666 213.431L57.6666 208.104H62.9682L62.9682 213.431H57.6666Z" fill="#1D2229"/>
<path d="M57.6666 245.393V240.066H62.9682V245.393H57.6666Z" fill="#1D2229"/>
<path d="M355.881 114.879V109.552H361.183V114.879H355.881Z" fill="#1D2229"/>
<path d="M179.603 56.2808V50.9537H184.905V56.2808H179.603Z" fill="#1D2229"/>
<path d="M247.774 144.328L247.774 49.3276" stroke="#718096" stroke-dasharray="3 3"/>
<path fill-rule="evenodd" clip-rule="evenodd" d="M244.192 51.4699C243.871 51.7831 244.093 52.3276 244.541 52.3276L251.006 52.3276C251.454 52.3276 251.676 51.7831 251.355 51.4699L248.123 48.3136C247.929 48.1239 247.618 48.1239 247.424 48.3136L244.192 51.4699Z" fill="#718096"/>
<path fill-rule="evenodd" clip-rule="evenodd" d="M244.192 142.185C243.871 141.872 244.093 141.328 244.541 141.328L251.006 141.328C251.454 141.328 251.676 141.872 251.355 142.185L248.123 145.342C247.929 145.531 247.618 145.531 247.424 145.342L244.192 142.185Z" fill="#718096"/>
<path d="M229.198 30.8389L151.198 30.8389" stroke="#718096" stroke-dasharray="3 3"/>
<path fill-rule="evenodd" clip-rule="evenodd" d="M153.341 34.4207C153.654 34.7415 154.198 34.5197 154.198 34.0714L154.198 27.6073C154.198 27.159 153.654 26.9372 153.341 27.258L150.184 30.49C149.994 30.6843 149.994 30.9944 150.184 31.1887L153.341 34.4207Z" fill="#718096"/>
<path fill-rule="evenodd" clip-rule="evenodd" d="M227.056 34.4207C226.743 34.7415 226.198 34.5197 226.198 34.0714L226.198 27.6073C226.198 27.159 226.743 26.9372 227.056 27.2579L230.212 30.49C230.402 30.6843 230.402 30.9944 230.212 31.1887L227.056 34.4207Z" fill="#718096"/>
<g filter="url(#filter0_dd_536_10886)">
<rect x="149.198" y="146.328" width="99" height="82" rx="6" transform="rotate(-90 149.198 146.328)" fill="#E53939"/>
<path fill-rule="evenodd" clip-rule="evenodd" d="M199.079 67.1956C200.257 68.3738 201.721 70.3013 201.83 72.3694H178.384C178.493 70.3013 179.957 68.3738 181.135 67.1956C182.313 66.0173 183.712 65.0827 185.251 64.445C186.791 63.8074 188.441 63.4792 190.107 63.4792C191.773 63.4792 193.423 63.8074 194.963 64.445C196.502 65.0827 197.901 66.0173 199.079 67.1956ZM188.348 113.176L187.001 112.902C182.407 111.968 178.548 109.283 176.055 105.633L170.769 108.205C169.719 108.716 168.453 108.278 167.942 107.228C167.431 106.178 167.869 104.912 168.919 104.401L174.108 101.877C173.392 99.9529 173.006 97.8783 173.013 95.7291H167.465C166.297 95.7291 165.35 94.7823 165.35 93.6143C165.35 92.4464 166.297 91.4996 167.465 91.4996H173.016V84.5564L168.919 82.5632C167.869 82.0523 167.431 80.7866 167.942 79.7364C168.453 78.6861 169.719 78.2489 170.769 78.7599L173.856 80.2615C175.113 77.8298 177.65 76.1676 180.576 76.1676H188.348V90.4197V113.176ZM192.049 113.176L193.396 112.902C197.99 111.968 201.849 109.283 204.342 105.633L209.628 108.205C210.678 108.716 211.944 108.278 212.455 107.228C212.966 106.178 212.529 104.912 211.478 104.401L206.289 101.877C207.005 99.9529 207.391 97.8783 207.384 95.7291H212.932C214.1 95.7291 215.047 94.7823 215.047 93.6143C215.047 92.4464 214.1 91.4996 212.932 91.4996H207.381V84.5564L211.478 82.5632C212.529 82.0523 212.966 80.7866 212.455 79.7364C211.944 78.6861 210.678 78.2489 209.628 78.7599L206.541 80.2615C205.285 77.8298 202.747 76.1676 199.821 76.1676H192.049V90.4197V113.176Z" fill="white"/>
<rect opacity="0.3" x="157.198" y="128.328" width="41" height="4" rx="2" fill="white"/>
<rect opacity="0.3" x="157.198" y="134.328" width="60" height="4" rx="2" fill="white"/>
</g>
<path d="M188.454 149.328C188.454 149.051 188.678 148.828 188.954 148.828C189.23 148.828 189.454 149.051 189.454 149.328L188.454 149.328ZM269.552 239.974C269.747 240.169 269.747 240.486 269.552 240.681L266.37 243.863C266.175 244.058 265.858 244.058 265.663 243.863C265.468 243.668 265.468 243.351 265.663 243.156L268.491 240.328L265.663 237.499C265.468 237.304 265.468 236.987 265.663 236.792C265.858 236.597 266.175 236.597 266.37 236.792L269.552 239.974ZM189.454 149.328L189.454 206.328L188.454 206.328L188.454 149.328L189.454 149.328ZM222.954 239.828L269.198 239.828L269.198 240.828L222.954 240.828L222.954 239.828ZM189.454 206.328C189.454 224.829 204.453 239.828 222.954 239.828L222.954 240.828C203.9 240.828 188.454 225.381 188.454 206.328L189.454 206.328Z" fill="white"/>
<path fill-rule="evenodd" clip-rule="evenodd" d="M191.954 146.328C191.954 147.984 190.611 149.328 188.954 149.328C187.297 149.328 185.954 147.984 185.954 146.328C185.954 144.671 187.297 143.328 188.954 143.328C190.611 143.328 191.954 144.671 191.954 146.328Z" fill="white"/>
<path fill-rule="evenodd" clip-rule="evenodd" d="M327.138 193.389C324.353 193.252 323.952 193.388 321.212 193.388C295.799 193.388 275.198 213.969 275.198 239.358C275.198 264.746 295.799 285.328 321.212 285.328C323.952 285.328 324.698 285.328 325.047 285.328C325.508 285.324 330.166 284.997 330.624 284.979C354.844 284.064 374.198 263.779 374.198 239.358C374.198 214.475 355.374 194.78 327.138 193.389ZM276.593 239.358C276.593 263.977 296.57 283.935 321.212 283.935C323.827 283.935 326.39 283.71 328.881 283.279C328.881 283.279 329.048 283.238 329.116 283.237C349.989 279.51 365.832 261.282 365.832 239.358C365.832 217.433 349.989 199.206 329.116 195.478L328.881 195.437C326.39 195.006 323.827 194.781 321.212 194.781C296.57 194.781 276.593 214.739 276.593 239.358ZM337.338 196.29C357.55 200.229 372.804 218.014 372.804 239.358C372.804 260.702 357.55 278.487 337.338 282.425C354.797 275.898 367.226 259.078 367.226 239.358C367.226 219.638 354.797 202.818 337.338 196.29Z" fill="white"/>
<g clip-path="url(#clip0_536_10886)">
<path d="M313.955 236.054H309.84V240.164H313.955V236.054Z" fill="white"/>
<path d="M309.839 231.944H305.724V236.054H309.839V231.944Z" fill="white"/>
<path d="M305.723 236.054H301.608V240.164H305.723V236.054Z" fill="white"/>
<path d="M309.839 240.164H305.724V244.274H309.839V240.164Z" fill="white"/>
<path d="M333.234 232.829C332.944 229.806 330.331 228.792 327.032 228.502V226.566H324.477V228.392C323.806 228.392 323.119 228.404 322.437 228.417V226.564H319.884V228.5C319.331 228.51 315.932 228.507 315.932 228.507L315.925 230.757L318.057 230.769V245.512H315.926L315.907 247.729C316.526 247.729 319.281 247.741 319.878 247.745V249.656H322.431V247.791C323.131 247.806 323.81 247.812 324.472 247.811V249.657H327.027V247.754C331.324 247.51 334.333 246.43 334.706 242.402C335.009 239.158 333.482 237.711 331.043 237.122C332.525 236.366 333.451 235.041 333.236 232.828L333.234 232.829ZM329.654 241.896C329.654 245.065 324.221 244.703 322.488 244.704V239.085C324.22 239.085 329.651 238.591 329.652 241.896H329.654ZM328.468 233.968C328.468 236.851 323.935 236.513 322.491 236.513V231.417C323.937 231.417 328.47 230.96 328.468 233.968Z" fill="white"/>
</g>
<g filter="url(#filter1_dd_536_10886)">
<rect x="291.198" y="170.328" width="83" height="66" rx="6" transform="rotate(-90 291.198 170.328)" fill="#7C47EE"/>
<path fill-rule="evenodd" clip-rule="evenodd" d="M331.346 103.319C332.294 104.267 333.472 105.819 333.56 108.483L328.842 107.483L324.124 109.828L319.407 107.483L314.689 108.483C314.777 105.819 315.955 104.267 316.903 103.319C317.851 102.371 318.977 101.618 320.216 101.105C321.455 100.592 322.783 100.328 324.124 100.328C325.466 100.328 326.794 100.592 328.033 101.105C329.272 101.618 330.398 102.371 331.346 103.319ZM322.709 110.54V143.328C319.554 141.494 316.86 139.033 314.768 136.134L312.923 141.476C312.616 142.364 311.647 142.836 310.758 142.529C309.87 142.222 309.398 141.253 309.705 140.364L312.485 132.316C311.876 131.062 311.366 129.755 310.964 128.404L307.374 130.477C306.56 130.947 305.519 130.668 305.049 129.854C304.579 129.04 304.858 127.999 305.672 127.528L310.543 124.716L310.999 121.177L308.477 122.881C307.698 123.408 306.64 123.203 306.114 122.424C305.587 121.646 305.792 120.587 306.57 120.061L311.578 116.676L311.685 115.848C312.076 112.813 314.66 110.54 317.72 110.54H322.709ZM325.688 110.54V143.328C328.854 141.487 331.557 139.013 333.653 136.1L335.51 141.476C335.817 142.364 336.786 142.836 337.675 142.529C338.563 142.222 339.035 141.253 338.728 140.364L335.932 132.272C336.546 131.003 337.058 129.678 337.46 128.31L341.213 130.477C342.027 130.947 343.068 130.668 343.538 129.854C344.008 129.04 343.729 127.999 342.915 127.528L337.838 124.597L337.407 121.248L339.823 122.881C340.602 123.408 341.66 123.203 342.187 122.424C342.713 121.646 342.509 120.587 341.73 120.061L336.827 116.747L336.711 115.848C336.321 112.813 333.736 110.54 330.676 110.54H325.688Z" fill="white"/>
<rect opacity="0.3" x="299.198" y="151.328" width="27" height="4" rx="2" fill="white"/>
<rect opacity="0.3" x="299.198" y="157.328" width="40" height="4" rx="2" fill="white"/>
</g>
<rect x="35.1982" y="170.328" width="83" height="66" rx="6" transform="rotate(-90 35.1982 170.328)" fill="#323A47"/>
<path opacity="0.3" fill-rule="evenodd" clip-rule="evenodd" d="M75.3461 103.319C76.2944 104.267 77.4723 106.819 77.56 108.483H58.6892C58.7769 106.819 59.9547 104.267 60.9031 103.319C61.8514 102.371 63.6982 96.3276 63.6982 96.3276C63.6982 96.3276 62.7834 103.328 68.1246 103.328C73.4657 103.328 73.1982 96.3277 73.1982 96.3277C73.1982 96.3277 74.3978 102.371 75.3461 103.319ZM60.4535 110.54H66.7089V122.987V125.434V132.881V140.328C63.8145 139.554 61.2436 138.03 59.2101 135.977L56.931 142.574C56.624 143.463 55.6549 143.934 54.7664 143.627C53.8778 143.32 53.4064 142.351 53.7133 141.463L56.5718 133.188C56.6187 133.052 56.6811 132.926 56.7563 132.811C56.5375 132.445 56.3324 132.069 56.1417 131.685L51.2568 136.57C50.5921 137.234 49.5144 137.234 48.8496 136.57C48.1849 135.905 48.1849 134.827 48.8496 134.163L54.4162 128.596C54.5581 128.454 54.7187 128.343 54.8902 128.261C54.8815 128.226 54.8729 128.19 54.8645 128.155L54.3684 126.072V118.752L48.0707 115.688C47.2254 115.277 46.8735 114.258 47.2847 113.413C47.6959 112.568 48.7146 112.216 49.5599 112.627L54.5705 115.065C55.2596 112.46 57.6324 110.54 60.4535 110.54ZM75.943 110.54H69.6876V122.987V125.434V132.881V140.328C72.5819 139.554 75.1529 138.03 77.1863 135.977L79.4655 142.574C79.7724 143.463 80.7416 143.934 81.6301 143.627C82.5186 143.32 82.9901 142.351 82.6832 141.463L79.8246 133.188C79.7777 133.052 79.7154 132.926 79.6402 132.811C79.859 132.445 80.0641 132.069 80.2548 131.685L85.1398 136.57C85.8045 137.234 86.8822 137.234 87.547 136.57C88.2117 135.905 88.2117 134.827 87.547 134.163L81.9804 128.596C81.8385 128.454 81.6778 128.342 81.5063 128.261C81.515 128.226 81.5236 128.19 81.532 128.155L82.0281 126.072V118.752L88.3258 115.688C89.1711 115.277 89.523 114.258 89.1118 113.413C88.7005 112.567 87.6819 112.216 86.8365 112.627L81.826 115.064C81.1367 112.46 78.764 110.54 75.943 110.54Z" fill="white"/>
<rect opacity="0.3" x="43.1982" y="151.328" width="27" height="4" rx="2" fill="#535A65"/>
<rect opacity="0.3" x="43.1982" y="157.328" width="40" height="4" rx="2" fill="#535A65"/>
<g clip-path="url(#clip1_536_10886)">
<path fill-rule="evenodd" clip-rule="evenodd" d="M21.338 254.979L31.423 265.082L41.4004 255.087L49.581 263.282L40.0763 272.803L37.6311 270.419L44.7559 263.282L41.4004 259.92L31.423 269.915L21.338 259.813L18.0234 263.133L25.2565 270.379L22.8114 272.763L13.1982 263.133L21.338 254.979Z" fill="white"/>
<path fill-rule="evenodd" clip-rule="evenodd" d="M41.4413 259.812L31.3562 249.71L21.3789 259.704L13.1982 251.51L22.703 241.988L25.1482 244.373L18.0234 251.51L21.3789 254.871L31.3562 244.876L41.4413 254.979L44.7558 251.658L37.5227 244.413L39.9678 242.029L49.581 251.658L41.4413 259.812Z" fill="white"/>
<path fill-rule="evenodd" clip-rule="evenodd" d="M29.8506 272.566V266.201H33.1439V272.566H29.8506Z" fill="white"/>
<path fill-rule="evenodd" clip-rule="evenodd" d="M29.8506 248.591V242.226H33.1439V248.591H29.8506Z" fill="white"/>
<path d="M65.3696 249.503H62.0879V265.763H65.3696V249.503Z" fill="white"/>
<path d="M82.0156 253.794C80.5239 253.794 79.1011 254.426 78.3897 255.804C77.6553 254.426 76.2784 253.794 74.6721 253.794C73.2264 253.794 72.1248 254.336 71.5511 255.307L71.2069 254.02H68.2236V265.763H71.4364V259.191C71.4364 257.452 72.3543 256.617 73.7083 256.617C74.9934 256.617 75.8653 257.407 75.8653 259.327V265.763H78.9634V259.259C79.0093 257.43 79.9732 256.617 81.2353 256.617C82.5434 256.617 83.3925 257.407 83.3925 259.168V265.785H86.6283V258.536C86.6283 255.284 84.4022 253.794 82.0156 253.794Z" fill="white"/>
<path d="M102.969 253.794C101.478 253.794 100.055 254.426 99.3435 255.804C98.6091 254.426 97.2322 253.794 95.6258 253.794C94.18 253.794 93.0785 254.336 92.5048 255.307L92.1605 254.02H89.1772V265.763H92.39V259.191C92.39 257.452 93.308 256.617 94.6619 256.617C95.9471 256.617 96.8191 257.407 96.8191 259.327V265.763H99.9172V259.259C99.9631 257.43 100.927 256.617 102.189 256.617C103.497 256.617 104.346 257.407 104.346 259.168V265.785H107.582V258.536C107.582 255.284 105.356 253.794 102.969 253.794Z" fill="white"/>
<path d="M117.957 254.02V260.456C117.957 262.195 117.131 263.233 115.547 263.256C114.033 263.301 113.069 262.42 113.069 260.591V254.02H110.017V260.998C110.017 264.001 111.784 265.989 114.836 265.989C116.259 265.989 117.291 265.356 117.911 264.476L118.072 265.763H121.009V254.02H117.957Z" fill="white"/>
<path d="M130.437 253.794C128.647 253.794 127.454 254.449 126.834 255.42L126.651 254.02H123.667V265.763H126.88V259.553C126.88 257.656 127.798 256.504 129.496 256.504C131.057 256.504 131.998 257.497 131.998 259.44V265.763H135.233V258.785C135.233 255.781 133.489 253.794 130.437 253.794Z" fill="white"/>
<path d="M149.283 259.711C149.283 256.12 146.919 253.794 143.362 253.794C139.805 253.794 137.419 256.233 137.419 259.891C137.419 263.572 139.806 266.011 143.386 266.011C146.392 266.011 148.664 264.363 149.192 261.924H145.956C145.589 262.94 144.648 263.459 143.478 263.459C141.94 263.459 140.701 262.488 140.655 260.749H149.283V259.711ZM143.362 256.255C144.763 256.255 145.934 257.046 146.071 258.672H140.678C140.816 257.046 141.987 256.255 143.362 256.255Z" fill="white"/>
<path d="M150.538 254.02V256.775H152.374V265.763H155.609V256.775H158.341V254.02H155.609V252.823C155.609 251.987 155.839 251.355 157.147 251.355H158.341V248.78H156.436C153.429 248.78 152.374 250.226 152.374 252.507V254.02H150.538Z" fill="white"/>
<path d="M160.463 252.213H163.721L163.767 248.78H160.508L160.463 252.213ZM160.508 265.763H163.721V254.02H160.508V265.763Z" fill="white"/>
</g>
<path d="M68.1982 52.0776C63.6492 52.0776 59.9482 55.7786 59.9482 60.3276C59.9482 64.8766 63.6492 68.5776 68.1982 68.5776C72.7472 68.5776 76.4482 64.8766 76.4482 60.3276C76.4482 55.7786 72.7472 52.0776 68.1982 52.0776ZM68.9915 64.7664H67.405V63.1798H68.9915V64.7664ZM68.8329 62.2315H67.5636L67.3256 55.8853H69.0708L68.8329 62.2315Z" fill="#E53939"/>
<path d="M324.198 52.0776C319.649 52.0776 315.948 55.7786 315.948 60.3276C315.948 64.8766 319.649 68.5776 324.198 68.5776C328.747 68.5776 332.448 64.8766 332.448 60.3276C332.448 55.7786 328.747 52.0776 324.198 52.0776ZM322.691 64.4677L319.494 60.9151L320.438 60.0659L322.659 62.5337L327.927 56.2605L328.9 57.0752L322.691 64.4677Z" fill="#38A169"/>
<defs>
<filter id="filter0_dd_536_10886" x="129.198" y="47.3276" width="122" height="139" filterUnits="userSpaceOnUse" color-interpolation-filters="sRGB">
<feFlood flood-opacity="0" result="BackgroundImageFix"/>
<feColorMatrix in="SourceAlpha" type="matrix" values="0 0 0 0 0 0 0 0 0 0 0 0 0 0 0 0 0 0 127 0" result="hardAlpha"/>
<feMorphology radius="5" operator="erode" in="SourceAlpha" result="effect1_dropShadow_536_10886"/>
<feOffset dy="10"/>
<feGaussianBlur stdDeviation="5"/>
<feColorMatrix type="matrix" values="0 0 0 0 0 0 0 0 0 0 0 0 0 0 0 0 0 0 0.04 0"/>
<feBlend mode="normal" in2="BackgroundImageFix" result="effect1_dropShadow_536_10886"/>
<feColorMatrix in="SourceAlpha" type="matrix" values="0 0 0 0 0 0 0 0 0 0 0 0 0 0 0 0 0 0 127 0" result="hardAlpha"/>
<feMorphology radius="5" operator="erode" in="SourceAlpha" result="effect2_dropShadow_536_10886"/>
<feOffset dy="20"/>
<feGaussianBlur stdDeviation="12.5"/>
<feColorMatrix type="matrix" values="0 0 0 0 0 0 0 0 0 0 0 0 0 0 0 0 0 0 0.1 0"/>
<feBlend mode="normal" in2="effect1_dropShadow_536_10886" result="effect2_dropShadow_536_10886"/>
<feBlend mode="normal" in="SourceGraphic" in2="effect2_dropShadow_536_10886" result="shape"/>
</filter>
<filter id="filter1_dd_536_10886" x="271.198" y="87.3277" width="106" height="123" filterUnits="userSpaceOnUse" color-interpolation-filters="sRGB">
<feFlood flood-opacity="0" result="BackgroundImageFix"/>
<feColorMatrix in="SourceAlpha" type="matrix" values="0 0 0 0 0 0 0 0 0 0 0 0 0 0 0 0 0 0 127 0" result="hardAlpha"/>
<feMorphology radius="5" operator="erode" in="SourceAlpha" result="effect1_dropShadow_536_10886"/>
<feOffset dy="10"/>
<feGaussianBlur stdDeviation="5"/>
<feColorMatrix type="matrix" values="0 0 0 0 0 0 0 0 0 0 0 0 0 0 0 0 0 0 0.04 0"/>
<feBlend mode="normal" in2="BackgroundImageFix" result="effect1_dropShadow_536_10886"/>
<feColorMatrix in="SourceAlpha" type="matrix" values="0 0 0 0 0 0 0 0 0 0 0 0 0 0 0 0 0 0 127 0" result="hardAlpha"/>
<feMorphology radius="5" operator="erode" in="SourceAlpha" result="effect2_dropShadow_536_10886"/>
<feOffset dy="20"/>
<feGaussianBlur stdDeviation="12.5"/>
<feColorMatrix type="matrix" values="0 0 0 0 0 0 0 0 0 0 0 0 0 0 0 0 0 0 0.1 0"/>
<feBlend mode="normal" in2="effect1_dropShadow_536_10886" result="effect2_dropShadow_536_10886"/>
<feBlend mode="normal" in="SourceGraphic" in2="effect2_dropShadow_536_10886" result="shape"/>
</filter>
<clipPath id="clip0_536_10886">
<rect width="49.1562" height="49.0896" fill="white" transform="translate(293.451 213.566)"/>
</clipPath>
<clipPath id="clip1_536_10886">
<rect width="151.333" height="32" fill="white" transform="translate(13.1982 241.328)"/>
</clipPath>
</defs>
</svg>
