<svg width="51" height="50" viewBox="0 0 51 50" fill="none" xmlns="http://www.w3.org/2000/svg">
<rect x="0.368652" width="50.0481" height="50" rx="5" fill="#2C3442"/>
<path d="M21.4496 27.412V35.0985H15.6733M28.1886 27.412V35.0985H33.9649M16.7802 27.3862H33.5207C34.7769 27.5983 36.853 26.5326 36.853 23.1373C36.853 19.6058 34.1444 18.1837 33.0234 18.0703C32.8894 18.0568 32.7696 17.9597 32.7522 17.8264C32.5125 15.9891 31.4605 13 26.8556 13C22.8797 13 21.5113 15.1796 21.3244 17.1833C21.3058 17.3832 21.0605 17.5046 20.8766 17.4229C19.3674 16.7521 17.0042 17.8727 16.7937 20.4528C16.7825 20.59 16.6648 20.6966 16.5269 20.6992C15.1283 20.7256 12.7853 21.7525 12.7852 23.9171C12.7851 25.8665 12.7852 27.4261 16.7802 27.3862ZM16.1547 35.0586C16.1547 36.6505 14.8616 37.941 13.2666 37.941C11.6715 37.941 10.3784 36.6505 10.3784 35.0586C10.3784 33.4667 11.6715 32.1762 13.2666 32.1762C14.8616 32.1762 16.1547 33.4667 16.1547 35.0586ZM39.4063 35.1176C39.4063 36.7095 38.1133 38 36.5182 38C34.9231 38 33.6301 36.7095 33.6301 35.1176C33.6301 33.5257 34.9231 32.2352 36.5182 32.2352C38.1133 32.2352 39.4063 33.5257 39.4063 35.1176Z" stroke="url(#paint0_linear_2432_3251)" stroke-width="2.5"/>
<defs>
<linearGradient id="paint0_linear_2432_3251" x1="24.8924" y1="13" x2="24.8924" y2="38" gradientUnits="userSpaceOnUse">
<stop stop-color="#BD30FF"/>
<stop offset="1" stop-color="#7D00FF"/>
</linearGradient>
</defs>
</svg>
