<svg width="24" height="24" viewBox="0 0 24 24" fill="none" xmlns="http://www.w3.org/2000/svg">
<circle cx="12" cy="12" r="12" fill="#48DBB4"/>
<path d="M12 0C5.37479 0 0 5.37479 0 12C0 18.6252 5.37479 24 12 24C18.6252 24 24 18.6252 24 12C23.9899 5.37479 18.6151 0 12 0ZM17.0218 9.31765H16.2756L13.9866 11.9899L16.2756 14.6622H17.0319V16.8101H12.1714V14.6824H12.9277L11.4252 12.9277H10.8101V14.6824H11.6672V16.8101H6.95798V14.6622H7.97647V12V9.31765H6.95798V7.16975H8.11765V7.96639H8.74286V7.16975H9.88235V7.96639H10.5076V7.16975H11.6571V9.28739H10.8V11.042H11.4151L12.9176 9.28739H12.1613V7.16975H17.0218V9.31765Z" fill="#0A0806"/>
</svg>
