<svg width="51" height="50" viewBox="0 0 51 50" fill="none" xmlns="http://www.w3.org/2000/svg">
<rect x="0.0356445" width="50.0481" height="50" rx="5" fill="#2C3442"/>
<path d="M24.0599 31C24.0599 31.5523 24.5076 32 25.0599 32C25.6122 32 26.0599 31.5523 26.0599 31H24.0599ZM18.0532 21H32.0666V19H18.0532V21ZM36.0714 25V33H38.0714V25H36.0714ZM32.0666 37H18.0532V39H32.0666V37ZM14.0483 33V25H12.0483V33H14.0483ZM18.0532 37C15.8404 37 14.0483 35.2082 14.0483 33H12.0483C12.0483 36.3146 14.7377 39 18.0532 39V37ZM36.0714 33C36.0714 35.2082 34.2793 37 32.0666 37V39C35.3821 39 38.0714 36.3146 38.0714 33H36.0714ZM32.0666 21C34.2793 21 36.0714 22.7918 36.0714 25H38.0714C38.0714 21.6854 35.3821 19 32.0666 19V21ZM18.0532 19C14.7377 19 12.0483 21.6854 12.0483 25H14.0483C14.0483 22.7918 15.8404 21 18.0532 21V19ZM21.0551 20V15.7895H19.0551V20H21.0551ZM21.0551 15.7895C21.0551 14.6453 21.4201 14.0411 21.954 13.6693C22.5618 13.2459 23.5631 13 25.0599 13V11C23.4233 11 21.9222 11.2541 20.8109 12.0281C19.6257 12.8536 19.0551 14.1442 19.0551 15.7895H21.0551ZM25.0599 13C26.5076 13 27.5148 13.244 28.138 13.6726C28.6893 14.0518 29.0647 14.6612 29.0647 15.7895H31.0647C31.0647 14.1283 30.4609 12.843 29.2714 12.0248C28.1538 11.256 26.6586 11 25.0599 11V13ZM29.0647 15.7895V20H31.0647V15.7895H29.0647ZM26.0618 27C26.0618 27.5514 25.6141 28 25.0599 28V30C26.7169 30 28.0618 28.6578 28.0618 27H26.0618ZM25.0599 28C24.5056 28 24.058 27.5514 24.058 27H22.058C22.058 28.6578 23.4029 30 25.0599 30V28ZM24.058 27C24.058 26.4486 24.5056 26 25.0599 26V24C23.4029 24 22.058 25.3422 22.058 27H24.058ZM25.0599 26C25.6141 26 26.0618 26.4486 26.0618 27H28.0618C28.0618 25.3422 26.7169 24 25.0599 24V26ZM24.0599 29V31H26.0599V29H24.0599Z" fill="url(#paint0_linear_2432_3258)"/>
<defs>
<linearGradient id="paint0_linear_2432_3258" x1="25.0599" y1="12" x2="25.0599" y2="38" gradientUnits="userSpaceOnUse">
<stop stop-color="#BD30FF"/>
<stop offset="1" stop-color="#7D00FF"/>
</linearGradient>
</defs>
</svg>
