<svg width="24" height="24" viewBox="0 0 24 24" fill="none" xmlns="http://www.w3.org/2000/svg">
<path d="M19.6875 9H16.5V5.25C16.5 4.05653 16.0259 2.91193 15.182 2.06802C14.3381 1.22411 13.1935 0.75 12 0.75C10.8065 0.75 9.66193 1.22411 8.81802 2.06802C7.97411 2.91193 7.5 4.05653 7.5 5.25V9H4.3125C4.16332 9 4.02024 9.05926 3.91475 9.16475C3.80926 9.27024 3.75 9.41332 3.75 9.5625V22.6875C3.75 22.8367 3.80926 22.9798 3.91475 23.0852C4.02024 23.1907 4.16332 23.25 4.3125 23.25H19.6875C19.8367 23.25 19.9798 23.1907 20.0852 23.0852C20.1907 22.9798 20.25 22.8367 20.25 22.6875V9.5625C20.25 9.41332 20.1907 9.27024 20.0852 9.16475C19.9798 9.05926 19.8367 9 19.6875 9ZM14.7188 9H9.28125V5.21484C9.28125 4.49379 9.56769 3.80226 10.0776 3.2924C10.5874 2.78253 11.2789 2.49609 12 2.49609C12.7211 2.49609 13.4126 2.78253 13.9224 3.2924C14.4323 3.80226 14.7188 4.49379 14.7188 5.21484V9Z" fill="white"/>
</svg>
