<svg width="24" height="24" viewBox="0 0 24 24" fill="none" xmlns="http://www.w3.org/2000/svg">
<path d="M1.87176 6.99609L11.1249 11.4642C11.3658 11.5791 11.6874 11.6391 12.0057 11.6391C12.3239 11.6391 12.6455 11.5791 12.886 11.4642L22.1391 6.99609C22.6256 6.76172 22.6256 6.37828 22.1391 6.14297L12.886 1.67484C12.6455 1.56 12.3235 1.5 12.0057 1.5C11.6878 1.5 11.3658 1.56 11.1249 1.67484L1.87176 6.14297C1.3852 6.37828 1.3852 6.76078 1.87176 6.99609Z" fill="white"/>
<path d="M22.1391 11.5734C22.1391 11.5734 20.4493 10.7587 20.2252 10.649C20.0011 10.5394 19.9407 10.5454 19.7053 10.6547C19.47 10.7639 12.8803 13.9467 12.8803 13.9467C12.6026 14.0666 12.3026 14.1264 12 14.122C11.6827 14.122 11.3602 14.0615 11.1197 13.9467C11.1197 13.9467 4.70487 10.8529 4.40393 10.7039C4.07815 10.5469 3.9844 10.5469 3.68768 10.6875L1.85955 11.5678C1.37299 11.8022 1.37299 12.1861 1.85955 12.4209L11.1141 16.889C11.3546 17.0039 11.6766 17.0639 11.9944 17.0639C12.3122 17.0639 12.6342 17.0039 12.8752 16.889L22.1283 12.4219C22.6257 12.1912 22.6257 11.8087 22.1391 11.5734Z" fill="white"/>
<path d="M22.139 17.004C22.139 17.004 20.4492 16.1893 20.2251 16.0782C20.0011 15.9671 19.9406 15.9746 19.7053 16.0838C19.47 16.193 12.8859 19.3829 12.8859 19.3829C12.6081 19.5026 12.3081 19.5622 12.0056 19.5577C11.6882 19.5577 11.3657 19.4977 11.1248 19.3829C11.1248 19.3829 4.70997 16.2891 4.4095 16.14C4.08138 15.9811 3.98763 15.9811 3.69279 16.1236L1.86466 17.004C1.37763 17.2383 1.37763 17.6218 1.86466 17.8571L11.1178 22.3252C11.3582 22.4452 11.6803 22.5 11.9981 22.5C12.3159 22.5 12.6379 22.44 12.8784 22.3252L22.1334 17.8594C22.6256 17.6218 22.6256 17.2393 22.139 17.004Z" fill="white"/>
</svg>
