<svg width="24" height="24" viewBox="0 0 24 24" fill="none" xmlns="http://www.w3.org/2000/svg">
<circle cx="12" cy="12" r="12" fill="#1E65FF"/>
<path d="M15.9658 7.00409L14.7166 7.60663C14.6881 7.62098 14.6775 7.65326 14.6917 7.67836L16.5922 11.7598C17.3005 13.2769 17.1083 14.4282 16.0335 14.9483C15.1651 15.3679 14.4141 15.0738 13.8304 14.0516L11.5811 9.22057C10.67 7.26232 9.42428 6.74228 7.95083 7.456C6.98988 7.91866 6.43467 8.74715 6.44535 9.798C6.44535 9.80876 6.44179 9.82311 6.43467 9.83028C6.42043 9.84821 6.39196 9.85539 6.37061 9.84463C6.35993 9.84104 6.34925 9.83028 6.34569 9.81952L5.85454 8.76508C5.84742 8.75074 5.83675 8.74356 5.82251 8.73639C5.80827 8.7328 5.79404 8.7328 5.78336 8.73998L4.53057 9.3461C4.50566 9.36045 4.49142 9.39272 4.50566 9.41783L7.95795 16.824C7.96507 16.8384 7.97574 16.8455 7.98998 16.8527C8.00422 16.8563 8.01845 16.8563 8.03269 16.8491L9.28192 16.2466C9.31039 16.2322 9.32107 16.2 9.30684 16.1749L7.45968 12.2082C6.70516 10.5942 6.85108 9.425 8.00422 8.86909C8.89042 8.44229 9.57732 8.72922 10.1966 9.82311C10.1966 9.82311 10.1966 9.82669 10.2002 9.82669L12.4281 14.6075C13.2859 16.451 14.6241 17.0858 16.0335 16.4044C17.1225 15.8772 17.5745 15.0846 17.5496 14.0445C17.5496 14.0194 17.5674 13.9978 17.5888 13.9907C17.6137 13.9835 17.6386 13.9978 17.6493 14.0194L18.1476 15.0881C18.1582 15.1097 18.176 15.1204 18.1974 15.1204C18.2045 15.1204 18.2116 15.1168 18.2187 15.1168L19.468 14.5107C19.4893 14.5035 19.5 14.482 19.5 14.4605C19.5 14.4533 19.4964 14.4462 19.4929 14.439L16.0406 7.03279C16.0228 7.00409 15.9908 6.99333 15.9658 7.00409Z" fill="white"/>
</svg>
