<svg width="22" height="22" viewBox="0 0 22 22" fill="none" xmlns="http://www.w3.org/2000/svg">
<path d="M21.4564 4.22L21.4194 3.63265L20.84 3.52906C16.7853 2.80156 15.0927 2.27562 11.3089 0.566559L11 0.425934L10.6911 0.566559C6.90736 2.27562 5.21471 2.80156 1.16002 3.52906L0.580645 3.63265L0.543614 4.22C0.363145 7.08453 0.747989 9.75359 1.68877 12.1531C2.45917 14.1104 3.59931 15.901 5.04689 17.427C7.5533 20.0862 10.2144 21.2412 10.7221 21.4456L11.0033 21.5586L11.2846 21.4456C11.7922 21.2412 14.4533 20.0862 16.9597 17.427C18.4049 15.9004 19.5428 14.1099 20.3113 12.1531C21.2521 9.75359 21.6369 7.08453 21.4564 4.22ZM9.60127 14.345L6.18924 11L7.23924 9.92843L9.51127 12.1545L14.6736 6.19203L15.808 7.17359L9.60127 14.345Z" fill="white"/>
</svg>
