<svg width="356" height="300" viewBox="0 0 356 300" fill="none" xmlns="http://www.w3.org/2000/svg">
<rect x="164.327" width="8.61521" height="8.61521" rx="4.3076" fill="white" fill-opacity="0.025"/>
<rect x="164.327" y="10.1357" width="8.61521" height="8.48851" rx="4.24426" fill="white" fill-opacity="0.025"/>
<rect x="154.064" width="8.7419" height="8.61521" rx="4.3076" fill="white" fill-opacity="0.025"/>
<rect x="154.064" y="10.1357" width="8.7419" height="8.48851" rx="4.24426" fill="white" fill-opacity="0.025"/>
<rect x="174.589" width="8.61521" height="8.61521" rx="4.3076" fill="white" fill-opacity="0.025"/>
<rect x="174.589" y="10.1357" width="8.61521" height="8.48851" rx="4.24426" fill="white" fill-opacity="0.025"/>
<rect x="184.852" width="8.61521" height="8.61521" rx="4.3076" fill="white" fill-opacity="0.025"/>
<rect x="184.852" y="10.1357" width="8.61521" height="8.48851" rx="4.24426" fill="white" fill-opacity="0.025"/>
<rect x="123.149" width="8.7419" height="8.61521" rx="4.3076" fill="white" fill-opacity="0.025"/>
<rect x="133.666" width="8.48851" height="8.61521" rx="4.24426" fill="white" fill-opacity="0.025"/>
<rect x="143.801" width="8.48851" height="8.61521" rx="4.24426" fill="white" fill-opacity="0.025"/>
<rect x="123.149" y="10.2625" width="8.61521" height="8.7419" rx="4.3076" fill="white" fill-opacity="0.025"/>
<rect x="123.149" y="20.2712" width="8.61521" height="8.7419" rx="4.3076" fill="white" fill-opacity="0.025"/>
<rect x="112.888" y="10.2625" width="8.7419" height="8.7419" rx="4.37095" fill="white" fill-opacity="0.025"/>
<rect x="112.888" y="20.2712" width="8.7419" height="8.7419" rx="4.37095" fill="white" fill-opacity="0.025"/>
<rect x="133.539" y="10.2625" width="8.61521" height="8.7419" rx="4.3076" fill="white" fill-opacity="0.025"/>
<rect x="133.539" y="20.2712" width="8.61521" height="8.7419" rx="4.3076" fill="white" fill-opacity="0.025"/>
<rect x="143.675" y="10.2625" width="8.61521" height="8.7419" rx="4.3076" fill="white" fill-opacity="0.025"/>
<rect x="143.675" y="20.2712" width="8.61521" height="8.7419" rx="4.3076" fill="white" fill-opacity="0.025"/>
<rect x="82.0996" y="10.2625" width="8.48851" height="8.7419" rx="4.24426" fill="white" fill-opacity="0.025"/>
<rect x="92.3623" y="10.2625" width="8.7419" height="8.7419" rx="4.37095" fill="white" fill-opacity="0.025"/>
<rect x="102.625" y="10.2625" width="8.48851" height="8.7419" rx="4.24426" fill="white" fill-opacity="0.025"/>
<rect x="82.3535" y="21.2854" width="8.61521" height="8.61521" rx="4.3076" fill="white" fill-opacity="0.025"/>
<rect x="113.014" y="41.9365" width="8.61521" height="8.61521" rx="4.3076" fill="white" fill-opacity="0.025"/>
<rect x="82.3535" y="31.4207" width="8.61521" height="8.48851" rx="4.24426" fill="white" fill-opacity="0.025"/>
<rect x="113.014" y="51.9458" width="8.61521" height="8.61521" rx="4.3076" fill="white" fill-opacity="0.025"/>
<rect x="72.0908" y="21.2854" width="8.7419" height="8.61521" rx="4.3076" fill="white" fill-opacity="0.025"/>
<rect x="102.751" y="41.9365" width="8.61521" height="8.61521" rx="4.3076" fill="white" fill-opacity="0.025"/>
<rect x="72.0908" y="31.4207" width="8.7419" height="8.48851" rx="4.24426" fill="white" fill-opacity="0.025"/>
<rect x="102.751" y="51.9458" width="8.61521" height="8.61521" rx="4.3076" fill="white" fill-opacity="0.025"/>
<rect x="92.6162" y="21.2854" width="8.7419" height="8.61521" rx="4.3076" fill="white" fill-opacity="0.025"/>
<rect x="123.276" y="41.9365" width="8.7419" height="8.61521" rx="4.3076" fill="white" fill-opacity="0.025"/>
<rect x="92.6162" y="31.4207" width="8.7419" height="8.48851" rx="4.24426" fill="white" fill-opacity="0.025"/>
<rect x="123.276" y="51.9458" width="8.7419" height="8.61521" rx="4.3076" fill="white" fill-opacity="0.025"/>
<rect x="102.878" y="21.2854" width="8.48851" height="8.61521" rx="4.24426" fill="white" fill-opacity="0.025"/>
<rect x="133.666" y="41.9365" width="8.48851" height="8.61521" rx="4.24426" fill="white" fill-opacity="0.025"/>
<rect x="102.878" y="31.4207" width="8.48851" height="8.48851" rx="4.24426" fill="white" fill-opacity="0.025"/>
<rect x="133.666" y="51.9458" width="8.48851" height="8.61521" rx="4.24426" fill="white" fill-opacity="0.025"/>
<rect x="41.1768" y="21.2854" width="8.61521" height="8.61521" rx="4.3076" fill="white" fill-opacity="0.025"/>
<rect x="71.8374" y="41.9365" width="8.61521" height="8.61521" rx="4.3076" fill="white" fill-opacity="0.025"/>
<rect x="51.5659" y="21.2854" width="8.61521" height="8.61521" rx="4.3076" fill="white" fill-opacity="0.025"/>
<rect x="82.2266" y="41.9365" width="8.61521" height="8.61521" rx="4.3076" fill="white" fill-opacity="0.025"/>
<rect x="61.8286" y="21.2854" width="8.48851" height="8.61521" rx="4.24426" fill="white" fill-opacity="0.025"/>
<rect x="92.4893" y="41.9365" width="8.48851" height="8.61521" rx="4.24426" fill="white" fill-opacity="0.025"/>
<rect x="41.1768" y="31.5476" width="8.48851" height="8.7419" rx="4.24426" fill="white" fill-opacity="0.025"/>
<rect x="71.8374" y="52.1995" width="8.61521" height="8.61521" rx="4.3076" fill="white" fill-opacity="0.025"/>
<rect x="41.1768" y="41.5571" width="8.48851" height="8.7419" rx="4.24426" fill="white" fill-opacity="0.025"/>
<rect x="71.8374" y="62.2085" width="8.61521" height="8.7419" rx="4.3076" fill="white" fill-opacity="0.025"/>
<rect x="30.9141" y="31.5476" width="8.7419" height="8.7419" rx="4.37095" fill="white" fill-opacity="0.025"/>
<rect x="61.7017" y="52.1995" width="8.61521" height="8.61521" rx="4.3076" fill="white" fill-opacity="0.025"/>
<rect x="30.9141" y="41.5571" width="8.7419" height="8.7419" rx="4.37095" fill="white" fill-opacity="0.025"/>
<rect x="61.7017" y="62.2085" width="8.61521" height="8.7419" rx="4.3076" fill="white" fill-opacity="0.025"/>
<rect x="51.439" y="31.5476" width="8.7419" height="8.7419" rx="4.37095" fill="white" fill-opacity="0.025"/>
<rect x="82.2266" y="52.1995" width="8.61521" height="8.61521" rx="4.3076" fill="white" fill-opacity="0.025"/>
<rect x="51.439" y="41.5571" width="8.7419" height="8.7419" rx="4.37095" fill="white" fill-opacity="0.025"/>
<rect x="82.2266" y="62.2085" width="8.61521" height="8.7419" rx="4.3076" fill="white" fill-opacity="0.025"/>
<rect x="61.8286" y="31.5476" width="8.48851" height="8.7419" rx="4.24426" fill="white" fill-opacity="0.025"/>
<rect x="92.3623" y="52.1995" width="8.61521" height="8.61521" rx="4.3076" fill="white" fill-opacity="0.025"/>
<rect x="61.8286" y="41.5571" width="8.48851" height="8.7419" rx="4.24426" fill="white" fill-opacity="0.025"/>
<rect x="92.3623" y="62.2085" width="8.61521" height="8.7419" rx="4.3076" fill="white" fill-opacity="0.025"/>
<rect y="31.5476" width="8.61521" height="8.7419" rx="4.3076" fill="white" fill-opacity="0.025"/>
<rect x="30.7876" y="52.1995" width="8.61521" height="8.61521" rx="4.3076" fill="white" fill-opacity="0.025"/>
<rect x="10.3892" y="31.5476" width="8.7419" height="8.7419" rx="4.37095" fill="white" fill-opacity="0.025"/>
<rect x="41.0498" y="52.1995" width="8.7419" height="8.61521" rx="4.3076" fill="white" fill-opacity="0.025"/>
<rect x="20.5249" y="31.5476" width="8.61521" height="8.7419" rx="4.3076" fill="white" fill-opacity="0.025"/>
<rect x="51.186" y="52.1995" width="8.7419" height="8.61521" rx="4.3076" fill="white" fill-opacity="0.025"/>
<rect x="229.669" y="43.0374" width="8.61521" height="8.7419" rx="4.3076" fill="white" fill-opacity="0.025"/>
<rect x="229.669" y="53.0464" width="8.61521" height="8.7419" rx="4.3076" fill="white" fill-opacity="0.025"/>
<rect x="219.407" y="43.0374" width="8.7419" height="8.7419" rx="4.37095" fill="white" fill-opacity="0.025"/>
<rect x="219.407" y="53.0464" width="8.7419" height="8.7419" rx="4.37095" fill="white" fill-opacity="0.025"/>
<rect x="188.619" y="43.0374" width="8.48851" height="8.7419" rx="4.24426" fill="white" fill-opacity="0.025"/>
<rect x="198.882" y="43.0374" width="8.7419" height="8.7419" rx="4.37095" fill="white" fill-opacity="0.025"/>
<rect x="209.145" y="43.0374" width="8.48851" height="8.7419" rx="4.24426" fill="white" fill-opacity="0.025"/>
<rect x="188.873" y="54.0603" width="8.61521" height="8.61521" rx="4.3076" fill="white" fill-opacity="0.025"/>
<rect x="219.533" y="74.7117" width="8.61521" height="8.61521" rx="4.3076" fill="white" fill-opacity="0.025"/>
<rect x="188.873" y="64.1956" width="8.61521" height="8.48851" rx="4.24426" fill="white" fill-opacity="0.025"/>
<rect x="219.533" y="84.7207" width="8.61521" height="8.61521" rx="4.3076" fill="white" fill-opacity="0.025"/>
<rect x="178.61" y="54.0603" width="8.7419" height="8.61521" rx="4.3076" fill="white" fill-opacity="0.025"/>
<rect x="209.271" y="74.7117" width="8.61521" height="8.61521" rx="4.3076" fill="white" fill-opacity="0.025"/>
<rect x="178.61" y="64.1956" width="8.7419" height="8.48851" rx="4.24426" fill="white" fill-opacity="0.025"/>
<rect x="209.271" y="84.7207" width="8.61521" height="8.61521" rx="4.3076" fill="white" fill-opacity="0.025"/>
<rect x="199.136" y="54.0603" width="8.7419" height="8.61521" rx="4.3076" fill="white" fill-opacity="0.025"/>
<rect x="229.796" y="74.7117" width="8.7419" height="8.61521" rx="4.3076" fill="white" fill-opacity="0.025"/>
<rect x="199.136" y="64.1956" width="8.7419" height="8.48851" rx="4.24426" fill="white" fill-opacity="0.025"/>
<rect x="229.796" y="84.7207" width="8.7419" height="8.61521" rx="4.3076" fill="white" fill-opacity="0.025"/>
<rect x="209.398" y="54.0603" width="8.48851" height="8.61521" rx="4.24426" fill="white" fill-opacity="0.025"/>
<rect x="240.185" y="74.7117" width="8.48851" height="8.61521" rx="4.24426" fill="white" fill-opacity="0.025"/>
<rect x="209.398" y="64.1956" width="8.48851" height="8.48851" rx="4.24426" fill="white" fill-opacity="0.025"/>
<rect x="240.185" y="84.7207" width="8.48851" height="8.61521" rx="4.24426" fill="white" fill-opacity="0.025"/>
<rect x="147.696" y="54.0603" width="8.61521" height="8.61521" rx="4.3076" fill="white" fill-opacity="0.025"/>
<rect x="178.357" y="74.7117" width="8.61521" height="8.61521" rx="4.3076" fill="white" fill-opacity="0.025"/>
<rect x="158.085" y="54.0603" width="8.61521" height="8.61521" rx="4.3076" fill="white" fill-opacity="0.025"/>
<rect x="188.746" y="74.7117" width="8.61521" height="8.61521" rx="4.3076" fill="white" fill-opacity="0.025"/>
<rect x="168.348" y="54.0603" width="8.48851" height="8.61521" rx="4.24426" fill="white" fill-opacity="0.025"/>
<rect x="199.008" y="74.7117" width="8.48851" height="8.61521" rx="4.24426" fill="white" fill-opacity="0.025"/>
<rect x="147.696" y="64.3228" width="8.48851" height="8.7419" rx="4.24426" fill="white" fill-opacity="0.025"/>
<rect x="178.357" y="84.9744" width="8.61521" height="8.61521" rx="4.3076" fill="white" fill-opacity="0.025"/>
<rect x="147.696" y="74.332" width="8.48851" height="8.7419" rx="4.24426" fill="white" fill-opacity="0.025"/>
<rect x="178.357" y="94.9836" width="8.61521" height="8.7419" rx="4.3076" fill="white" fill-opacity="0.025"/>
<rect x="137.434" y="64.3228" width="8.7419" height="8.7419" rx="4.37095" fill="white" fill-opacity="0.025"/>
<rect x="168.221" y="84.9744" width="8.61521" height="8.61521" rx="4.3076" fill="white" fill-opacity="0.025"/>
<rect x="137.434" y="74.332" width="8.7419" height="8.7419" rx="4.37095" fill="white" fill-opacity="0.025"/>
<rect x="168.221" y="94.9836" width="8.61521" height="8.7419" rx="4.3076" fill="white" fill-opacity="0.025"/>
<rect x="157.958" y="64.3228" width="8.7419" height="8.7419" rx="4.37095" fill="white" fill-opacity="0.025"/>
<rect x="188.746" y="84.9744" width="8.61521" height="8.61521" rx="4.3076" fill="white" fill-opacity="0.025"/>
<rect x="157.958" y="74.332" width="8.7419" height="8.7419" rx="4.37095" fill="white" fill-opacity="0.025"/>
<rect x="188.746" y="94.9836" width="8.61521" height="8.7419" rx="4.3076" fill="white" fill-opacity="0.025"/>
<rect x="168.348" y="64.3228" width="8.48851" height="8.7419" rx="4.24426" fill="white" fill-opacity="0.025"/>
<rect x="198.882" y="84.9744" width="8.61521" height="8.61521" rx="4.3076" fill="white" fill-opacity="0.025"/>
<rect x="168.348" y="74.332" width="8.48851" height="8.7419" rx="4.24426" fill="white" fill-opacity="0.025"/>
<rect x="198.882" y="94.9836" width="8.61521" height="8.7419" rx="4.3076" fill="white" fill-opacity="0.025"/>
<rect x="106.52" y="64.3228" width="8.61521" height="8.7419" rx="4.3076" fill="white" fill-opacity="0.025"/>
<rect x="137.307" y="84.9744" width="8.61521" height="8.61521" rx="4.3076" fill="white" fill-opacity="0.025"/>
<rect x="116.909" y="64.3228" width="8.7419" height="8.7419" rx="4.37095" fill="white" fill-opacity="0.025"/>
<rect x="147.569" y="84.9744" width="8.7419" height="8.61521" rx="4.3076" fill="white" fill-opacity="0.025"/>
<rect x="127.044" y="64.3228" width="8.61521" height="8.7419" rx="4.3076" fill="white" fill-opacity="0.025"/>
<rect x="157.706" y="84.9744" width="8.7419" height="8.61521" rx="4.3076" fill="white" fill-opacity="0.025"/>
<rect x="301.511" y="94.0156" width="8.61521" height="8.7419" rx="4.3076" fill="#1D2229"/>
<rect x="280.986" y="115.681" width="8.61521" height="8.61521" rx="4.3076" fill="white" fill-opacity="0.025"/>
<rect x="280.986" y="125.69" width="8.61521" height="8.61521" rx="4.3076" fill="white" fill-opacity="0.025"/>
<rect x="240.063" y="95.0295" width="8.7419" height="8.61521" rx="4.3076" fill="white" fill-opacity="0.025"/>
<rect x="270.724" y="115.681" width="8.61521" height="8.61521" rx="4.3076" fill="white" fill-opacity="0.025"/>
<rect x="240.063" y="105.165" width="8.7419" height="8.48851" rx="4.24426" fill="white" fill-opacity="0.025"/>
<rect x="270.724" y="125.69" width="8.61521" height="8.61521" rx="4.3076" fill="white" fill-opacity="0.025"/>
<rect x="291.249" y="115.681" width="8.7419" height="8.61521" rx="4.3076" fill="white" fill-opacity="0.025"/>
<rect x="291.249" y="125.69" width="8.7419" height="8.61521" rx="4.3076" fill="white" fill-opacity="0.025"/>
<rect x="301.638" y="115.681" width="8.48851" height="8.61521" rx="4.24426" fill="white" fill-opacity="0.025"/>
<rect x="301.638" y="125.69" width="8.48851" height="8.61521" rx="4.24426" fill="white" fill-opacity="0.025"/>
<rect x="209.149" y="95.0295" width="8.61521" height="8.61521" rx="4.3076" fill="white" fill-opacity="0.025"/>
<rect x="239.81" y="115.681" width="8.61521" height="8.61521" rx="4.3076" fill="white" fill-opacity="0.025"/>
<rect x="219.539" y="95.0295" width="8.61521" height="8.61521" rx="4.3076" fill="white" fill-opacity="0.025"/>
<rect x="250.199" y="115.681" width="8.61521" height="8.61521" rx="4.3076" fill="white" fill-opacity="0.025"/>
<rect x="229.801" y="95.0295" width="8.48851" height="8.61521" rx="4.24426" fill="white" fill-opacity="0.025"/>
<rect x="260.461" y="115.681" width="8.48851" height="8.61521" rx="4.24426" fill="white" fill-opacity="0.025"/>
<rect x="209.149" y="105.292" width="8.48851" height="8.7419" rx="4.24426" fill="white" fill-opacity="0.025"/>
<rect x="239.81" y="125.943" width="8.61521" height="8.61521" rx="4.3076" fill="white" fill-opacity="0.025"/>
<rect x="209.149" y="115.301" width="8.48851" height="8.7419" rx="4.24426" fill="white" fill-opacity="0.025"/>
<rect x="239.81" y="135.953" width="8.61521" height="8.7419" rx="4.3076" fill="white" fill-opacity="0.025"/>
<rect x="198.887" y="105.292" width="8.7419" height="8.7419" rx="4.37095" fill="white" fill-opacity="0.025"/>
<rect x="229.674" y="125.943" width="8.61521" height="8.61521" rx="4.3076" fill="white" fill-opacity="0.025"/>
<rect x="198.887" y="115.301" width="8.7419" height="8.7419" rx="4.37095" fill="white" fill-opacity="0.025"/>
<rect x="229.674" y="135.953" width="8.61521" height="8.7419" rx="4.3076" fill="white" fill-opacity="0.025"/>
<rect x="219.412" y="105.292" width="8.7419" height="8.7419" rx="4.37095" fill="white" fill-opacity="0.025"/>
<rect x="250.199" y="125.943" width="8.61521" height="8.61521" rx="4.3076" fill="white" fill-opacity="0.025"/>
<rect x="219.412" y="115.301" width="8.7419" height="8.7419" rx="4.37095" fill="white" fill-opacity="0.025"/>
<rect x="250.199" y="135.953" width="8.61521" height="8.7419" rx="4.3076" fill="white" fill-opacity="0.025"/>
<rect x="229.801" y="105.292" width="8.48851" height="8.7419" rx="4.24426" fill="white" fill-opacity="0.025"/>
<rect x="260.335" y="125.943" width="8.61521" height="8.61521" rx="4.3076" fill="white" fill-opacity="0.025"/>
<rect x="229.801" y="115.301" width="8.48851" height="8.7419" rx="4.24426" fill="white" fill-opacity="0.025"/>
<rect x="260.335" y="135.953" width="8.61521" height="8.7419" rx="4.3076" fill="white" fill-opacity="0.025"/>
<rect x="167.973" y="105.292" width="8.61521" height="8.7419" rx="4.3076" fill="white" fill-opacity="0.025"/>
<rect x="198.76" y="125.943" width="8.61521" height="8.61521" rx="4.3076" fill="white" fill-opacity="0.025"/>
<rect x="178.362" y="105.292" width="8.7419" height="8.7419" rx="4.37095" fill="white" fill-opacity="0.025"/>
<rect x="209.022" y="125.943" width="8.7419" height="8.61521" rx="4.3076" fill="white" fill-opacity="0.025"/>
<rect x="188.498" y="105.292" width="8.61521" height="8.7419" rx="4.3076" fill="white" fill-opacity="0.025"/>
<rect x="219.159" y="125.943" width="8.7419" height="8.61521" rx="4.3076" fill="white" fill-opacity="0.025"/>
<rect x="292.892" y="145.546" width="8.61521" height="8.61521" rx="4.3076" fill="white" fill-opacity="0.025"/>
<rect x="292.892" y="155.682" width="8.61521" height="8.48851" rx="4.24426" fill="white" fill-opacity="0.025"/>
<rect x="282.629" y="145.546" width="8.7419" height="8.61521" rx="4.3076" fill="white" fill-opacity="0.025"/>
<rect x="282.629" y="155.682" width="8.7419" height="8.48851" rx="4.24426" fill="white" fill-opacity="0.025"/>
<rect x="303.154" y="145.546" width="8.61521" height="8.61521" rx="4.3076" fill="white" fill-opacity="0.025"/>
<rect x="303.154" y="155.682" width="8.61521" height="8.48851" rx="4.24426" fill="white" fill-opacity="0.025"/>
<rect x="313.416" y="145.546" width="8.61521" height="8.61521" rx="4.3076" fill="white" fill-opacity="0.025"/>
<rect x="313.416" y="155.682" width="8.61521" height="8.48851" rx="4.24426" fill="white" fill-opacity="0.025"/>
<rect x="251.715" y="145.546" width="8.7419" height="8.61521" rx="4.3076" fill="white" fill-opacity="0.025"/>
<rect x="262.23" y="145.546" width="8.48851" height="8.61521" rx="4.24426" fill="white" fill-opacity="0.025"/>
<rect x="272.366" y="145.546" width="8.48851" height="8.61521" rx="4.24426" fill="white" fill-opacity="0.025"/>
<rect x="251.715" y="155.809" width="8.61521" height="8.7419" rx="4.3076" fill="white" fill-opacity="0.025"/>
<rect x="251.715" y="165.817" width="8.61521" height="8.7419" rx="4.3076" fill="white" fill-opacity="0.025"/>
<rect x="241.453" y="155.809" width="8.7419" height="8.7419" rx="4.37095" fill="white" fill-opacity="0.025"/>
<rect x="241.453" y="165.817" width="8.7419" height="8.7419" rx="4.37095" fill="white" fill-opacity="0.025"/>
<rect x="262.104" y="155.809" width="8.61521" height="8.7419" rx="4.3076" fill="white" fill-opacity="0.025"/>
<rect x="262.104" y="165.817" width="8.61521" height="8.7419" rx="4.3076" fill="white" fill-opacity="0.025"/>
<rect x="272.24" y="155.809" width="8.61521" height="8.7419" rx="4.3076" fill="white" fill-opacity="0.025"/>
<rect x="272.24" y="165.817" width="8.61521" height="8.7419" rx="4.3076" fill="white" fill-opacity="0.025"/>
<rect x="210.665" y="155.809" width="8.48851" height="8.7419" rx="4.24426" fill="white" fill-opacity="0.025"/>
<rect x="220.928" y="155.809" width="8.7419" height="8.7419" rx="4.37095" fill="white" fill-opacity="0.025"/>
<rect x="231.19" y="155.809" width="8.48851" height="8.7419" rx="4.24426" fill="white" fill-opacity="0.025"/>
<rect x="210.918" y="166.832" width="8.61521" height="8.61521" rx="4.3076" fill="white" fill-opacity="0.025"/>
<rect x="241.579" y="187.483" width="8.61521" height="8.61521" rx="4.3076" fill="white" fill-opacity="0.025"/>
<rect x="210.918" y="176.967" width="8.61521" height="8.48851" rx="4.24426" fill="white" fill-opacity="0.025"/>
<rect x="241.579" y="197.492" width="8.61521" height="8.61521" rx="4.3076" fill="white" fill-opacity="0.025"/>
<rect x="200.656" y="166.832" width="8.7419" height="8.61521" rx="4.3076" fill="white" fill-opacity="0.025"/>
<rect x="231.316" y="187.483" width="8.61521" height="8.61521" rx="4.3076" fill="white" fill-opacity="0.025"/>
<rect x="200.656" y="176.967" width="8.7419" height="8.48851" rx="4.24426" fill="white" fill-opacity="0.025"/>
<rect x="231.316" y="197.492" width="8.61521" height="8.61521" rx="4.3076" fill="white" fill-opacity="0.025"/>
<rect x="221.181" y="166.832" width="8.7419" height="8.61521" rx="4.3076" fill="white" fill-opacity="0.025"/>
<rect x="251.841" y="187.483" width="8.7419" height="8.61521" rx="4.3076" fill="white" fill-opacity="0.025"/>
<rect x="221.181" y="176.967" width="8.7419" height="8.48851" rx="4.24426" fill="white" fill-opacity="0.025"/>
<rect x="251.841" y="197.492" width="8.7419" height="8.61521" rx="4.3076" fill="white" fill-opacity="0.025"/>
<rect x="231.443" y="166.832" width="8.48851" height="8.61521" rx="4.24426" fill="white" fill-opacity="0.025"/>
<rect x="262.23" y="187.483" width="8.48851" height="8.61521" rx="4.24426" fill="white" fill-opacity="0.025"/>
<rect x="231.443" y="176.967" width="8.48851" height="8.48851" rx="4.24426" fill="white" fill-opacity="0.025"/>
<rect x="262.23" y="197.492" width="8.48851" height="8.61521" rx="4.24426" fill="white" fill-opacity="0.025"/>
<rect x="169.742" y="166.832" width="8.61521" height="8.61521" rx="4.3076" fill="white" fill-opacity="0.025"/>
<rect x="200.402" y="187.483" width="8.61521" height="8.61521" rx="4.3076" fill="white" fill-opacity="0.025"/>
<rect x="180.131" y="166.832" width="8.61521" height="8.61521" rx="4.3076" fill="white" fill-opacity="0.025"/>
<rect x="210.792" y="187.483" width="8.61521" height="8.61521" rx="4.3076" fill="white" fill-opacity="0.025"/>
<rect x="190.393" y="166.832" width="8.48851" height="8.61521" rx="4.24426" fill="white" fill-opacity="0.025"/>
<rect x="221.054" y="187.483" width="8.48851" height="8.61521" rx="4.24426" fill="white" fill-opacity="0.025"/>
<rect x="169.742" y="177.094" width="8.48851" height="8.7419" rx="4.24426" fill="white" fill-opacity="0.025"/>
<rect x="200.402" y="197.745" width="8.61521" height="8.61521" rx="4.3076" fill="white" fill-opacity="0.025"/>
<rect x="169.742" y="187.103" width="8.48851" height="8.7419" rx="4.24426" fill="white" fill-opacity="0.025"/>
<rect x="200.402" y="207.755" width="8.61521" height="8.7419" rx="4.3076" fill="white" fill-opacity="0.025"/>
<rect x="159.479" y="177.094" width="8.7419" height="8.7419" rx="4.37095" fill="white" fill-opacity="0.025"/>
<rect x="190.267" y="197.745" width="8.61521" height="8.61521" rx="4.3076" fill="white" fill-opacity="0.025"/>
<rect x="159.479" y="187.103" width="8.7419" height="8.7419" rx="4.37095" fill="white" fill-opacity="0.025"/>
<rect x="190.267" y="207.755" width="8.61521" height="8.7419" rx="4.3076" fill="white" fill-opacity="0.025"/>
<rect x="180.004" y="177.094" width="8.7419" height="8.7419" rx="4.37095" fill="white" fill-opacity="0.025"/>
<rect x="210.792" y="197.745" width="8.61521" height="8.61521" rx="4.3076" fill="white" fill-opacity="0.025"/>
<rect x="180.004" y="187.103" width="8.7419" height="8.7419" rx="4.37095" fill="white" fill-opacity="0.025"/>
<rect x="210.792" y="207.755" width="8.61521" height="8.7419" rx="4.3076" fill="white" fill-opacity="0.025"/>
<rect x="190.393" y="177.094" width="8.48851" height="8.7419" rx="4.24426" fill="white" fill-opacity="0.025"/>
<rect x="220.928" y="197.745" width="8.61521" height="8.61521" rx="4.3076" fill="white" fill-opacity="0.025"/>
<rect x="190.393" y="187.103" width="8.48851" height="8.7419" rx="4.24426" fill="white" fill-opacity="0.025"/>
<rect x="220.928" y="207.755" width="8.61521" height="8.7419" rx="4.3076" fill="white" fill-opacity="0.025"/>
<rect x="159.353" y="197.745" width="8.61521" height="8.61521" rx="4.3076" fill="white" fill-opacity="0.025"/>
<rect x="138.954" y="177.094" width="8.7419" height="8.7419" rx="4.37095" fill="white" fill-opacity="0.025"/>
<rect x="169.615" y="197.745" width="8.7419" height="8.61521" rx="4.3076" fill="white" fill-opacity="0.025"/>
<rect x="149.09" y="177.094" width="8.61521" height="8.7419" rx="4.3076" fill="white" fill-opacity="0.025"/>
<rect x="179.751" y="197.745" width="8.7419" height="8.61521" rx="4.3076" fill="white" fill-opacity="0.025"/>
<rect x="159.06" y="227.986" width="8.61521" height="8.61521" rx="4.3076" fill="white" fill-opacity="0.025"/>
<rect x="159.06" y="238.121" width="8.61521" height="8.48851" rx="4.24426" fill="white" fill-opacity="0.025"/>
<rect x="148.797" y="227.986" width="8.7419" height="8.61521" rx="4.3076" fill="white" fill-opacity="0.025"/>
<rect x="148.797" y="238.121" width="8.7419" height="8.48851" rx="4.24426" fill="white" fill-opacity="0.025"/>
<rect x="169.322" y="227.986" width="8.61521" height="8.61521" rx="4.3076" fill="white" fill-opacity="0.025"/>
<rect x="169.322" y="238.121" width="8.61521" height="8.48851" rx="4.24426" fill="white" fill-opacity="0.025"/>
<rect x="179.584" y="227.986" width="8.61521" height="8.61521" rx="4.3076" fill="white" fill-opacity="0.025"/>
<rect x="179.584" y="238.121" width="8.61521" height="8.48851" rx="4.24426" fill="white" fill-opacity="0.025"/>
<rect x="117.883" y="227.986" width="8.7419" height="8.61521" rx="4.3076" fill="white" fill-opacity="0.025"/>
<rect x="128.399" y="227.986" width="8.48851" height="8.61521" rx="4.24426" fill="white" fill-opacity="0.025"/>
<rect x="138.535" y="227.986" width="8.48851" height="8.61521" rx="4.24426" fill="white" fill-opacity="0.025"/>
<rect x="117.883" y="238.248" width="8.61521" height="8.7419" rx="4.3076" fill="white" fill-opacity="0.025"/>
<rect x="117.883" y="248.257" width="8.61521" height="8.7419" rx="4.3076" fill="white" fill-opacity="0.025"/>
<rect x="107.621" y="238.248" width="8.7419" height="8.7419" rx="4.37095" fill="white" fill-opacity="0.025"/>
<rect x="107.621" y="248.257" width="8.7419" height="8.7419" rx="4.37095" fill="white" fill-opacity="0.025"/>
<rect x="128.272" y="238.248" width="8.61521" height="8.7419" rx="4.3076" fill="white" fill-opacity="0.025"/>
<rect x="128.272" y="248.257" width="8.61521" height="8.7419" rx="4.3076" fill="white" fill-opacity="0.025"/>
<rect x="138.409" y="238.248" width="8.61521" height="8.7419" rx="4.3076" fill="white" fill-opacity="0.025"/>
<rect x="138.409" y="248.257" width="8.61521" height="8.7419" rx="4.3076" fill="white" fill-opacity="0.025"/>
<rect x="76.833" y="238.248" width="8.48851" height="8.7419" rx="4.24426" fill="white" fill-opacity="0.025"/>
<rect x="87.0957" y="238.248" width="8.7419" height="8.7419" rx="4.37095" fill="white" fill-opacity="0.025"/>
<rect x="97.3584" y="238.248" width="8.48851" height="8.7419" rx="4.24426" fill="white" fill-opacity="0.025"/>
<rect x="77.0864" y="249.271" width="8.61521" height="8.61521" rx="4.3076" fill="white" fill-opacity="0.025"/>
<rect x="66.8242" y="249.271" width="8.7419" height="8.61521" rx="4.3076" fill="white" fill-opacity="0.025"/>
<rect x="87.3496" y="249.271" width="8.7419" height="8.61521" rx="4.3076" fill="white" fill-opacity="0.025"/>
<rect x="97.6118" y="249.271" width="8.48851" height="8.61521" rx="4.24426" fill="white" fill-opacity="0.025"/>
<rect x="35.9102" y="249.271" width="8.61521" height="8.61521" rx="4.3076" fill="white" fill-opacity="0.025"/>
<rect x="46.2988" y="249.271" width="8.61521" height="8.61521" rx="4.3076" fill="white" fill-opacity="0.025"/>
<rect x="56.5615" y="249.271" width="8.48851" height="8.61521" rx="4.24426" fill="white" fill-opacity="0.025"/>
<rect x="107.694" y="166.981" width="8.61521" height="8.7419" rx="4.3076" fill="white" fill-opacity="0.025"/>
<rect x="107.694" y="176.99" width="8.61521" height="8.7419" rx="4.3076" fill="white" fill-opacity="0.025"/>
<rect x="97.4321" y="166.981" width="8.7419" height="8.7419" rx="4.37095" fill="white" fill-opacity="0.025"/>
<rect x="97.4321" y="176.99" width="8.7419" height="8.7419" rx="4.37095" fill="white" fill-opacity="0.025"/>
<rect x="118.083" y="166.981" width="8.61521" height="8.7419" rx="4.3076" fill="white" fill-opacity="0.025"/>
<rect x="118.083" y="176.99" width="8.61521" height="8.7419" rx="4.3076" fill="white" fill-opacity="0.025"/>
<rect x="66.644" y="166.981" width="8.48851" height="8.7419" rx="4.24426" fill="white" fill-opacity="0.025"/>
<rect x="76.9067" y="166.981" width="8.7419" height="8.7419" rx="4.37095" fill="white" fill-opacity="0.025"/>
<rect x="87.1694" y="166.981" width="8.48851" height="8.7419" rx="4.24426" fill="white" fill-opacity="0.025"/>
<rect x="66.8979" y="178.004" width="8.61521" height="8.61521" rx="4.3076" fill="white" fill-opacity="0.025"/>
<rect x="97.5586" y="198.656" width="8.61521" height="8.61521" rx="4.3076" fill="white" fill-opacity="0.025"/>
<rect x="66.8979" y="188.139" width="8.61521" height="8.48851" rx="4.24426" fill="white" fill-opacity="0.025"/>
<rect x="97.5586" y="208.665" width="8.61521" height="8.61521" rx="4.3076" fill="white" fill-opacity="0.025"/>
<rect x="56.6353" y="178.004" width="8.7419" height="8.61521" rx="4.3076" fill="white" fill-opacity="0.025"/>
<rect x="87.2959" y="198.656" width="8.61521" height="8.61521" rx="4.3076" fill="white" fill-opacity="0.025"/>
<rect x="56.6353" y="188.139" width="8.7419" height="8.48851" rx="4.24426" fill="white" fill-opacity="0.025"/>
<rect x="87.2959" y="208.665" width="8.61521" height="8.61521" rx="4.3076" fill="white" fill-opacity="0.025"/>
<rect x="77.1606" y="178.004" width="8.7419" height="8.61521" rx="4.3076" fill="white" fill-opacity="0.025"/>
<rect x="107.821" y="198.656" width="8.7419" height="8.61521" rx="4.3076" fill="white" fill-opacity="0.025"/>
<rect x="77.1606" y="188.139" width="8.7419" height="8.48851" rx="4.24426" fill="white" fill-opacity="0.025"/>
<rect x="107.821" y="208.665" width="8.7419" height="8.61521" rx="4.3076" fill="white" fill-opacity="0.025"/>
<rect x="87.4229" y="178.004" width="8.48851" height="8.61521" rx="4.24426" fill="white" fill-opacity="0.025"/>
<rect x="118.21" y="198.656" width="8.48851" height="8.61521" rx="4.24426" fill="white" fill-opacity="0.025"/>
<rect x="87.4229" y="188.139" width="8.48851" height="8.48851" rx="4.24426" fill="white" fill-opacity="0.025"/>
<rect x="118.21" y="208.665" width="8.48851" height="8.61521" rx="4.24426" fill="white" fill-opacity="0.025"/>
<rect x="25.7212" y="178.004" width="8.61521" height="8.61521" rx="4.3076" fill="white" fill-opacity="0.025"/>
<rect x="56.3818" y="198.656" width="8.61521" height="8.61521" rx="4.3076" fill="white" fill-opacity="0.025"/>
<rect x="36.1104" y="178.004" width="8.61521" height="8.61521" rx="4.3076" fill="white" fill-opacity="0.025"/>
<rect x="66.771" y="198.656" width="8.61521" height="8.61521" rx="4.3076" fill="white" fill-opacity="0.025"/>
<rect x="46.3726" y="178.004" width="8.48851" height="8.61521" rx="4.24426" fill="white" fill-opacity="0.025"/>
<rect x="77.0337" y="198.656" width="8.48851" height="8.61521" rx="4.24426" fill="white" fill-opacity="0.025"/>
<rect x="25.7212" y="188.266" width="8.48851" height="8.7419" rx="4.24426" fill="white" fill-opacity="0.025"/>
<rect x="56.3818" y="208.918" width="8.61521" height="8.61521" rx="4.3076" fill="white" fill-opacity="0.025"/>
<rect x="25.7212" y="198.276" width="8.48851" height="8.7419" rx="4.24426" fill="white" fill-opacity="0.025"/>
<rect x="56.3818" y="218.927" width="8.61521" height="8.7419" rx="4.3076" fill="white" fill-opacity="0.025"/>
<rect x="15.459" y="188.266" width="8.7419" height="8.7419" rx="4.37095" fill="white" fill-opacity="0.025"/>
<rect x="46.2461" y="208.918" width="8.61521" height="8.61521" rx="4.3076" fill="white" fill-opacity="0.025"/>
<rect x="15.459" y="198.276" width="8.7419" height="8.7419" rx="4.37095" fill="white" fill-opacity="0.025"/>
<rect x="46.2461" y="218.927" width="8.61521" height="8.7419" rx="4.3076" fill="white" fill-opacity="0.025"/>
<rect x="35.9834" y="188.266" width="8.7419" height="8.7419" rx="4.37095" fill="white" fill-opacity="0.025"/>
<rect x="66.771" y="208.918" width="8.61521" height="8.61521" rx="4.3076" fill="white" fill-opacity="0.025"/>
<rect x="35.9834" y="198.276" width="8.7419" height="8.7419" rx="4.37095" fill="white" fill-opacity="0.025"/>
<rect x="66.771" y="218.927" width="8.61521" height="8.7419" rx="4.3076" fill="white" fill-opacity="0.025"/>
<rect x="46.3726" y="188.266" width="8.48851" height="8.7419" rx="4.24426" fill="white" fill-opacity="0.025"/>
<rect x="76.9067" y="208.918" width="8.61521" height="8.61521" rx="4.3076" fill="white" fill-opacity="0.025"/>
<rect x="46.3726" y="198.276" width="8.48851" height="8.7419" rx="4.24426" fill="white" fill-opacity="0.025"/>
<rect x="76.9067" y="218.927" width="8.61521" height="8.7419" rx="4.3076" fill="white" fill-opacity="0.025"/>
<rect x="15.332" y="208.918" width="8.61521" height="8.61521" rx="4.3076" fill="white" fill-opacity="0.025"/>
<rect x="25.5942" y="208.918" width="8.7419" height="8.61521" rx="4.3076" fill="white" fill-opacity="0.025"/>
<rect x="35.7305" y="208.918" width="8.7419" height="8.61521" rx="4.3076" fill="white" fill-opacity="0.025"/>
<path d="M42 68.784V147C42 148.657 43.3432 150 45 150L122.601 150L198 150C199.657 150 201 148.657 201 147V68.784C201 56.5826 194.178 46 181.383 46L59.9248 46C41.8678 46 42 63.1455 42 68.784Z" fill="#1D2229" fill-opacity="0.85" stroke="url(#paint0_linear_2432_3299)" stroke-width="4"/>
<circle cx="42" cy="150" r="20" fill="#F3F3F3"/>
<path d="M43.8825 141.727V157H40.6534V144.792H40.5639L37.0664 146.985V144.121L40.8473 141.727H43.8825Z" fill="#251B4D"/>
<rect x="228.5" y="166.671" width="112" height="132" rx="7.5" fill="#323A47" fill-opacity="0.85" stroke="url(#paint1_linear_2432_3299)"/>
<circle cx="301" cy="181" r="4" fill="#454F5F"/>
<circle cx="313" cy="181" r="4" fill="#454F5F"/>
<circle cx="325" cy="181" r="4" fill="#454F5F"/>
<rect x="240" y="195.171" width="89" height="53" rx="6" fill="#454F5F"/>
<rect x="240" y="259.171" width="89" height="26" rx="6" fill="#454F5F"/>
<rect x="247" y="204" width="27" height="5" rx="2.5" fill="#515C6D"/>
<rect x="240" y="178.171" width="28" height="4" rx="2" fill="#454F5F"/>
<rect x="247" y="214" width="39" height="5" rx="2.5" fill="#515C6D"/>
<rect x="247" y="224" width="56" height="5" rx="2.5" fill="#515C6D"/>
<rect x="247" y="234" width="56" height="5" rx="2.5" fill="#515C6D"/>
<circle cx="340.5" cy="256.5" r="15.5" fill="url(#paint2_linear_2432_3299)"/>
<circle cx="315" cy="272" r="7" fill="#6447A1"/>
<path d="M314 270.47L315.854 272L314 273.53L314.571 274L317 272L314.571 270L314 270.47Z" fill="#EAEAEA"/>
<path fill-rule="evenodd" clip-rule="evenodd" d="M348.719 252.438C349.094 252.741 349.094 253.232 348.719 253.534L339.759 260.773C339.384 261.076 338.776 261.076 338.401 260.773L333.281 256.637C332.906 256.334 332.906 255.843 333.281 255.54C333.656 255.237 334.264 255.237 334.639 255.54L339.08 259.128L347.361 252.438C347.736 252.135 348.344 252.135 348.719 252.438Z" fill="#F0F0F0"/>
<path fill-rule="evenodd" clip-rule="evenodd" d="M348.719 252.227C349.094 252.53 349.094 253.021 348.719 253.324L344.239 256.943L339.759 260.562C339.384 260.865 338.776 260.865 338.401 260.562L333.281 256.426C332.906 256.123 332.906 255.632 333.281 255.329C333.656 255.026 334.264 255.026 334.639 255.329L339.08 258.917L347.361 252.227C347.736 251.924 348.344 251.924 348.719 252.227Z" fill="#F0F0F0"/>
<path fill-rule="evenodd" clip-rule="evenodd" d="M348.719 252.438C349.094 252.741 349.094 253.232 348.719 253.534L339.759 260.773C339.384 261.076 338.776 261.076 338.401 260.773L333.281 256.637C332.906 256.334 332.906 255.843 333.281 255.54C333.656 255.237 334.264 255.237 334.639 255.54L339.08 259.128L347.361 252.438C347.736 252.135 348.344 252.135 348.719 252.438Z" stroke="#F0F0F0" stroke-linecap="round" stroke-linejoin="round"/>
<path fill-rule="evenodd" clip-rule="evenodd" d="M348.719 252.227C349.094 252.53 349.094 253.021 348.719 253.324L344.239 256.943L339.759 260.562C339.384 260.865 338.776 260.865 338.401 260.562L333.281 256.426C332.906 256.123 332.906 255.632 333.281 255.329C333.656 255.026 334.264 255.026 334.639 255.329L339.08 258.917L347.361 252.227C347.736 251.924 348.344 251.924 348.719 252.227Z" stroke="#F0F0F0" stroke-linecap="round" stroke-linejoin="round"/>
<path d="M122.53 161.47C122.237 161.177 121.763 161.177 121.47 161.47L116.697 166.243C116.404 166.536 116.404 167.01 116.697 167.303C116.99 167.596 117.464 167.596 117.757 167.303L122 163.061L126.243 167.303C126.536 167.596 127.01 167.596 127.303 167.303C127.596 167.01 127.596 166.536 127.303 166.243L122.53 161.47ZM122 206.346L122.75 206.346V206.346H122ZM151.034 232L151.018 232.75L151.026 232.75H151.034V232ZM219.53 232.53C219.823 232.237 219.823 231.763 219.53 231.47L214.757 226.697C214.464 226.404 213.99 226.404 213.697 226.697C213.404 226.99 213.404 227.464 213.697 227.757L217.939 232L213.697 236.243C213.404 236.536 213.404 237.01 213.697 237.303C213.99 237.596 214.464 237.596 214.757 237.303L219.53 232.53ZM121.25 162V206.346H122.75V162H121.25ZM121.25 206.346C121.25 212.041 121.768 218.542 125.833 223.679C129.921 228.846 137.444 232.454 151.018 232.75L151.05 231.25C137.702 230.959 130.707 227.421 127.009 222.748C123.288 218.045 122.75 212.012 122.75 206.346L121.25 206.346ZM151.034 232.75H219V231.25H151.034V232.75Z" fill="#F9F9F9"/>
<path d="M63 24.4501V71.562L120.517 80L179 71.562C178.716 60.4989 179 35.9537 179 24.7705C179 13.4814 172.269 12.4911 166.854 12.4249C140.607 12.1043 85.4733 11.6553 74.9176 12.4249C64.362 13.1946 63 18.678 63 24.4501Z" fill="#F3F3F3" stroke="#F4F4F4"/>
<path d="M41 69L119.926 79.925C120.286 79.9748 120.65 79.9754 121.01 79.9269L202 69" stroke="url(#paint3_linear_2432_3299)" stroke-width="4.5"/>
<path d="M87.0124 31.1509C86.4731 31.1509 86.0083 31.0231 85.6179 30.7676C85.2275 30.51 84.9267 30.1407 84.7154 29.6598C84.5041 29.1768 84.3994 28.5963 84.4015 27.9181C84.4035 27.24 84.5091 26.6645 84.7184 26.1916C84.9297 25.7167 85.2295 25.3555 85.6179 25.108C86.0083 24.8584 86.4731 24.7337 87.0124 24.7337C87.5517 24.7337 88.0166 24.8584 88.407 25.108C88.7994 25.3555 89.1012 25.7167 89.3125 26.1916C89.5238 26.6665 89.6284 27.242 89.6264 27.9181C89.6264 28.5983 89.5208 29.1799 89.3095 29.6628C89.0982 30.1458 88.7973 30.515 88.407 30.7706C88.0186 31.0241 87.5537 31.1509 87.0124 31.1509ZM87.0124 29.9284C87.3344 29.9284 87.595 29.7644 87.7942 29.4364C87.9934 29.1064 88.092 28.6003 88.09 27.9181C88.09 27.4714 88.0447 27.1032 87.9542 26.8134C87.8636 26.5216 87.7379 26.3043 87.5769 26.1614C87.4159 26.0185 87.2277 25.9471 87.0124 25.9471C86.6925 25.9471 86.4339 26.1091 86.2367 26.4331C86.0395 26.755 85.9399 27.2501 85.9379 27.9181C85.9358 28.3709 85.9791 28.7462 86.0676 29.044C86.1582 29.3419 86.285 29.5642 86.448 29.7111C86.611 29.856 86.7991 29.9284 87.0124 29.9284ZM93.5106 24.8182V31H92.0195V26.2127H91.9833L90.6008 27.0579V25.766L92.1252 24.8182H93.5106ZM97.6039 31.1509C97.0646 31.1509 96.5998 31.0231 96.2094 30.7676C95.819 30.51 95.5181 30.1407 95.3068 29.6598C95.0955 29.1768 94.9909 28.5963 94.9929 27.9181C94.9949 27.24 95.1006 26.6645 95.3099 26.1916C95.5212 25.7167 95.821 25.3555 96.2094 25.108C96.5998 24.8584 97.0646 24.7337 97.6039 24.7337C98.1432 24.7337 98.608 24.8584 98.9984 25.108C99.3908 25.3555 99.6927 25.7167 99.904 26.1916C100.115 26.6665 100.22 27.242 100.218 27.9181C100.218 28.5983 100.112 29.1799 99.9009 29.6628C99.6897 30.1458 99.3888 30.515 98.9984 30.7706C98.61 31.0241 98.1452 31.1509 97.6039 31.1509ZM97.6039 29.9284C97.9259 29.9284 98.1865 29.7644 98.3857 29.4364C98.5849 29.1064 98.6835 28.6003 98.6815 27.9181C98.6815 27.4714 98.6362 27.1032 98.5457 26.8134C98.4551 26.5216 98.3293 26.3043 98.1683 26.1614C98.0074 26.0185 97.8192 25.9471 97.6039 25.9471C97.2839 25.9471 97.0254 26.1091 96.8281 26.4331C96.6309 26.755 96.5313 27.2501 96.5293 27.9181C96.5273 28.3709 96.5706 28.7462 96.6591 29.044C96.7497 29.3419 96.8764 29.5642 97.0394 29.7111C97.2024 29.856 97.3906 29.9284 97.6039 29.9284ZM103.8 31.1509C103.261 31.1509 102.796 31.0231 102.406 30.7676C102.015 30.51 101.715 30.1407 101.503 29.6598C101.292 29.1768 101.187 28.5963 101.189 27.9181C101.191 27.24 101.297 26.6645 101.506 26.1916C101.718 25.7167 102.017 25.3555 102.406 25.108C102.796 24.8584 103.261 24.7337 103.8 24.7337C104.34 24.7337 104.804 24.8584 105.195 25.108C105.587 25.3555 105.889 25.7167 106.1 26.1916C106.312 26.6665 106.416 27.242 106.414 27.9181C106.414 28.5983 106.309 29.1799 106.097 29.6628C105.886 30.1458 105.585 30.515 105.195 30.7706C104.806 31.0241 104.342 31.1509 103.8 31.1509ZM103.8 29.9284C104.122 29.9284 104.383 29.7644 104.582 29.4364C104.781 29.1064 104.88 28.6003 104.878 27.9181C104.878 27.4714 104.833 27.1032 104.742 26.8134C104.651 26.5216 104.526 26.3043 104.365 26.1614C104.204 26.0185 104.016 25.9471 103.8 25.9471C103.48 25.9471 103.222 26.1091 103.025 26.4331C102.827 26.755 102.728 27.2501 102.726 27.9181C102.724 28.3709 102.767 28.7462 102.855 29.044C102.946 29.3419 103.073 29.5642 103.236 29.7111C103.399 29.856 103.587 29.9284 103.8 29.9284ZM110.298 24.8182V31H108.807V26.2127H108.771L107.389 27.0579V25.766L108.913 24.8182H110.298ZM114.392 31.1509C113.852 31.1509 113.388 31.0231 112.997 30.7676C112.607 30.51 112.306 30.1407 112.095 29.6598C111.883 29.1768 111.779 28.5963 111.781 27.9181C111.783 27.24 111.888 26.6645 112.098 26.1916C112.309 25.7167 112.609 25.3555 112.997 25.108C113.388 24.8584 113.852 24.7337 114.392 24.7337C114.931 24.7337 115.396 24.8584 115.786 25.108C116.179 25.3555 116.481 25.7167 116.692 26.1916C116.903 26.6665 117.008 27.242 117.006 27.9181C117.006 28.5983 116.9 29.1799 116.689 29.6628C116.477 30.1458 116.177 30.515 115.786 30.7706C115.398 31.0241 114.933 31.1509 114.392 31.1509ZM114.392 29.9284C114.714 29.9284 114.974 29.7644 115.174 29.4364C115.373 29.1064 115.471 28.6003 115.469 27.9181C115.469 27.4714 115.424 27.1032 115.333 26.8134C115.243 26.5216 115.117 26.3043 114.956 26.1614C114.795 26.0185 114.607 25.9471 114.392 25.9471C114.072 25.9471 113.813 26.1091 113.616 26.4331C113.419 26.755 113.319 27.2501 113.317 27.9181C113.315 28.3709 113.358 28.7462 113.447 29.044C113.538 29.3419 113.664 29.5642 113.827 29.7111C113.99 29.856 114.178 29.9284 114.392 29.9284ZM120.89 24.8182V31H119.399V26.2127H119.363L117.98 27.0579V25.766L119.504 24.8182H120.89ZM124.983 31.1509C124.444 31.1509 123.979 31.0231 123.589 30.7676C123.198 30.51 122.897 30.1407 122.686 29.6598C122.475 29.1768 122.37 28.5963 122.372 27.9181C122.374 27.24 122.48 26.6645 122.689 26.1916C122.9 25.7167 123.2 25.3555 123.589 25.108C123.979 24.8584 124.444 24.7337 124.983 24.7337C125.522 24.7337 125.987 24.8584 126.378 25.108C126.77 25.3555 127.072 25.7167 127.283 26.1916C127.495 26.6665 127.599 27.242 127.597 27.9181C127.597 28.5983 127.492 29.1799 127.28 29.6628C127.069 30.1458 126.768 30.515 126.378 30.7706C125.989 31.0241 125.525 31.1509 124.983 31.1509ZM124.983 29.9284C125.305 29.9284 125.566 29.7644 125.765 29.4364C125.964 29.1064 126.063 28.6003 126.061 27.9181C126.061 27.4714 126.016 27.1032 125.925 26.8134C125.834 26.5216 125.709 26.3043 125.548 26.1614C125.387 26.0185 125.199 25.9471 124.983 25.9471C124.663 25.9471 124.405 26.1091 124.207 26.4331C124.01 26.755 123.911 27.2501 123.909 27.9181C123.907 28.3709 123.95 28.7462 124.038 29.044C124.129 29.3419 124.256 29.5642 124.419 29.7111C124.582 29.856 124.77 29.9284 124.983 29.9284ZM131.481 24.8182V31H129.99V26.2127H129.954L128.572 27.0579V25.766L130.096 24.8182H131.481ZM149.548 31.1509C149.009 31.1509 148.544 31.0231 148.153 30.7676C147.763 30.51 147.462 30.1407 147.251 29.6598C147.04 29.1768 146.935 28.5963 146.937 27.9181C146.939 27.24 147.045 26.6645 147.254 26.1916C147.465 25.7167 147.765 25.3555 148.153 25.108C148.544 24.8584 149.009 24.7337 149.548 24.7337C150.087 24.7337 150.552 24.8584 150.942 25.108C151.335 25.3555 151.637 25.7167 151.848 26.1916C152.059 26.6665 152.164 27.242 152.162 27.9181C152.162 28.5983 152.056 29.1799 151.845 29.6628C151.634 30.1458 151.333 30.515 150.942 30.7706C150.554 31.0241 150.089 31.1509 149.548 31.1509ZM149.548 29.9284C149.87 29.9284 150.13 29.7644 150.33 29.4364C150.529 29.1064 150.627 28.6003 150.625 27.9181C150.625 27.4714 150.58 27.1032 150.49 26.8134C150.399 26.5216 150.273 26.3043 150.112 26.1614C149.951 26.0185 149.763 25.9471 149.548 25.9471C149.228 25.9471 148.969 26.1091 148.772 26.4331C148.575 26.755 148.475 27.2501 148.473 27.9181C148.471 28.3709 148.515 28.7462 148.603 29.044C148.694 29.3419 148.82 29.5642 148.983 29.7111C149.146 29.856 149.335 29.9284 149.548 29.9284ZM156.046 24.8182V31H154.555V26.2127H154.519L153.136 27.0579V25.766L154.661 24.8182H156.046ZM87.0124 46.1509C86.4731 46.1509 86.0083 46.0231 85.6179 45.7676C85.2275 45.51 84.9267 45.1407 84.7154 44.6598C84.5041 44.1768 84.3994 43.5963 84.4015 42.9181C84.4035 42.24 84.5091 41.6645 84.7184 41.1916C84.9297 40.7167 85.2295 40.3555 85.6179 40.108C86.0083 39.8584 86.4731 39.7337 87.0124 39.7337C87.5517 39.7337 88.0166 39.8584 88.407 40.108C88.7994 40.3555 89.1012 40.7167 89.3125 41.1916C89.5238 41.6665 89.6284 42.242 89.6264 42.9181C89.6264 43.5983 89.5208 44.1799 89.3095 44.6628C89.0982 45.1458 88.7973 45.515 88.407 45.7706C88.0186 46.0241 87.5537 46.1509 87.0124 46.1509ZM87.0124 44.9284C87.3344 44.9284 87.595 44.7644 87.7942 44.4364C87.9934 44.1064 88.092 43.6003 88.09 42.9181C88.09 42.4714 88.0447 42.1032 87.9542 41.8134C87.8636 41.5216 87.7379 41.3043 87.5769 41.1614C87.4159 41.0185 87.2277 40.9471 87.0124 40.9471C86.6925 40.9471 86.4339 41.1091 86.2367 41.4331C86.0395 41.755 85.9399 42.2501 85.9379 42.9181C85.9358 43.3709 85.9791 43.7462 86.0676 44.044C86.1582 44.3419 86.285 44.5642 86.448 44.7111C86.611 44.856 86.7991 44.9284 87.0124 44.9284ZM103.19 46.1509C102.65 46.1509 102.186 46.0231 101.795 45.7676C101.405 45.51 101.104 45.1407 100.893 44.6598C100.681 44.1768 100.577 43.5963 100.579 42.9181C100.581 42.24 100.686 41.6645 100.896 41.1916C101.107 40.7167 101.407 40.3555 101.795 40.108C102.186 39.8584 102.65 39.7337 103.19 39.7337C103.729 39.7337 104.194 39.8584 104.584 40.108C104.977 40.3555 105.278 40.7167 105.49 41.1916C105.701 41.6665 105.806 42.242 105.804 42.9181C105.804 43.5983 105.698 44.1799 105.487 44.6628C105.275 45.1458 104.975 45.515 104.584 45.7706C104.196 46.0241 103.731 46.1509 103.19 46.1509ZM103.19 44.9284C103.512 44.9284 103.772 44.7644 103.971 44.4364C104.171 44.1064 104.269 43.6003 104.267 42.9181C104.267 42.4714 104.222 42.1032 104.131 41.8134C104.041 41.5216 103.915 41.3043 103.754 41.1614C103.593 41.0185 103.405 40.9471 103.19 40.9471C102.87 40.9471 102.611 41.1091 102.414 41.4331C102.217 41.755 102.117 42.2501 102.115 42.9181C102.113 43.3709 102.156 43.7462 102.245 44.044C102.335 44.3419 102.462 44.5642 102.625 44.7111C102.788 44.856 102.976 44.9284 103.19 44.9284ZM109.386 46.1509C108.847 46.1509 108.382 46.0231 107.991 45.7676C107.601 45.51 107.3 45.1407 107.089 44.6598C106.878 44.1768 106.773 43.5963 106.775 42.9181C106.777 42.24 106.883 41.6645 107.092 41.1916C107.303 40.7167 107.603 40.3555 107.991 40.108C108.382 39.8584 108.847 39.7337 109.386 39.7337C109.925 39.7337 110.39 39.8584 110.781 40.108C111.173 40.3555 111.475 40.7167 111.686 41.1916C111.897 41.6665 112.002 42.242 112 42.9181C112 43.5983 111.894 44.1799 111.683 44.6628C111.472 45.1458 111.171 45.515 110.781 45.7706C110.392 46.0241 109.927 46.1509 109.386 46.1509ZM109.386 44.9284C109.708 44.9284 109.969 44.7644 110.168 44.4364C110.367 44.1064 110.466 43.6003 110.464 42.9181C110.464 42.4714 110.418 42.1032 110.328 41.8134C110.237 41.5216 110.111 41.3043 109.95 41.1614C109.789 41.0185 109.601 40.9471 109.386 40.9471C109.066 40.9471 108.807 41.1091 108.61 41.4331C108.413 41.755 108.313 42.2501 108.311 42.9181C108.309 43.3709 108.353 43.7462 108.441 44.044C108.532 44.3419 108.659 44.5642 108.822 44.7111C108.985 44.856 109.173 44.9284 109.386 44.9284ZM115.884 39.8182V46H114.393V41.2127H114.357L112.974 42.0579V40.766L114.499 39.8182H115.884ZM120.279 39.8182V46H118.788V41.2127H118.752L117.37 42.0579V40.766L118.894 39.8182H120.279ZM132.659 39.8182V46H131.168V41.2127H131.132L129.749 42.0579V40.766L131.274 39.8182H132.659ZM136.752 46.1509C136.213 46.1509 135.748 46.0231 135.358 45.7676C134.967 45.51 134.667 45.1407 134.455 44.6598C134.244 44.1768 134.139 43.5963 134.141 42.9181C134.143 42.24 134.249 41.6645 134.458 41.1916C134.67 40.7167 134.969 40.3555 135.358 40.108C135.748 39.8584 136.213 39.7337 136.752 39.7337C137.292 39.7337 137.757 39.8584 138.147 40.108C138.539 40.3555 138.841 40.7167 139.052 41.1916C139.264 41.6665 139.368 42.242 139.366 42.9181C139.366 43.5983 139.261 44.1799 139.049 44.6628C138.838 45.1458 138.537 45.515 138.147 45.7706C137.759 46.0241 137.294 46.1509 136.752 46.1509ZM136.752 44.9284C137.074 44.9284 137.335 44.7644 137.534 44.4364C137.733 44.1064 137.832 43.6003 137.83 42.9181C137.83 42.4714 137.785 42.1032 137.694 41.8134C137.604 41.5216 137.478 41.3043 137.317 41.1614C137.156 41.0185 136.968 40.9471 136.752 40.9471C136.432 40.9471 136.174 41.1091 135.977 41.4331C135.779 41.755 135.68 42.2501 135.678 42.9181C135.676 43.3709 135.719 43.7462 135.808 44.044C135.898 44.3419 136.025 44.5642 136.188 44.7111C136.351 44.856 136.539 44.9284 136.752 44.9284ZM149.239 39.8182V46H147.748V41.2127H147.712L146.329 42.0579V40.766L147.854 39.8182H149.239ZM153.332 46.1509C152.793 46.1509 152.328 46.0231 151.938 45.7676C151.547 45.51 151.247 45.1407 151.035 44.6598C150.824 44.1768 150.719 43.5963 150.721 42.9181C150.723 42.24 150.829 41.6645 151.038 41.1916C151.25 40.7167 151.549 40.3555 151.938 40.108C152.328 39.8584 152.793 39.7337 153.332 39.7337C153.872 39.7337 154.336 39.8584 154.727 40.108C155.119 40.3555 155.421 40.7167 155.632 41.1916C155.844 41.6665 155.948 42.242 155.946 42.9181C155.946 43.5983 155.841 44.1799 155.629 44.6628C155.418 45.1458 155.117 45.515 154.727 45.7706C154.339 46.0241 153.874 46.1509 153.332 46.1509ZM153.332 44.9284C153.654 44.9284 153.915 44.7644 154.114 44.4364C154.313 44.1064 154.412 43.6003 154.41 42.9181C154.41 42.4714 154.365 42.1032 154.274 41.8134C154.184 41.5216 154.058 41.3043 153.897 41.1614C153.736 41.0185 153.548 40.9471 153.332 40.9471C153.012 40.9471 152.754 41.1091 152.557 41.4331C152.359 41.755 152.26 42.2501 152.258 42.9181C152.256 43.3709 152.299 43.7462 152.388 44.044C152.478 44.3419 152.605 44.5642 152.768 44.7111C152.931 44.856 153.119 44.9284 153.332 44.9284ZM87.0124 61.1509C86.4731 61.1509 86.0083 61.0231 85.6179 60.7676C85.2275 60.51 84.9267 60.1407 84.7154 59.6598C84.5041 59.1768 84.3994 58.5963 84.4015 57.9181C84.4035 57.24 84.5091 56.6645 84.7184 56.1916C84.9297 55.7167 85.2295 55.3555 85.6179 55.108C86.0083 54.8584 86.4731 54.7337 87.0124 54.7337C87.5517 54.7337 88.0166 54.8584 88.407 55.108C88.7994 55.3555 89.1012 55.7167 89.3125 56.1916C89.5238 56.6665 89.6284 57.242 89.6264 57.9181C89.6264 58.5983 89.5208 59.1799 89.3095 59.6628C89.0982 60.1458 88.7973 60.515 88.407 60.7706C88.0186 61.0241 87.5537 61.1509 87.0124 61.1509ZM87.0124 59.9284C87.3344 59.9284 87.595 59.7644 87.7942 59.4364C87.9934 59.1064 88.092 58.6003 88.09 57.9181C88.09 57.4714 88.0447 57.1032 87.9542 56.8134C87.8636 56.5216 87.7379 56.3043 87.5769 56.1614C87.4159 56.0185 87.2277 55.9471 87.0124 55.9471C86.6925 55.9471 86.4339 56.1091 86.2367 56.4331C86.0395 56.755 85.9399 57.2501 85.9379 57.9181C85.9358 58.3709 85.9791 58.7462 86.0676 59.044C86.1582 59.3419 86.285 59.5642 86.448 59.7111C86.611 59.856 86.7991 59.9284 87.0124 59.9284ZM93.5106 54.8182V61H92.0195V56.2127H91.9833L90.6008 57.0579V55.766L92.1252 54.8182H93.5106ZM97.9057 54.8182V61H96.4146V56.2127H96.3784L94.9959 57.0579V55.766L96.5203 54.8182H97.9057ZM101.999 61.1509C101.46 61.1509 100.995 61.0231 100.604 60.7676C100.214 60.51 99.9132 60.1407 99.7019 59.6598C99.4906 59.1768 99.386 58.5963 99.388 57.9181C99.39 57.24 99.4957 56.6645 99.705 56.1916C99.9163 55.7167 100.216 55.3555 100.604 55.108C100.995 54.8584 101.46 54.7337 101.999 54.7337C102.538 54.7337 103.003 54.8584 103.394 55.108C103.786 55.3555 104.088 55.7167 104.299 56.1916C104.51 56.6665 104.615 57.242 104.613 57.9181C104.613 58.5983 104.507 59.1799 104.296 59.6628C104.085 60.1458 103.784 60.515 103.394 60.7706C103.005 61.0241 102.54 61.1509 101.999 61.1509ZM101.999 59.9284C102.321 59.9284 102.582 59.7644 102.781 59.4364C102.98 59.1064 103.079 58.6003 103.077 57.9181C103.077 57.4714 103.031 57.1032 102.941 56.8134C102.85 56.5216 102.724 56.3043 102.563 56.1614C102.402 56.0185 102.214 55.9471 101.999 55.9471C101.679 55.9471 101.42 56.1091 101.223 56.4331C101.026 56.755 100.926 57.2501 100.924 57.9181C100.922 58.3709 100.966 58.7462 101.054 59.044C101.145 59.3419 101.272 59.5642 101.435 59.7111C101.598 59.856 101.786 59.9284 101.999 59.9284ZM108.195 61.1509C107.656 61.1509 107.191 61.0231 106.801 60.7676C106.41 60.51 106.11 60.1407 105.898 59.6598C105.687 59.1768 105.582 58.5963 105.584 57.9181C105.586 57.24 105.692 56.6645 105.901 56.1916C106.113 55.7167 106.412 55.3555 106.801 55.108C107.191 54.8584 107.656 54.7337 108.195 54.7337C108.735 54.7337 109.2 54.8584 109.59 55.108C109.982 55.3555 110.284 55.7167 110.495 56.1916C110.707 56.6665 110.811 57.242 110.809 57.9181C110.809 58.5983 110.704 59.1799 110.492 59.6628C110.281 60.1458 109.98 60.515 109.59 60.7706C109.202 61.0241 108.737 61.1509 108.195 61.1509ZM108.195 59.9284C108.517 59.9284 108.778 59.7644 108.977 59.4364C109.176 59.1064 109.275 58.6003 109.273 57.9181C109.273 57.4714 109.228 57.1032 109.137 56.8134C109.047 56.5216 108.921 56.3043 108.76 56.1614C108.599 56.0185 108.411 55.9471 108.195 55.9471C107.875 55.9471 107.617 56.1091 107.42 56.4331C107.222 56.755 107.123 57.2501 107.121 57.9181C107.119 58.3709 107.162 58.7462 107.251 59.044C107.341 59.3419 107.468 59.5642 107.631 59.7111C107.794 59.856 107.982 59.9284 108.195 59.9284ZM114.694 54.8182V61H113.202V56.2127H113.166L111.784 57.0579V55.766L113.308 54.8182H114.694ZM118.787 61.1509C118.248 61.1509 117.783 61.0231 117.392 60.7676C117.002 60.51 116.701 60.1407 116.49 59.6598C116.278 59.1768 116.174 58.5963 116.176 57.9181C116.178 57.24 116.284 56.6645 116.493 56.1916C116.704 55.7167 117.004 55.3555 117.392 55.108C117.783 54.8584 118.248 54.7337 118.787 54.7337C119.326 54.7337 119.791 54.8584 120.181 55.108C120.574 55.3555 120.876 55.7167 121.087 56.1916C121.298 56.6665 121.403 57.242 121.401 57.9181C121.401 58.5983 121.295 59.1799 121.084 59.6628C120.873 60.1458 120.572 60.515 120.181 60.7706C119.793 61.0241 119.328 61.1509 118.787 61.1509ZM118.787 59.9284C119.109 59.9284 119.369 59.7644 119.569 59.4364C119.768 59.1064 119.866 58.6003 119.864 57.9181C119.864 57.4714 119.819 57.1032 119.729 56.8134C119.638 56.5216 119.512 56.3043 119.351 56.1614C119.19 56.0185 119.002 55.9471 118.787 55.9471C118.467 55.9471 118.208 56.1091 118.011 56.4331C117.814 56.755 117.714 57.2501 117.712 57.9181C117.71 58.3709 117.754 58.7462 117.842 59.044C117.933 59.3419 118.059 59.5642 118.222 59.7111C118.385 59.856 118.574 59.9284 118.787 59.9284ZM125.285 54.8182V61H123.794V56.2127H123.758L122.375 57.0579V55.766L123.9 54.8182H125.285ZM143.653 54.8182V61H142.162V56.2127H142.126L140.744 57.0579V55.766L142.268 54.8182H143.653ZM147.747 61.1509C147.207 61.1509 146.742 61.0231 146.352 60.7676C145.962 60.51 145.661 60.1407 145.45 59.6598C145.238 59.1768 145.134 58.5963 145.136 57.9181C145.138 57.24 145.243 56.6645 145.453 56.1916C145.664 55.7167 145.964 55.3555 146.352 55.108C146.742 54.8584 147.207 54.7337 147.747 54.7337C148.286 54.7337 148.751 54.8584 149.141 55.108C149.534 55.3555 149.835 55.7167 150.047 56.1916C150.258 56.6665 150.363 57.242 150.361 57.9181C150.361 58.5983 150.255 59.1799 150.044 59.6628C149.832 60.1458 149.532 60.515 149.141 60.7706C148.753 61.0241 148.288 61.1509 147.747 61.1509ZM147.747 59.9284C148.069 59.9284 148.329 59.7644 148.528 59.4364C148.728 59.1064 148.826 58.6003 148.824 57.9181C148.824 57.4714 148.779 57.1032 148.688 56.8134C148.598 56.5216 148.472 56.3043 148.311 56.1614C148.15 56.0185 147.962 55.9471 147.747 55.9471C147.427 55.9471 147.168 56.1091 146.971 56.4331C146.774 56.755 146.674 57.2501 146.672 57.9181C146.67 58.3709 146.713 58.7462 146.802 59.044C146.892 59.3419 147.019 59.5642 147.182 59.7111C147.345 59.856 147.533 59.9284 147.747 59.9284ZM153.943 61.1509C153.404 61.1509 152.939 61.0231 152.548 60.7676C152.158 60.51 151.857 60.1407 151.646 59.6598C151.435 59.1768 151.33 58.5963 151.332 57.9181C151.334 57.24 151.44 56.6645 151.649 56.1916C151.86 55.7167 152.16 55.3555 152.548 55.108C152.939 54.8584 153.404 54.7337 153.943 54.7337C154.482 54.7337 154.947 54.8584 155.337 55.108C155.73 55.3555 156.032 55.7167 156.243 56.1916C156.454 56.6665 156.559 57.242 156.557 57.9181C156.557 58.5983 156.451 59.1799 156.24 59.6628C156.029 60.1458 155.728 60.515 155.337 60.7706C154.949 61.0241 154.484 61.1509 153.943 61.1509ZM153.943 59.9284C154.265 59.9284 154.526 59.7644 154.725 59.4364C154.924 59.1064 155.023 58.6003 155.021 57.9181C155.021 57.4714 154.975 57.1032 154.885 56.8134C154.794 56.5216 154.668 56.3043 154.507 56.1614C154.346 56.0185 154.158 55.9471 153.943 55.9471C153.623 55.9471 153.364 56.1091 153.167 56.4331C152.97 56.755 152.87 57.2501 152.868 57.9181C152.866 58.3709 152.91 58.7462 152.998 59.044C153.089 59.3419 153.216 59.5642 153.379 59.7111C153.541 59.856 153.73 59.9284 153.943 59.9284Z" fill="#251B4D"/>
<rect x="115" y="110" width="48" height="6" rx="3" fill="#920FFF" fill-opacity="0.25"/>
<rect x="115" y="124" width="71" height="6" rx="3" fill="#920FFF" fill-opacity="0.25"/>
<line x1="249.25" y1="269" x2="249.25" y2="276" stroke="white" stroke-width="0.5"/>
<path d="M21.5 15L23.5257 20.8393L29 23L23.5257 25.1607L21.5 31L19.4743 25.1607L14 23L19.4743 20.8393L21.5 15Z" fill="#B429FF"/>
<path d="M222 38L223.621 42.3795L228 44L223.621 45.6205L222 50L220.379 45.6205L216 44L220.379 42.3795L222 38Z" fill="#B429FF"/>
<path d="M82.5 181.171L84.2556 185.916L89 187.671L84.2556 189.427L82.5 194.171L80.7444 189.427L76 187.671L80.7444 185.916L82.5 181.171Z" fill="#7D00FF"/>
<defs>
<linearGradient id="paint0_linear_2432_3299" x1="121.5" y1="46" x2="121.5" y2="150" gradientUnits="userSpaceOnUse">
<stop stop-color="#BD30FF"/>
<stop offset="1" stop-color="#7D00FF"/>
</linearGradient>
<linearGradient id="paint1_linear_2432_3299" x1="228" y1="166.171" x2="339.289" y2="300.588" gradientUnits="userSpaceOnUse">
<stop stop-color="#516067"/>
<stop offset="1" stop-color="#484F5A" stop-opacity="0.44"/>
</linearGradient>
<linearGradient id="paint2_linear_2432_3299" x1="340.5" y1="241" x2="340.5" y2="272" gradientUnits="userSpaceOnUse">
<stop stop-color="#BD30FF"/>
<stop offset="1" stop-color="#7D00FF"/>
</linearGradient>
<linearGradient id="paint3_linear_2432_3299" x1="121.5" y1="69" x2="121.5" y2="82.75" gradientUnits="userSpaceOnUse">
<stop stop-color="#AD24FF"/>
<stop offset="1" stop-color="#AA22FF"/>
</linearGradient>
</defs>
</svg>
