<svg width="59" height="59" viewBox="0 0 59 59" fill="none" xmlns="http://www.w3.org/2000/svg">
<path fill-rule="evenodd" clip-rule="evenodd" d="M29.5 55.8468C44.0509 55.8468 55.8468 44.0509 55.8468 29.5C55.8468 14.9491 44.0509 3.15324 29.5 3.15324C14.9491 3.15324 3.15324 14.9491 3.15324 29.5C3.15324 44.0509 14.9491 55.8468 29.5 55.8468ZM59 29.5C59 45.7924 45.7924 59 29.5 59C13.2076 59 0 45.7924 0 29.5C0 13.2076 13.2076 0 29.5 0C45.7924 0 59 13.2076 59 29.5Z" fill="white"/>
<path d="M48.9973 19H36.3324V23.1667H48.9973V19ZM27.8892 23.1667H23.6676V27.3333H27.8892V23.1667ZM23.6676 44H27.8892V31.5H23.6676V44ZM32.1107 23.1667V27.3333H36.3324V23.1667H32.1107ZM32.1107 44H36.3324V31.5H32.1107V44ZM32.1107 19H27.8892V23.1667H32.1107V19ZM11 19V23.1667H23.6676V19H11ZM49 31.5V27.3333H36.3324V31.5H49ZM27.892 27.3333V31.5H32.1107V27.3333H27.892ZM11.0028 27.3333V31.5H23.6704V27.3333H11.0028Z" fill="#FCF9FF"/>
</svg>
