<svg width="633" height="233" viewBox="0 0 633 233" fill="none" xmlns="http://www.w3.org/2000/svg">
<rect x="537.145" y="33.5458" width="28.1619" height="27.7477" rx="12" fill="white" fill-opacity="0.04"/>
<rect x="503.601" y="0.414154" width="28.576" height="28.1619" rx="12" fill="white" fill-opacity="0.04"/>
<rect x="537.145" width="28.576" height="28.1619" rx="12" fill="white" fill-opacity="0.04"/>
<rect x="503.601" y="33.5458" width="28.576" height="27.7477" rx="12" fill="white" fill-opacity="0.04"/>
<rect x="570.692" y="0.414154" width="28.1619" height="28.1619" rx="12" fill="white" fill-opacity="0.04"/>
<rect x="570.692" y="33.5458" width="28.1619" height="27.7477" rx="12" fill="white" fill-opacity="0.04"/>
<rect x="604.237" y="0.414154" width="28.1619" height="28.1619" rx="12" fill="white" fill-opacity="0.04"/>
<rect x="604.237" y="33.5458" width="28.1619" height="27.7477" rx="12" fill="white" fill-opacity="0.04"/>
<rect x="402.549" y="0.414154" width="28.576" height="28.1619" rx="12" fill="white" fill-opacity="0.04"/>
<rect x="436.924" y="0.414154" width="27.7477" height="28.1619" rx="12" fill="white" fill-opacity="0.04"/>
<rect x="470.054" y="0.414154" width="27.7477" height="28.1619" rx="12" fill="white" fill-opacity="0.04"/>
<rect x="402.549" y="33.9598" width="28.1619" height="28.576" rx="12" fill="white" fill-opacity="0.04"/>
<rect x="402.549" y="66.6774" width="28.1619" height="28.576" rx="12" fill="white" fill-opacity="0.04"/>
<rect x="369.004" y="33.9598" width="28.576" height="28.576" rx="12" fill="white" fill-opacity="0.04"/>
<rect x="369.004" y="66.6774" width="28.576" height="28.576" rx="12" fill="white" fill-opacity="0.04"/>
<rect x="436.509" y="33.9598" width="28.1619" height="28.576" rx="12" fill="white" fill-opacity="0.04"/>
<rect x="436.509" y="66.6774" width="28.1619" height="28.576" rx="12" fill="white" fill-opacity="0.04"/>
<rect x="469.641" y="33.9598" width="28.1619" height="28.576" rx="12" fill="white" fill-opacity="0.04"/>
<rect x="469.641" y="66.6774" width="28.1619" height="28.576" rx="12" fill="white" fill-opacity="0.04"/>
<rect x="268.366" y="33.9598" width="27.7477" height="28.576" rx="12" fill="white" fill-opacity="0.04"/>
<rect x="301.911" y="33.9598" width="28.576" height="28.576" rx="12" fill="white" fill-opacity="0.04"/>
<rect x="335.456" y="33.9598" width="27.7477" height="28.576" rx="12" fill="white" fill-opacity="0.04"/>
<rect x="269.196" y="69.9906" width="28.1619" height="28.1619" rx="12" fill="white" fill-opacity="0.04"/>
<rect x="369.417" y="136.733" width="28.1619" height="28.1619" rx="12" fill="white" fill-opacity="0.04"/>
<rect x="269.196" y="103.122" width="28.1619" height="27.7477" rx="12" fill="white" fill-opacity="0.04"/>
<rect x="369.417" y="170.214" width="28.1619" height="28.1619" rx="12" fill="white" fill-opacity="0.04"/>
<rect x="235.648" y="69.9906" width="28.576" height="28.1619" rx="12" fill="white" fill-opacity="0.04"/>
<rect x="335.872" y="137.496" width="28.1619" height="28.1619" rx="12" fill="white" fill-opacity="0.04"/>
<rect x="235.648" y="103.122" width="28.576" height="27.7477" rx="12" fill="white" fill-opacity="0.04"/>
<rect x="335.872" y="170.214" width="28.1619" height="28.1619" rx="12" fill="white" fill-opacity="0.04"/>
<rect x="302.74" y="69.9906" width="28.576" height="28.1619" rx="12" fill="white" fill-opacity="0.04"/>
<rect x="402.965" y="137.496" width="28.576" height="28.1619" rx="12" fill="white" fill-opacity="0.04"/>
<rect x="302.74" y="103.122" width="28.576" height="27.7477" rx="12" fill="white" fill-opacity="0.04"/>
<rect x="402.965" y="170.214" width="28.576" height="28.1619" rx="12" fill="white" fill-opacity="0.04"/>
<rect x="336.285" y="69.9906" width="27.7477" height="28.1619" rx="12" fill="white" fill-opacity="0.04"/>
<rect x="436.924" y="137.496" width="27.7477" height="28.1619" rx="12" fill="white" fill-opacity="0.04"/>
<rect x="336.285" y="103.122" width="27.7477" height="27.7477" rx="12" fill="white" fill-opacity="0.04"/>
<rect x="436.924" y="170.214" width="27.7477" height="28.1619" rx="12" fill="white" fill-opacity="0.04"/>
<rect x="134.597" y="69.9906" width="28.1619" height="28.1619" rx="12" fill="white" fill-opacity="0.04"/>
<rect x="234.82" y="137.496" width="28.1619" height="28.1619" rx="12" fill="white" fill-opacity="0.04"/>
<rect x="168.557" y="69.9906" width="28.1619" height="28.1619" rx="12" fill="white" fill-opacity="0.04"/>
<rect x="268.781" y="137.496" width="28.1619" height="28.1619" rx="12" fill="white" fill-opacity="0.04"/>
<rect x="202.104" y="69.9906" width="27.7477" height="28.1619" rx="12" fill="white" fill-opacity="0.04"/>
<rect x="302.326" y="137.496" width="27.7477" height="28.1619" rx="12" fill="white" fill-opacity="0.04"/>
<rect x="134.597" y="103.536" width="27.7477" height="28.576" rx="12" fill="white" fill-opacity="0.04"/>
<rect x="234.82" y="171.042" width="28.1619" height="28.1619" rx="12" fill="white" fill-opacity="0.04"/>
<rect x="134.597" y="136.254" width="27.7477" height="28.576" rx="12" fill="white" fill-opacity="0.04"/>
<rect x="234.82" y="203.759" width="28.1619" height="28.576" rx="12" fill="white" fill-opacity="0.04"/>
<rect x="101.052" y="103.536" width="28.576" height="28.576" rx="12" fill="white" fill-opacity="0.04"/>
<rect x="201.688" y="171.042" width="28.1619" height="28.1619" rx="12" fill="white" fill-opacity="0.04"/>
<rect x="101.052" y="136.254" width="28.576" height="28.576" rx="12" fill="white" fill-opacity="0.04"/>
<rect x="201.688" y="203.759" width="28.1619" height="28.576" rx="12" fill="white" fill-opacity="0.04"/>
<rect x="168.143" y="103.536" width="28.576" height="28.576" rx="12" fill="white" fill-opacity="0.04"/>
<rect x="268.781" y="171.042" width="28.1619" height="28.1619" rx="12" fill="white" fill-opacity="0.04"/>
<rect x="168.143" y="136.254" width="28.576" height="28.576" rx="12" fill="white" fill-opacity="0.04"/>
<rect x="268.781" y="203.759" width="28.1619" height="28.576" rx="12" fill="white" fill-opacity="0.04"/>
<rect x="202.104" y="103.536" width="27.7477" height="28.576" rx="12" fill="white" fill-opacity="0.04"/>
<rect x="301.911" y="171.042" width="28.1619" height="28.1619" rx="12" fill="white" fill-opacity="0.04"/>
<rect x="202.104" y="136.254" width="27.7477" height="28.576" rx="12" fill="white" fill-opacity="0.04"/>
<rect x="301.911" y="203.759" width="28.1619" height="28.576" rx="12" fill="white" fill-opacity="0.04"/>
<rect y="103.536" width="28.1619" height="28.576" rx="12" fill="white" fill-opacity="0.04"/>
<rect x="100.637" y="171.042" width="28.1619" height="28.1619" rx="12" fill="white" fill-opacity="0.04"/>
<rect x="33.96" y="103.536" width="28.576" height="28.576" rx="12" fill="white" fill-opacity="0.04"/>
<rect x="134.184" y="171.042" width="28.576" height="28.1619" rx="12" fill="white" fill-opacity="0.04"/>
<rect x="67.0918" y="103.536" width="28.1619" height="28.576" rx="12" fill="white" fill-opacity="0.04"/>
<rect x="167.314" y="171.042" width="28.576" height="28.1619" rx="12" fill="white" fill-opacity="0.04"/>
</svg>
