<svg width="60" height="59" viewBox="0 0 60 59" fill="none" xmlns="http://www.w3.org/2000/svg">
<path fill-rule="evenodd" clip-rule="evenodd" d="M30 55.8468C44.7975 55.8468 56.7933 44.0509 56.7933 29.5C56.7933 14.9491 44.7975 3.15324 30 3.15324C15.2025 3.15324 3.20668 14.9491 3.20668 29.5C3.20668 44.0509 15.2025 55.8468 30 55.8468ZM60 29.5C60 45.7924 46.5685 59 30 59C13.4315 59 0 45.7924 0 29.5C0 13.2076 13.4315 0 30 0C46.5685 0 60 13.2076 60 29.5Z" fill="white"/>
<path d="M25.0265 27.0285H20.003V31.9682H25.0265V27.0285Z" fill="white"/>
<path d="M20.003 22.0888H14.9796V27.0285L20.003 27.0285L20.003 22.0888Z" fill="white"/>
<path d="M14.9787 27.0285H9.95531V31.9682H14.9787V27.0285Z" fill="white"/>
<path d="M20.003 31.9682L14.9796 31.968V36.9077H20.003L20.003 31.9682Z" fill="white"/>
<path d="M48.5587 23.1527C48.2045 19.5198 45.0159 18.3003 40.9884 17.952V15.6249H37.8701V17.8192C37.0507 17.8192 36.2128 17.8347 35.3796 17.8502V15.6231H32.2631V17.9493C31.588 17.962 27.4403 17.9584 27.4403 17.9584L27.4311 20.6619L30.0334 20.6765V38.3956H27.432L27.4089 41.0609C28.1644 41.0609 31.527 41.0755 32.2557 41.08V43.3771H35.3722V41.1346C36.2267 41.1528 37.0553 41.1601 37.8636 41.1591V43.378H40.9829V41.0909C46.2273 40.7972 49.8997 39.4995 50.3556 34.6581C50.7255 30.7587 48.8611 29.02 45.8842 28.3125C47.6931 27.4031 48.8241 25.8108 48.5606 23.1518L48.5587 23.1527ZM44.1891 34.0497C44.1891 37.859 37.5575 37.4235 35.4416 37.4244V30.6714C37.5566 30.6714 44.1854 30.0776 44.1863 34.0497H44.1891ZM42.7418 24.5213C42.7418 27.9869 37.2079 27.5804 35.4462 27.5804V21.4549C37.2107 21.4558 42.7437 20.9066 42.7418 24.5213Z" fill="white"/>
</svg>
