<svg width="24" height="24" viewBox="0 0 24 24" fill="none" xmlns="http://www.w3.org/2000/svg">
<path d="M12 23C18.0751 23 23 18.0751 23 12C23 5.92487 18.0751 1 12 1C5.92487 1 1 5.92487 1 12C1 18.0751 5.92487 23 12 23Z" fill="black"/>
<path d="M10.1766 11.0781H8.33472V12.92H10.1766V11.0781Z" fill="white"/>
<path d="M8.33436 9.23633H6.49243V11.0782H8.33436V9.23633Z" fill="white"/>
<path d="M6.49257 11.0781H4.65063V12.92H6.49257V11.0781Z" fill="white"/>
<path d="M8.33436 12.9199H6.49243V14.7618H8.33436V12.9199Z" fill="white"/>
<path d="M18.8049 9.63284C18.675 8.27819 17.5059 7.82347 16.0292 7.6936V6.82587H14.8858V7.64409C14.5853 7.64409 14.2781 7.64986 13.9726 7.65562V6.8252H12.8299V7.69258C12.5824 7.69733 11.0616 7.69597 11.0616 7.69597L11.0582 8.70408L12.0124 8.7095V15.3166H11.0585L11.05 16.3105C11.3271 16.3105 12.56 16.3159 12.8272 16.3176V17.1741H13.9699V16.338C14.2832 16.3447 14.587 16.3475 14.8834 16.3471V17.1745H16.0271V16.3217C17.9501 16.2122 19.2966 15.7283 19.4638 13.923C19.5994 12.469 18.9158 11.8206 17.8243 11.5568C18.4875 11.2177 18.9022 10.624 18.8056 9.6325L18.8049 9.63284ZM17.2027 13.6961C17.2027 15.1166 14.7712 14.9541 13.9953 14.9545V12.4364C14.7708 12.4364 17.2014 12.215 17.2017 13.6961H17.2027ZM16.6721 10.1432C16.6721 11.4354 14.643 11.2839 13.997 11.2839V8.99976C14.644 9.0001 16.6727 8.79529 16.6721 10.1432Z" fill="white"/>
</svg>
