<svg width="351" height="321" viewBox="0 0 351 321" fill="none" xmlns="http://www.w3.org/2000/svg">
<path d="M51 27H324V300H51V27Z" fill="url(#paint0_radial_1173_392)" fill-opacity="0.75"/>
<rect x="2.17836" y="-8.9407e-08" width="230.432" height="230.432" rx="8.5" transform="matrix(0.726121 -0.687566 0.726121 0.687566 0.596607 161.998)" stroke="url(#paint1_linear_1173_392)" stroke-width="3"/>
<rect x="2.17836" y="-8.9407e-08" width="150.513" height="150.513" rx="8.5" transform="matrix(0.726121 -0.687566 0.726121 0.687566 59.1132 162.457)" stroke="url(#paint2_linear_1173_392)" stroke-width="3"/>
<path d="M77.7301 1L79.5478 5.91233L84.4601 7.73006L79.5478 9.54779L77.7301 14.4601L75.9123 9.54779L71 7.73006L75.9123 5.91233L77.7301 1Z" fill="#8B16FF"/>
<path d="M346.142 69L347.26 72.023L350.283 73.1416L347.26 74.2602L346.142 77.2831L345.023 74.2602L342 73.1416L345.023 72.023L346.142 69Z" fill="#8B16FF"/>
<path d="M109.271 308.144L110.809 312.678L114.965 314.356L110.809 316.034L109.271 320.569L107.733 316.034L103.576 314.356L107.733 312.678L109.271 308.144Z" fill="#8B16FF"/>
<g filter="url(#filter0_d_1173_392)">
<path d="M21 38.3027C21 33.8845 24.5817 30.3027 29 30.3027H321C325.418 30.3027 329 33.8845 329 38.3027V288.303C329 292.721 325.418 296.303 321 296.303H29C24.5817 296.303 21 292.721 21 288.303V38.3027Z" fill="#323A47" fill-opacity="0.85" shape-rendering="crispEdges"/>
<path d="M29 30.8027H321C325.142 30.8027 328.5 34.1606 328.5 38.3027V288.303C328.5 292.445 325.142 295.803 321 295.803H29C24.8579 295.803 21.5 292.445 21.5 288.303V38.3027C21.5 34.1606 24.8579 30.8027 29 30.8027Z" stroke="url(#paint3_linear_1173_392)" shape-rendering="crispEdges"/>
</g>
<path d="M21.5 71.8027H328.5V289.303C328.5 293.445 325.142 296.803 321 296.803H29C24.8579 296.803 21.5 293.445 21.5 289.303V71.8027Z" fill="#454F5F" fill-opacity="0.5" stroke="url(#paint4_linear_1173_392)"/>
<path d="M54 102.303H328V283.303C328 289.93 322.627 295.303 316 295.303H54V102.303Z" fill="#323A47" fill-opacity="0.75"/>
<path d="M110.453 133.424C110.073 133.424 109.73 133.356 109.426 133.221C109.124 133.083 108.884 132.88 108.707 132.611C108.533 132.343 108.445 132.012 108.445 131.619C108.445 131.281 108.508 131.001 108.633 130.779C108.758 130.558 108.928 130.381 109.145 130.248C109.361 130.115 109.604 130.015 109.875 129.947C110.148 129.877 110.431 129.826 110.723 129.795C111.074 129.758 111.359 129.726 111.578 129.697C111.797 129.666 111.956 129.619 112.055 129.557C112.156 129.492 112.207 129.391 112.207 129.256V129.232C112.207 128.938 112.12 128.71 111.945 128.549C111.771 128.387 111.52 128.307 111.191 128.307C110.845 128.307 110.57 128.382 110.367 128.533C110.167 128.684 110.031 128.863 109.961 129.068L108.641 128.881C108.745 128.516 108.917 128.212 109.156 127.967C109.396 127.719 109.689 127.535 110.035 127.412C110.382 127.287 110.764 127.225 111.184 127.225C111.473 127.225 111.76 127.258 112.047 127.326C112.333 127.394 112.595 127.506 112.832 127.662C113.069 127.816 113.259 128.025 113.402 128.291C113.548 128.557 113.621 128.889 113.621 129.287V133.303H112.262V132.479H112.215C112.129 132.645 112.008 132.801 111.852 132.947C111.698 133.09 111.504 133.206 111.27 133.295C111.038 133.381 110.766 133.424 110.453 133.424ZM110.82 132.385C111.104 132.385 111.35 132.329 111.559 132.217C111.767 132.102 111.927 131.951 112.039 131.764C112.154 131.576 112.211 131.372 112.211 131.15V130.443C112.167 130.48 112.091 130.514 111.984 130.545C111.88 130.576 111.763 130.604 111.633 130.627C111.503 130.65 111.374 130.671 111.246 130.689C111.118 130.708 111.008 130.723 110.914 130.736C110.703 130.765 110.514 130.812 110.348 130.877C110.181 130.942 110.049 131.033 109.953 131.15C109.857 131.265 109.809 131.413 109.809 131.596C109.809 131.856 109.904 132.053 110.094 132.186C110.284 132.318 110.526 132.385 110.82 132.385ZM116.281 133.303L114.586 127.303H116.027L117.082 131.521H117.137L118.215 127.303H119.641L120.719 131.498H120.777L121.816 127.303H123.262L121.563 133.303H120.09L118.965 129.248H118.883L117.758 133.303H116.281ZM125.976 133.424C125.595 133.424 125.253 133.356 124.948 133.221C124.646 133.083 124.407 132.88 124.229 132.611C124.055 132.343 123.968 132.012 123.968 131.619C123.968 131.281 124.03 131.001 124.155 130.779C124.28 130.558 124.451 130.381 124.667 130.248C124.883 130.115 125.127 130.015 125.397 129.947C125.671 129.877 125.953 129.826 126.245 129.795C126.597 129.758 126.882 129.726 127.101 129.697C127.319 129.666 127.478 129.619 127.577 129.557C127.679 129.492 127.729 129.391 127.729 129.256V129.232C127.729 128.938 127.642 128.71 127.468 128.549C127.293 128.387 127.042 128.307 126.714 128.307C126.368 128.307 126.093 128.382 125.89 128.533C125.689 128.684 125.554 128.863 125.483 129.068L124.163 128.881C124.267 128.516 124.439 128.212 124.679 127.967C124.918 127.719 125.211 127.535 125.558 127.412C125.904 127.287 126.287 127.225 126.706 127.225C126.995 127.225 127.283 127.258 127.569 127.326C127.856 127.394 128.118 127.506 128.354 127.662C128.591 127.816 128.782 128.025 128.925 128.291C129.071 128.557 129.144 128.889 129.144 129.287V133.303H127.784V132.479H127.737C127.651 132.645 127.53 132.801 127.374 132.947C127.22 133.09 127.026 133.206 126.792 133.295C126.56 133.381 126.288 133.424 125.976 133.424ZM126.343 132.385C126.627 132.385 126.873 132.329 127.081 132.217C127.289 132.102 127.45 131.951 127.562 131.764C127.676 131.576 127.733 131.372 127.733 131.15V130.443C127.689 130.48 127.614 130.514 127.507 130.545C127.403 130.576 127.285 130.604 127.155 130.627C127.025 130.65 126.896 130.671 126.769 130.689C126.641 130.708 126.53 130.723 126.437 130.736C126.226 130.765 126.037 130.812 125.87 130.877C125.703 130.942 125.572 131.033 125.476 131.15C125.379 131.265 125.331 131.413 125.331 131.596C125.331 131.856 125.426 132.053 125.616 132.186C125.806 132.318 126.049 132.385 126.343 132.385ZM130.565 133.303V127.303H131.979V133.303H130.565ZM131.276 126.451C131.052 126.451 130.86 126.377 130.698 126.229C130.537 126.077 130.456 125.896 130.456 125.686C130.456 125.472 130.537 125.291 130.698 125.143C130.86 124.992 131.052 124.916 131.276 124.916C131.503 124.916 131.696 124.992 131.854 125.143C132.016 125.291 132.097 125.472 132.097 125.686C132.097 125.896 132.016 126.077 131.854 126.229C131.696 126.377 131.503 126.451 131.276 126.451ZM136.43 127.303V128.396H132.98V127.303H136.43ZM133.832 125.865H135.246V131.498C135.246 131.688 135.275 131.834 135.332 131.936C135.392 132.035 135.47 132.102 135.566 132.139C135.663 132.175 135.77 132.193 135.887 132.193C135.975 132.193 136.056 132.187 136.129 132.174C136.204 132.161 136.262 132.149 136.301 132.139L136.539 133.244C136.464 133.27 136.355 133.299 136.215 133.33C136.077 133.361 135.908 133.38 135.707 133.385C135.353 133.395 135.034 133.342 134.75 133.225C134.466 133.105 134.241 132.92 134.074 132.67C133.91 132.42 133.829 132.107 133.832 131.732V125.865Z" fill="#8A98AC"/>
<path d="M140.341 133.303V127.303H141.712V128.303H141.774C141.884 127.956 142.071 127.689 142.337 127.502C142.605 127.312 142.911 127.217 143.255 127.217C143.333 127.217 143.42 127.221 143.517 127.229C143.616 127.234 143.698 127.243 143.763 127.256V128.557C143.703 128.536 143.608 128.518 143.478 128.502C143.35 128.484 143.226 128.475 143.106 128.475C142.849 128.475 142.617 128.531 142.411 128.643C142.208 128.752 142.048 128.904 141.931 129.1C141.813 129.295 141.755 129.52 141.755 129.775V133.303H140.341ZM147.111 133.42C146.51 133.42 145.99 133.295 145.553 133.045C145.118 132.792 144.783 132.436 144.549 131.975C144.314 131.511 144.197 130.965 144.197 130.338C144.197 129.721 144.314 129.179 144.549 128.713C144.786 128.244 145.117 127.88 145.541 127.619C145.965 127.356 146.464 127.225 147.037 127.225C147.407 127.225 147.756 127.285 148.084 127.404C148.415 127.521 148.706 127.704 148.959 127.951C149.214 128.199 149.415 128.514 149.561 128.896C149.706 129.277 149.779 129.73 149.779 130.256V130.689H144.861V129.736H148.424C148.421 129.465 148.363 129.225 148.248 129.014C148.133 128.8 147.973 128.632 147.768 128.51C147.564 128.387 147.327 128.326 147.057 128.326C146.768 128.326 146.514 128.396 146.295 128.537C146.076 128.675 145.906 128.857 145.783 129.084C145.663 129.308 145.602 129.554 145.6 129.822V130.654C145.6 131.003 145.663 131.303 145.791 131.553C145.919 131.8 146.097 131.99 146.326 132.123C146.555 132.253 146.824 132.318 147.131 132.318C147.337 132.318 147.523 132.29 147.689 132.232C147.856 132.173 148.001 132.085 148.123 131.971C148.245 131.856 148.338 131.714 148.4 131.545L149.721 131.693C149.637 132.042 149.479 132.347 149.244 132.607C149.012 132.865 148.715 133.066 148.354 133.209C147.992 133.35 147.577 133.42 147.111 133.42ZM154.979 135.553V132.357H154.921C154.848 132.503 154.743 132.658 154.604 132.822C154.466 132.984 154.284 133.122 154.058 133.236C153.831 133.351 153.546 133.408 153.202 133.408C152.731 133.408 152.309 133.287 151.937 133.045C151.564 132.803 151.27 132.451 151.054 131.99C150.838 131.529 150.729 130.969 150.729 130.311C150.729 129.644 150.839 129.081 151.058 128.623C151.279 128.162 151.577 127.814 151.952 127.58C152.327 127.343 152.745 127.225 153.206 127.225C153.558 127.225 153.847 127.285 154.073 127.404C154.3 127.521 154.479 127.663 154.612 127.83C154.745 127.994 154.848 128.149 154.921 128.295H155.007V127.303H156.397V135.553H154.979ZM153.597 132.248C153.896 132.248 154.151 132.167 154.362 132.006C154.573 131.842 154.733 131.614 154.843 131.322C154.952 131.031 155.007 130.691 155.007 130.303C155.007 129.915 154.952 129.577 154.843 129.291C154.736 129.005 154.577 128.782 154.366 128.623C154.158 128.464 153.901 128.385 153.597 128.385C153.282 128.385 153.019 128.467 152.808 128.631C152.597 128.795 152.438 129.021 152.331 129.311C152.224 129.6 152.171 129.93 152.171 130.303C152.171 130.678 152.224 131.012 152.331 131.307C152.44 131.598 152.601 131.829 152.812 131.998C153.025 132.165 153.287 132.248 153.597 132.248ZM161.675 130.779V127.303H163.089V133.303H161.718V132.236H161.655C161.52 132.572 161.297 132.847 160.987 133.061C160.68 133.274 160.301 133.381 159.851 133.381C159.457 133.381 159.11 133.294 158.808 133.119C158.508 132.942 158.274 132.686 158.104 132.35C157.935 132.011 157.851 131.602 157.851 131.123V127.303H159.265V130.904C159.265 131.285 159.369 131.587 159.577 131.811C159.785 132.035 160.059 132.146 160.397 132.146C160.606 132.146 160.808 132.096 161.003 131.994C161.198 131.893 161.358 131.742 161.483 131.541C161.611 131.338 161.675 131.084 161.675 130.779ZM167.199 133.42C166.598 133.42 166.078 133.295 165.641 133.045C165.206 132.792 164.871 132.436 164.637 131.975C164.402 131.511 164.285 130.965 164.285 130.338C164.285 129.721 164.402 129.179 164.637 128.713C164.874 128.244 165.204 127.88 165.629 127.619C166.053 127.356 166.552 127.225 167.125 127.225C167.495 127.225 167.844 127.285 168.172 127.404C168.503 127.521 168.794 127.704 169.047 127.951C169.302 128.199 169.503 128.514 169.648 128.896C169.794 129.277 169.867 129.73 169.867 130.256V130.689H164.949V129.736H168.512C168.509 129.465 168.451 129.225 168.336 129.014C168.221 128.8 168.061 128.632 167.855 128.51C167.652 128.387 167.415 128.326 167.145 128.326C166.855 128.326 166.602 128.396 166.383 128.537C166.164 128.675 165.993 128.857 165.871 129.084C165.751 129.308 165.69 129.554 165.688 129.822V130.654C165.688 131.003 165.751 131.303 165.879 131.553C166.007 131.8 166.185 131.99 166.414 132.123C166.643 132.253 166.911 132.318 167.219 132.318C167.424 132.318 167.611 132.29 167.777 132.232C167.944 132.173 168.089 132.085 168.211 131.971C168.333 131.856 168.426 131.714 168.488 131.545L169.809 131.693C169.725 132.042 169.566 132.347 169.332 132.607C169.1 132.865 168.803 133.066 168.441 133.209C168.079 133.35 167.665 133.42 167.199 133.42ZM175.806 128.889L174.517 129.029C174.48 128.899 174.416 128.777 174.325 128.662C174.237 128.548 174.117 128.455 173.966 128.385C173.815 128.314 173.63 128.279 173.411 128.279C173.117 128.279 172.869 128.343 172.669 128.471C172.471 128.598 172.373 128.764 172.376 128.967C172.373 129.141 172.437 129.283 172.567 129.393C172.7 129.502 172.919 129.592 173.224 129.662L174.247 129.881C174.815 130.003 175.237 130.197 175.513 130.463C175.791 130.729 175.932 131.076 175.935 131.506C175.932 131.883 175.821 132.217 175.603 132.506C175.386 132.792 175.086 133.016 174.7 133.178C174.315 133.339 173.872 133.42 173.372 133.42C172.638 133.42 172.047 133.266 171.599 132.959C171.151 132.649 170.884 132.218 170.798 131.666L172.177 131.533C172.239 131.804 172.372 132.008 172.575 132.146C172.778 132.285 173.043 132.354 173.368 132.354C173.704 132.354 173.974 132.285 174.177 132.146C174.382 132.008 174.485 131.838 174.485 131.635C174.485 131.463 174.419 131.321 174.286 131.209C174.156 131.097 173.953 131.011 173.677 130.951L172.653 130.736C172.078 130.617 171.652 130.415 171.376 130.131C171.1 129.844 170.963 129.482 170.966 129.045C170.963 128.675 171.063 128.355 171.267 128.084C171.472 127.811 171.757 127.6 172.122 127.451C172.489 127.3 172.912 127.225 173.392 127.225C174.095 127.225 174.648 127.374 175.052 127.674C175.458 127.973 175.709 128.378 175.806 128.889ZM180.097 127.303V128.396H176.647V127.303H180.097ZM177.499 125.865H178.913V131.498C178.913 131.688 178.942 131.834 178.999 131.936C179.059 132.035 179.137 132.102 179.233 132.139C179.33 132.175 179.437 132.193 179.554 132.193C179.642 132.193 179.723 132.187 179.796 132.174C179.871 132.161 179.929 132.149 179.968 132.139L180.206 133.244C180.131 133.27 180.022 133.299 179.882 133.33C179.744 133.361 179.575 133.38 179.374 133.385C179.02 133.395 178.701 133.342 178.417 133.225C178.133 133.105 177.908 132.92 177.741 132.67C177.577 132.42 177.496 132.107 177.499 131.732V125.865ZM188.49 129.303C188.49 130.165 188.329 130.903 188.006 131.518C187.686 132.13 187.248 132.598 186.693 132.924C186.141 133.249 185.515 133.412 184.814 133.412C184.114 133.412 183.486 133.249 182.932 132.924C182.38 132.596 181.942 132.126 181.619 131.514C181.299 130.899 181.139 130.162 181.139 129.303C181.139 128.441 181.299 127.704 181.619 127.092C181.942 126.477 182.38 126.007 182.932 125.682C183.486 125.356 184.114 125.193 184.814 125.193C185.515 125.193 186.141 125.356 186.693 125.682C187.248 126.007 187.686 126.477 188.006 127.092C188.329 127.704 188.49 128.441 188.49 129.303ZM187.033 129.303C187.033 128.696 186.938 128.184 186.748 127.768C186.561 127.348 186.3 127.032 185.967 126.818C185.633 126.602 185.249 126.494 184.814 126.494C184.38 126.494 183.995 126.602 183.662 126.818C183.329 127.032 183.067 127.348 182.877 127.768C182.689 128.184 182.596 128.696 182.596 129.303C182.596 129.91 182.689 130.423 182.877 130.842C183.067 131.258 183.329 131.575 183.662 131.791C183.995 132.005 184.38 132.111 184.814 132.111C185.249 132.111 185.633 132.005 185.967 131.791C186.3 131.575 186.561 131.258 186.748 130.842C186.938 130.423 187.033 129.91 187.033 129.303ZM189.798 135.553V127.303H191.188V128.295H191.271C191.343 128.149 191.446 127.994 191.579 127.83C191.712 127.663 191.892 127.521 192.118 127.404C192.345 127.285 192.634 127.225 192.985 127.225C193.449 127.225 193.867 127.343 194.239 127.58C194.614 127.814 194.911 128.162 195.13 128.623C195.351 129.081 195.462 129.644 195.462 130.311C195.462 130.969 195.354 131.529 195.138 131.99C194.922 132.451 194.627 132.803 194.255 133.045C193.882 133.287 193.461 133.408 192.989 133.408C192.646 133.408 192.36 133.351 192.134 133.236C191.907 133.122 191.725 132.984 191.587 132.822C191.451 132.658 191.346 132.503 191.271 132.357H191.212V135.553H189.798ZM191.185 130.303C191.185 130.691 191.239 131.031 191.349 131.322C191.461 131.614 191.621 131.842 191.829 132.006C192.04 132.167 192.295 132.248 192.595 132.248C192.907 132.248 193.169 132.165 193.38 131.998C193.591 131.829 193.75 131.598 193.856 131.307C193.966 131.012 194.021 130.678 194.021 130.303C194.021 129.93 193.967 129.6 193.86 129.311C193.754 129.021 193.595 128.795 193.384 128.631C193.173 128.467 192.91 128.385 192.595 128.385C192.293 128.385 192.036 128.464 191.825 128.623C191.614 128.782 191.454 129.005 191.345 129.291C191.238 129.577 191.185 129.915 191.185 130.303ZM199.669 127.303V128.396H196.22V127.303H199.669ZM197.071 125.865H198.485V131.498C198.485 131.688 198.514 131.834 198.571 131.936C198.631 132.035 198.709 132.102 198.806 132.139C198.902 132.175 199.009 132.193 199.126 132.193C199.215 132.193 199.295 132.187 199.368 132.174C199.444 132.161 199.501 132.149 199.54 132.139L199.778 133.244C199.703 133.27 199.595 133.299 199.454 133.33C199.316 133.361 199.147 133.38 198.946 133.385C198.592 133.395 198.273 133.342 197.989 133.225C197.705 133.105 197.48 132.92 197.313 132.67C197.149 132.42 197.069 132.107 197.071 131.732V125.865ZM200.852 133.303V127.303H202.266V133.303H200.852ZM201.563 126.451C201.339 126.451 201.146 126.377 200.984 126.229C200.823 126.077 200.742 125.896 200.742 125.686C200.742 125.472 200.823 125.291 200.984 125.143C201.146 124.992 201.339 124.916 201.563 124.916C201.789 124.916 201.982 124.992 202.141 125.143C202.302 125.291 202.383 125.472 202.383 125.686C202.383 125.896 202.302 126.077 202.141 126.229C201.982 126.377 201.789 126.451 201.563 126.451ZM203.72 133.303V127.303H205.071V128.322H205.142C205.267 127.979 205.474 127.71 205.763 127.518C206.052 127.322 206.397 127.225 206.798 127.225C207.204 127.225 207.547 127.324 207.825 127.521C208.106 127.717 208.304 127.984 208.419 128.322H208.481C208.614 127.989 208.838 127.723 209.153 127.525C209.471 127.325 209.847 127.225 210.282 127.225C210.834 127.225 211.285 127.399 211.634 127.748C211.983 128.097 212.157 128.606 212.157 129.275V133.303H210.739V129.494C210.739 129.122 210.64 128.85 210.442 128.678C210.244 128.503 210.002 128.416 209.716 128.416C209.375 128.416 209.108 128.523 208.915 128.736C208.725 128.947 208.63 129.222 208.63 129.561V133.303H207.243V129.436C207.243 129.126 207.149 128.878 206.962 128.693C206.777 128.508 206.535 128.416 206.235 128.416C206.032 128.416 205.847 128.468 205.681 128.572C205.514 128.674 205.381 128.818 205.282 129.006C205.183 129.191 205.134 129.407 205.134 129.654V133.303H203.72ZM213.592 133.303V127.303H215.006V133.303H213.592ZM214.303 126.451C214.079 126.451 213.886 126.377 213.725 126.229C213.563 126.077 213.482 125.896 213.482 125.686C213.482 125.472 213.563 125.291 213.725 125.143C213.886 124.992 214.079 124.916 214.303 124.916C214.529 124.916 214.722 124.992 214.881 125.143C215.042 125.291 215.123 125.472 215.123 125.686C215.123 125.896 215.042 126.077 214.881 126.229C214.722 126.377 214.529 126.451 214.303 126.451ZM221.202 128.889L219.913 129.029C219.877 128.899 219.813 128.777 219.722 128.662C219.633 128.548 219.513 128.455 219.362 128.385C219.211 128.314 219.026 128.279 218.808 128.279C218.513 128.279 218.266 128.343 218.065 128.471C217.868 128.598 217.77 128.764 217.772 128.967C217.77 129.141 217.834 129.283 217.964 129.393C218.097 129.502 218.315 129.592 218.62 129.662L219.644 129.881C220.211 130.003 220.633 130.197 220.909 130.463C221.188 130.729 221.328 131.076 221.331 131.506C221.328 131.883 221.218 132.217 220.999 132.506C220.783 132.792 220.482 133.016 220.097 133.178C219.711 133.339 219.269 133.42 218.769 133.42C218.034 133.42 217.443 133.266 216.995 132.959C216.547 132.649 216.28 132.218 216.194 131.666L217.573 131.533C217.636 131.804 217.769 132.008 217.972 132.146C218.175 132.285 218.439 132.354 218.765 132.354C219.101 132.354 219.37 132.285 219.573 132.146C219.779 132.008 219.882 131.838 219.882 131.635C219.882 131.463 219.815 131.321 219.683 131.209C219.552 131.097 219.349 131.011 219.073 130.951L218.05 130.736C217.474 130.617 217.049 130.415 216.772 130.131C216.496 129.844 216.36 129.482 216.362 129.045C216.36 128.675 216.46 128.355 216.663 128.084C216.869 127.811 217.154 127.6 217.519 127.451C217.886 127.3 218.309 127.225 218.788 127.225C219.491 127.225 220.045 127.374 220.448 127.674C220.854 127.973 221.106 128.378 221.202 128.889ZM225.493 127.303V128.396H222.044V127.303H225.493ZM222.896 125.865H224.31V131.498C224.31 131.688 224.338 131.834 224.396 131.936C224.455 132.035 224.534 132.102 224.63 132.139C224.726 132.175 224.833 132.193 224.95 132.193C225.039 132.193 225.119 132.187 225.192 132.174C225.268 132.161 225.325 132.149 225.364 132.139L225.603 133.244C225.527 133.27 225.419 133.299 225.278 133.33C225.14 133.361 224.971 133.38 224.771 133.385C224.416 133.395 224.097 133.342 223.813 133.225C223.53 133.105 223.304 132.92 223.138 132.67C222.974 132.42 222.893 132.107 222.896 131.732V125.865ZM226.676 133.303V127.303H228.09V133.303H226.676ZM227.387 126.451C227.163 126.451 226.97 126.377 226.809 126.229C226.647 126.077 226.566 125.896 226.566 125.686C226.566 125.472 226.647 125.291 226.809 125.143C226.97 124.992 227.163 124.916 227.387 124.916C227.613 124.916 227.806 124.992 227.965 125.143C228.126 125.291 228.207 125.472 228.207 125.686C228.207 125.896 228.126 126.077 227.965 126.229C227.806 126.377 227.613 126.451 227.387 126.451ZM232.161 133.42C231.562 133.42 231.048 133.288 230.618 133.025C230.191 132.762 229.862 132.399 229.63 131.936C229.401 131.469 229.286 130.933 229.286 130.326C229.286 129.717 229.403 129.179 229.638 128.713C229.872 128.244 230.203 127.88 230.63 127.619C231.06 127.356 231.567 127.225 232.153 127.225C232.64 127.225 233.071 127.314 233.446 127.494C233.824 127.671 234.125 127.923 234.349 128.248C234.573 128.571 234.7 128.949 234.731 129.381H233.38C233.325 129.092 233.195 128.851 232.989 128.658C232.786 128.463 232.514 128.365 232.173 128.365C231.884 128.365 231.63 128.443 231.411 128.6C231.192 128.753 231.022 128.975 230.899 129.264C230.78 129.553 230.72 129.899 230.72 130.303C230.72 130.712 230.78 131.063 230.899 131.357C231.019 131.649 231.187 131.874 231.403 132.033C231.622 132.189 231.879 132.268 232.173 132.268C232.381 132.268 232.567 132.229 232.731 132.15C232.898 132.07 233.037 131.954 233.149 131.803C233.261 131.652 233.338 131.468 233.38 131.252H234.731C234.698 131.676 234.573 132.053 234.356 132.381C234.14 132.706 233.846 132.962 233.474 133.146C233.101 133.329 232.664 133.42 232.161 133.42ZM235.955 125.303H237.729L240.104 131.1H240.197L242.572 125.303H244.346V133.303H242.955V127.807H242.881L240.67 133.279H239.631L237.42 127.795H237.346V133.303H235.955V125.303ZM245.861 133.303V127.303H247.275V133.303H245.861ZM246.572 126.451C246.348 126.451 246.156 126.377 245.994 126.229C245.833 126.077 245.752 125.896 245.752 125.686C245.752 125.472 245.833 125.291 245.994 125.143C246.156 124.992 246.348 124.916 246.572 124.916C246.799 124.916 246.992 124.992 247.15 125.143C247.312 125.291 247.393 125.472 247.393 125.686C247.393 125.896 247.312 126.077 247.15 126.229C246.992 126.377 246.799 126.451 246.572 126.451ZM250.144 129.787V133.303H248.729V127.303H250.081V128.322H250.151C250.289 127.986 250.509 127.719 250.812 127.521C251.116 127.324 251.493 127.225 251.94 127.225C252.354 127.225 252.715 127.313 253.022 127.49C253.332 127.667 253.572 127.924 253.741 128.26C253.913 128.596 253.998 129.003 253.995 129.482V133.303H252.581V129.701C252.581 129.3 252.477 128.986 252.269 128.76C252.063 128.533 251.778 128.42 251.413 128.42C251.166 128.42 250.946 128.475 250.753 128.584C250.563 128.691 250.413 128.846 250.304 129.049C250.197 129.252 250.144 129.498 250.144 129.787ZM258.429 127.303V128.396H254.979V127.303H258.429ZM255.831 125.865H257.245V131.498C257.245 131.688 257.274 131.834 257.331 131.936C257.391 132.035 257.469 132.102 257.565 132.139C257.662 132.175 257.769 132.193 257.886 132.193C257.974 132.193 258.055 132.187 258.128 132.174C258.203 132.161 258.261 132.149 258.3 132.139L258.538 133.244C258.463 133.27 258.354 133.299 258.214 133.33C258.076 133.361 257.907 133.38 257.706 133.385C257.352 133.395 257.033 133.342 256.749 133.225C256.465 133.105 256.24 132.92 256.073 132.67C255.909 132.42 255.828 132.107 255.831 131.732V125.865ZM259.963 130.041C259.963 129.064 260.092 128.167 260.35 127.35C260.61 126.529 260.997 125.771 261.51 125.076H262.842C262.644 125.334 262.459 125.65 262.287 126.025C262.115 126.398 261.965 126.807 261.838 127.252C261.713 127.695 261.614 128.154 261.541 128.631C261.471 129.107 261.436 129.577 261.436 130.041C261.436 130.658 261.497 131.283 261.619 131.916C261.744 132.549 261.912 133.135 262.123 133.674C262.337 134.215 262.576 134.658 262.842 135.002H261.51C260.997 134.307 260.61 133.55 260.35 132.732C260.092 131.912 259.963 131.015 259.963 130.041ZM266.464 130.041C266.464 131.015 266.334 131.912 266.073 132.732C265.815 133.55 265.43 134.307 264.917 135.002H263.585C263.785 134.744 263.97 134.429 264.14 134.057C264.312 133.684 264.46 133.275 264.585 132.83C264.713 132.385 264.812 131.924 264.882 131.447C264.955 130.971 264.991 130.502 264.991 130.041C264.991 129.424 264.929 128.799 264.804 128.166C264.681 127.533 264.513 126.946 264.3 126.404C264.089 125.863 263.851 125.42 263.585 125.076H264.917C265.43 125.771 265.815 126.529 266.073 127.35C266.334 128.167 266.464 129.064 266.464 130.041Z" fill="white"/>
<path d="M110.453 159.424C110.073 159.424 109.73 159.356 109.426 159.221C109.124 159.083 108.884 158.88 108.707 158.611C108.533 158.343 108.445 158.012 108.445 157.619C108.445 157.281 108.508 157.001 108.633 156.779C108.758 156.558 108.928 156.381 109.145 156.248C109.361 156.115 109.604 156.015 109.875 155.947C110.148 155.877 110.431 155.826 110.723 155.795C111.074 155.758 111.359 155.726 111.578 155.697C111.797 155.666 111.956 155.619 112.055 155.557C112.156 155.492 112.207 155.391 112.207 155.256V155.232C112.207 154.938 112.12 154.71 111.945 154.549C111.771 154.387 111.52 154.307 111.191 154.307C110.845 154.307 110.57 154.382 110.367 154.533C110.167 154.684 110.031 154.863 109.961 155.068L108.641 154.881C108.745 154.516 108.917 154.212 109.156 153.967C109.396 153.719 109.689 153.535 110.035 153.412C110.382 153.287 110.764 153.225 111.184 153.225C111.473 153.225 111.76 153.258 112.047 153.326C112.333 153.394 112.595 153.506 112.832 153.662C113.069 153.816 113.259 154.025 113.402 154.291C113.548 154.557 113.621 154.889 113.621 155.287V159.303H112.262V158.479H112.215C112.129 158.645 112.008 158.801 111.852 158.947C111.698 159.09 111.504 159.206 111.27 159.295C111.038 159.381 110.766 159.424 110.453 159.424ZM110.82 158.385C111.104 158.385 111.35 158.329 111.559 158.217C111.767 158.102 111.927 157.951 112.039 157.764C112.154 157.576 112.211 157.372 112.211 157.15V156.443C112.167 156.48 112.091 156.514 111.984 156.545C111.88 156.576 111.763 156.604 111.633 156.627C111.503 156.65 111.374 156.671 111.246 156.689C111.118 156.708 111.008 156.723 110.914 156.736C110.703 156.765 110.514 156.812 110.348 156.877C110.181 156.942 110.049 157.033 109.953 157.15C109.857 157.265 109.809 157.413 109.809 157.596C109.809 157.856 109.904 158.053 110.094 158.186C110.284 158.318 110.526 158.385 110.82 158.385ZM116.281 159.303L114.586 153.303H116.027L117.082 157.521H117.137L118.215 153.303H119.641L120.719 157.498H120.777L121.816 153.303H123.262L121.563 159.303H120.09L118.965 155.248H118.883L117.758 159.303H116.281ZM125.976 159.424C125.595 159.424 125.253 159.356 124.948 159.221C124.646 159.083 124.407 158.88 124.229 158.611C124.055 158.343 123.968 158.012 123.968 157.619C123.968 157.281 124.03 157.001 124.155 156.779C124.28 156.558 124.451 156.381 124.667 156.248C124.883 156.115 125.127 156.015 125.397 155.947C125.671 155.877 125.953 155.826 126.245 155.795C126.597 155.758 126.882 155.726 127.101 155.697C127.319 155.666 127.478 155.619 127.577 155.557C127.679 155.492 127.729 155.391 127.729 155.256V155.232C127.729 154.938 127.642 154.71 127.468 154.549C127.293 154.387 127.042 154.307 126.714 154.307C126.368 154.307 126.093 154.382 125.89 154.533C125.689 154.684 125.554 154.863 125.483 155.068L124.163 154.881C124.267 154.516 124.439 154.212 124.679 153.967C124.918 153.719 125.211 153.535 125.558 153.412C125.904 153.287 126.287 153.225 126.706 153.225C126.995 153.225 127.283 153.258 127.569 153.326C127.856 153.394 128.118 153.506 128.354 153.662C128.591 153.816 128.782 154.025 128.925 154.291C129.071 154.557 129.144 154.889 129.144 155.287V159.303H127.784V158.479H127.737C127.651 158.645 127.53 158.801 127.374 158.947C127.22 159.09 127.026 159.206 126.792 159.295C126.56 159.381 126.288 159.424 125.976 159.424ZM126.343 158.385C126.627 158.385 126.873 158.329 127.081 158.217C127.289 158.102 127.45 157.951 127.562 157.764C127.676 157.576 127.733 157.372 127.733 157.15V156.443C127.689 156.48 127.614 156.514 127.507 156.545C127.403 156.576 127.285 156.604 127.155 156.627C127.025 156.65 126.896 156.671 126.769 156.689C126.641 156.708 126.53 156.723 126.437 156.736C126.226 156.765 126.037 156.812 125.87 156.877C125.703 156.942 125.572 157.033 125.476 157.15C125.379 157.265 125.331 157.413 125.331 157.596C125.331 157.856 125.426 158.053 125.616 158.186C125.806 158.318 126.049 158.385 126.343 158.385ZM130.565 159.303V153.303H131.979V159.303H130.565ZM131.276 152.451C131.052 152.451 130.86 152.377 130.698 152.229C130.537 152.077 130.456 151.896 130.456 151.686C130.456 151.472 130.537 151.291 130.698 151.143C130.86 150.992 131.052 150.916 131.276 150.916C131.503 150.916 131.696 150.992 131.854 151.143C132.016 151.291 132.097 151.472 132.097 151.686C132.097 151.896 132.016 152.077 131.854 152.229C131.696 152.377 131.503 152.451 131.276 152.451ZM136.43 153.303V154.396H132.98V153.303H136.43ZM133.832 151.865H135.246V157.498C135.246 157.688 135.275 157.834 135.332 157.936C135.392 158.035 135.47 158.102 135.566 158.139C135.663 158.175 135.77 158.193 135.887 158.193C135.975 158.193 136.056 158.187 136.129 158.174C136.204 158.161 136.262 158.149 136.301 158.139L136.539 159.244C136.464 159.27 136.355 159.299 136.215 159.33C136.077 159.361 135.908 159.38 135.707 159.385C135.353 159.395 135.034 159.342 134.75 159.225C134.466 159.105 134.241 158.92 134.074 158.67C133.91 158.42 133.829 158.107 133.832 157.732V151.865Z" fill="#8A98AC"/>
<path d="M143.38 153.303V154.396H139.833V153.303H143.38ZM140.72 159.303V152.736C140.72 152.333 140.803 151.997 140.97 151.729C141.139 151.46 141.366 151.26 141.649 151.127C141.933 150.994 142.248 150.928 142.595 150.928C142.84 150.928 143.057 150.947 143.247 150.986C143.437 151.025 143.578 151.061 143.669 151.092L143.388 152.186C143.328 152.167 143.252 152.149 143.161 152.131C143.07 152.11 142.968 152.1 142.856 152.1C142.593 152.1 142.407 152.163 142.298 152.291C142.191 152.416 142.138 152.596 142.138 152.83V159.303H140.72ZM144.487 159.303V153.303H145.901V159.303H144.487ZM145.198 152.451C144.974 152.451 144.782 152.377 144.62 152.229C144.459 152.077 144.378 151.896 144.378 151.686C144.378 151.472 144.459 151.291 144.62 151.143C144.782 150.992 144.974 150.916 145.198 150.916C145.425 150.916 145.618 150.992 145.776 151.143C145.938 151.291 146.019 151.472 146.019 151.686C146.019 151.896 145.938 152.077 145.776 152.229C145.618 152.377 145.425 152.451 145.198 152.451ZM148.77 155.787V159.303H147.355V153.303H148.707V154.322H148.777C148.915 153.986 149.135 153.719 149.438 153.521C149.742 153.324 150.118 153.225 150.566 153.225C150.98 153.225 151.341 153.313 151.648 153.49C151.958 153.667 152.198 153.924 152.367 154.26C152.539 154.596 152.624 155.003 152.621 155.482V159.303H151.207V155.701C151.207 155.3 151.103 154.986 150.895 154.76C150.689 154.533 150.404 154.42 150.039 154.42C149.792 154.42 149.572 154.475 149.379 154.584C149.189 154.691 149.039 154.846 148.93 155.049C148.823 155.252 148.77 155.498 148.77 155.787ZM155.785 159.424C155.405 159.424 155.063 159.356 154.758 159.221C154.456 159.083 154.216 158.88 154.039 158.611C153.865 158.343 153.777 158.012 153.777 157.619C153.777 157.281 153.84 157.001 153.965 156.779C154.09 156.558 154.26 156.381 154.477 156.248C154.693 156.115 154.936 156.015 155.207 155.947C155.48 155.877 155.763 155.826 156.055 155.795C156.406 155.758 156.691 155.726 156.91 155.697C157.129 155.666 157.288 155.619 157.387 155.557C157.488 155.492 157.539 155.391 157.539 155.256V155.232C157.539 154.938 157.452 154.71 157.277 154.549C157.103 154.387 156.852 154.307 156.523 154.307C156.177 154.307 155.902 154.382 155.699 154.533C155.499 154.684 155.363 154.863 155.293 155.068L153.973 154.881C154.077 154.516 154.249 154.212 154.488 153.967C154.728 153.719 155.021 153.535 155.367 153.412C155.714 153.287 156.096 153.225 156.516 153.225C156.805 153.225 157.092 153.258 157.379 153.326C157.665 153.394 157.927 153.506 158.164 153.662C158.401 153.816 158.591 154.025 158.734 154.291C158.88 154.557 158.953 154.889 158.953 155.287V159.303H157.594V158.479H157.547C157.461 158.645 157.34 158.801 157.184 158.947C157.03 159.09 156.836 159.206 156.602 159.295C156.37 159.381 156.098 159.424 155.785 159.424ZM156.152 158.385C156.436 158.385 156.682 158.329 156.891 158.217C157.099 158.102 157.259 157.951 157.371 157.764C157.486 157.576 157.543 157.372 157.543 157.15V156.443C157.499 156.48 157.423 156.514 157.316 156.545C157.212 156.576 157.095 156.604 156.965 156.627C156.835 156.65 156.706 156.671 156.578 156.689C156.451 156.708 156.34 156.723 156.246 156.736C156.035 156.765 155.846 156.812 155.68 156.877C155.513 156.942 155.382 157.033 155.285 157.15C155.189 157.265 155.141 157.413 155.141 157.596C155.141 157.856 155.236 158.053 155.426 158.186C155.616 158.318 155.858 158.385 156.152 158.385ZM161.789 151.303V159.303H160.375V151.303H161.789ZM163.243 159.303V153.303H164.657V159.303H163.243ZM163.954 152.451C163.73 152.451 163.537 152.377 163.376 152.229C163.215 152.077 163.134 151.896 163.134 151.686C163.134 151.472 163.215 151.291 163.376 151.143C163.537 150.992 163.73 150.916 163.954 150.916C164.181 150.916 164.373 150.992 164.532 151.143C164.694 151.291 164.774 151.472 164.774 151.686C164.774 151.896 164.694 152.077 164.532 152.229C164.373 152.377 164.181 152.451 163.954 152.451ZM166.033 159.303V158.404L169.127 154.525V154.475H166.135V153.303H170.857V154.268L167.912 158.08V158.131H170.959V159.303H166.033ZM174.772 159.42C174.171 159.42 173.651 159.295 173.214 159.045C172.779 158.792 172.444 158.436 172.21 157.975C171.976 157.511 171.858 156.965 171.858 156.338C171.858 155.721 171.976 155.179 172.21 154.713C172.447 154.244 172.778 153.88 173.202 153.619C173.627 153.356 174.125 153.225 174.698 153.225C175.068 153.225 175.417 153.285 175.745 153.404C176.076 153.521 176.368 153.704 176.62 153.951C176.875 154.199 177.076 154.514 177.222 154.896C177.368 155.277 177.44 155.73 177.44 156.256V156.689H172.522V155.736H176.085C176.082 155.465 176.024 155.225 175.909 155.014C175.795 154.8 175.634 154.632 175.429 154.51C175.226 154.387 174.989 154.326 174.718 154.326C174.429 154.326 174.175 154.396 173.956 154.537C173.737 154.675 173.567 154.857 173.444 155.084C173.325 155.308 173.263 155.554 173.261 155.822V156.654C173.261 157.003 173.325 157.303 173.452 157.553C173.58 157.8 173.758 157.99 173.987 158.123C174.216 158.253 174.485 158.318 174.792 158.318C174.998 158.318 175.184 158.29 175.351 158.232C175.517 158.173 175.662 158.085 175.784 157.971C175.907 157.856 175.999 157.714 176.062 157.545L177.382 157.693C177.299 158.042 177.14 158.347 176.905 158.607C176.674 158.865 176.377 159.066 176.015 159.209C175.653 159.35 175.239 159.42 174.772 159.42ZM185.848 155.303C185.848 156.165 185.686 156.903 185.363 157.518C185.043 158.13 184.605 158.598 184.051 158.924C183.499 159.249 182.872 159.412 182.172 159.412C181.471 159.412 180.844 159.249 180.289 158.924C179.737 158.596 179.299 158.126 178.977 157.514C178.656 156.899 178.496 156.162 178.496 155.303C178.496 154.441 178.656 153.704 178.977 153.092C179.299 152.477 179.737 152.007 180.289 151.682C180.844 151.356 181.471 151.193 182.172 151.193C182.872 151.193 183.499 151.356 184.051 151.682C184.605 152.007 185.043 152.477 185.363 153.092C185.686 153.704 185.848 154.441 185.848 155.303ZM184.391 155.303C184.391 154.696 184.296 154.184 184.105 153.768C183.918 153.348 183.658 153.032 183.324 152.818C182.991 152.602 182.607 152.494 182.172 152.494C181.737 152.494 181.353 152.602 181.02 152.818C180.686 153.032 180.424 153.348 180.234 153.768C180.047 154.184 179.953 154.696 179.953 155.303C179.953 155.91 180.047 156.423 180.234 156.842C180.424 157.258 180.686 157.575 181.02 157.791C181.353 158.005 181.737 158.111 182.172 158.111C182.607 158.111 182.991 158.005 183.324 157.791C183.658 157.575 183.918 157.258 184.105 156.842C184.296 156.423 184.391 155.91 184.391 155.303ZM187.155 161.553V153.303H188.546V154.295H188.628C188.701 154.149 188.804 153.994 188.937 153.83C189.069 153.663 189.249 153.521 189.476 153.404C189.702 153.285 189.991 153.225 190.343 153.225C190.806 153.225 191.224 153.343 191.597 153.58C191.972 153.814 192.269 154.162 192.487 154.623C192.709 155.081 192.819 155.644 192.819 156.311C192.819 156.969 192.711 157.529 192.495 157.99C192.279 158.451 191.985 158.803 191.612 159.045C191.24 159.287 190.818 159.408 190.347 159.408C190.003 159.408 189.718 159.351 189.491 159.236C189.265 159.122 189.082 158.984 188.944 158.822C188.809 158.658 188.703 158.503 188.628 158.357H188.569V161.553H187.155ZM188.542 156.303C188.542 156.691 188.597 157.031 188.706 157.322C188.818 157.614 188.978 157.842 189.187 158.006C189.397 158.167 189.653 158.248 189.952 158.248C190.265 158.248 190.526 158.165 190.737 157.998C190.948 157.829 191.107 157.598 191.214 157.307C191.323 157.012 191.378 156.678 191.378 156.303C191.378 155.93 191.325 155.6 191.218 155.311C191.111 155.021 190.952 154.795 190.741 154.631C190.53 154.467 190.267 154.385 189.952 154.385C189.65 154.385 189.394 154.464 189.183 154.623C188.972 154.782 188.812 155.005 188.702 155.291C188.595 155.577 188.542 155.915 188.542 156.303ZM197.026 153.303V154.396H193.577V153.303H197.026ZM194.429 151.865H195.843V157.498C195.843 157.688 195.871 157.834 195.929 157.936C195.989 158.035 196.067 158.102 196.163 158.139C196.259 158.175 196.366 158.193 196.483 158.193C196.572 158.193 196.653 158.187 196.726 158.174C196.801 158.161 196.858 158.149 196.897 158.139L197.136 159.244C197.06 159.27 196.952 159.299 196.812 159.33C196.674 159.361 196.504 159.38 196.304 159.385C195.95 159.395 195.631 159.342 195.347 159.225C195.063 159.105 194.838 158.92 194.671 158.67C194.507 158.42 194.426 158.107 194.429 157.732V151.865ZM198.209 159.303V153.303H199.623V159.303H198.209ZM198.92 152.451C198.696 152.451 198.503 152.377 198.342 152.229C198.18 152.077 198.1 151.896 198.1 151.686C198.1 151.472 198.18 151.291 198.342 151.143C198.503 150.992 198.696 150.916 198.92 150.916C199.146 150.916 199.339 150.992 199.498 151.143C199.66 151.291 199.74 151.472 199.74 151.686C199.74 151.896 199.66 152.077 199.498 152.229C199.339 152.377 199.146 152.451 198.92 152.451ZM201.077 159.303V153.303H202.429V154.322H202.499C202.624 153.979 202.831 153.71 203.12 153.518C203.409 153.322 203.754 153.225 204.155 153.225C204.562 153.225 204.904 153.324 205.183 153.521C205.464 153.717 205.662 153.984 205.776 154.322H205.839C205.972 153.989 206.196 153.723 206.511 153.525C206.828 153.325 207.205 153.225 207.64 153.225C208.192 153.225 208.642 153.399 208.991 153.748C209.34 154.097 209.515 154.606 209.515 155.275V159.303H208.097V155.494C208.097 155.122 207.998 154.85 207.8 154.678C207.602 154.503 207.36 154.416 207.073 154.416C206.732 154.416 206.465 154.523 206.272 154.736C206.082 154.947 205.987 155.222 205.987 155.561V159.303H204.601V155.436C204.601 155.126 204.507 154.878 204.319 154.693C204.134 154.508 203.892 154.416 203.593 154.416C203.39 154.416 203.205 154.468 203.038 154.572C202.871 154.674 202.739 154.818 202.64 155.006C202.541 155.191 202.491 155.407 202.491 155.654V159.303H201.077ZM210.949 159.303V153.303H212.363V159.303H210.949ZM211.66 152.451C211.436 152.451 211.243 152.377 211.082 152.229C210.921 152.077 210.84 151.896 210.84 151.686C210.84 151.472 210.921 151.291 211.082 151.143C211.243 150.992 211.436 150.916 211.66 150.916C211.887 150.916 212.079 150.992 212.238 151.143C212.4 151.291 212.48 151.472 212.48 151.686C212.48 151.896 212.4 152.077 212.238 152.229C212.079 152.377 211.887 152.451 211.66 152.451ZM218.56 154.889L217.271 155.029C217.234 154.899 217.17 154.777 217.079 154.662C216.991 154.548 216.871 154.455 216.72 154.385C216.569 154.314 216.384 154.279 216.165 154.279C215.871 154.279 215.623 154.343 215.423 154.471C215.225 154.598 215.127 154.764 215.13 154.967C215.127 155.141 215.191 155.283 215.321 155.393C215.454 155.502 215.673 155.592 215.978 155.662L217.001 155.881C217.569 156.003 217.991 156.197 218.267 156.463C218.545 156.729 218.686 157.076 218.688 157.506C218.686 157.883 218.575 158.217 218.356 158.506C218.14 158.792 217.84 159.016 217.454 159.178C217.069 159.339 216.626 159.42 216.126 159.42C215.392 159.42 214.8 159.266 214.353 158.959C213.905 158.649 213.638 158.218 213.552 157.666L214.931 157.533C214.993 157.804 215.126 158.008 215.329 158.146C215.532 158.285 215.797 158.354 216.122 158.354C216.458 158.354 216.728 158.285 216.931 158.146C217.136 158.008 217.239 157.838 217.239 157.635C217.239 157.463 217.173 157.321 217.04 157.209C216.91 157.097 216.707 157.011 216.431 156.951L215.407 156.736C214.832 156.617 214.406 156.415 214.13 156.131C213.854 155.844 213.717 155.482 213.72 155.045C213.717 154.675 213.817 154.355 214.021 154.084C214.226 153.811 214.511 153.6 214.876 153.451C215.243 153.3 215.666 153.225 216.146 153.225C216.849 153.225 217.402 153.374 217.806 153.674C218.212 153.973 218.463 154.378 218.56 154.889ZM222.851 153.303V154.396H219.401V153.303H222.851ZM220.253 151.865H221.667V157.498C221.667 157.688 221.696 157.834 221.753 157.936C221.813 158.035 221.891 158.102 221.987 158.139C222.084 158.175 222.19 158.193 222.308 158.193C222.396 158.193 222.477 158.187 222.55 158.174C222.625 158.161 222.683 158.149 222.722 158.139L222.96 159.244C222.884 159.27 222.776 159.299 222.636 159.33C222.498 159.361 222.328 159.38 222.128 159.385C221.774 159.395 221.455 159.342 221.171 159.225C220.887 159.105 220.662 158.92 220.495 158.67C220.331 158.42 220.25 158.107 220.253 157.732V151.865ZM224.033 159.303V153.303H225.447V159.303H224.033ZM224.744 152.451C224.52 152.451 224.327 152.377 224.166 152.229C224.005 152.077 223.924 151.896 223.924 151.686C223.924 151.472 224.005 151.291 224.166 151.143C224.327 150.992 224.52 150.916 224.744 150.916C224.971 150.916 225.163 150.992 225.322 151.143C225.484 151.291 225.564 151.472 225.564 151.686C225.564 151.896 225.484 152.077 225.322 152.229C225.163 152.377 224.971 152.451 224.744 152.451ZM229.519 159.42C228.92 159.42 228.405 159.288 227.976 159.025C227.549 158.762 227.219 158.399 226.987 157.936C226.758 157.469 226.644 156.933 226.644 156.326C226.644 155.717 226.761 155.179 226.995 154.713C227.229 154.244 227.56 153.88 227.987 153.619C228.417 153.356 228.925 153.225 229.511 153.225C229.998 153.225 230.429 153.314 230.804 153.494C231.181 153.671 231.482 153.923 231.706 154.248C231.93 154.571 232.058 154.949 232.089 155.381H230.737C230.683 155.092 230.552 154.851 230.347 154.658C230.144 154.463 229.871 154.365 229.53 154.365C229.241 154.365 228.987 154.443 228.769 154.6C228.55 154.753 228.379 154.975 228.257 155.264C228.137 155.553 228.077 155.899 228.077 156.303C228.077 156.712 228.137 157.063 228.257 157.357C228.377 157.649 228.545 157.874 228.761 158.033C228.979 158.189 229.236 158.268 229.53 158.268C229.739 158.268 229.925 158.229 230.089 158.15C230.256 158.07 230.395 157.954 230.507 157.803C230.619 157.652 230.696 157.468 230.737 157.252H232.089C232.055 157.676 231.93 158.053 231.714 158.381C231.498 158.706 231.203 158.962 230.831 159.146C230.459 159.329 230.021 159.42 229.519 159.42ZM233.312 151.303H235.086L237.461 157.1H237.555L239.93 151.303H241.703V159.303H240.313V153.807H240.238L238.027 159.279H236.988L234.777 153.795H234.703V159.303H233.312V151.303ZM243.219 159.303V153.303H244.633V159.303H243.219ZM243.93 152.451C243.706 152.451 243.513 152.377 243.352 152.229C243.19 152.077 243.109 151.896 243.109 151.686C243.109 151.472 243.19 151.291 243.352 151.143C243.513 150.992 243.706 150.916 243.93 150.916C244.156 150.916 244.349 150.992 244.508 151.143C244.669 151.291 244.75 151.472 244.75 151.686C244.75 151.896 244.669 152.077 244.508 152.229C244.349 152.377 244.156 152.451 243.93 152.451ZM247.501 155.787V159.303H246.087V153.303H247.438V154.322H247.509C247.647 153.986 247.867 153.719 248.169 153.521C248.474 153.324 248.85 153.225 249.298 153.225C249.712 153.225 250.073 153.313 250.38 153.49C250.69 153.667 250.929 153.924 251.099 154.26C251.271 154.596 251.355 155.003 251.353 155.482V159.303H249.938V155.701C249.938 155.3 249.834 154.986 249.626 154.76C249.42 154.533 249.135 154.42 248.771 154.42C248.523 154.42 248.303 154.475 248.11 154.584C247.92 154.691 247.771 154.846 247.661 155.049C247.554 155.252 247.501 155.498 247.501 155.787ZM255.786 153.303V154.396H252.337V153.303H255.786ZM253.188 151.865H254.603V157.498C254.603 157.688 254.631 157.834 254.688 157.936C254.748 158.035 254.826 158.102 254.923 158.139C255.019 158.175 255.126 158.193 255.243 158.193C255.332 158.193 255.412 158.187 255.485 158.174C255.561 158.161 255.618 158.149 255.657 158.139L255.896 159.244C255.82 159.27 255.712 159.299 255.571 159.33C255.433 159.361 255.264 159.38 255.063 159.385C254.709 159.395 254.39 159.342 254.106 159.225C253.823 159.105 253.597 158.92 253.431 158.67C253.267 158.42 253.186 158.107 253.188 157.732V151.865ZM257.32 156.041C257.32 155.064 257.449 154.167 257.707 153.35C257.967 152.529 258.354 151.771 258.867 151.076H260.199C260.001 151.334 259.816 151.65 259.645 152.025C259.473 152.398 259.323 152.807 259.195 153.252C259.07 153.695 258.971 154.154 258.898 154.631C258.828 155.107 258.793 155.577 258.793 156.041C258.793 156.658 258.854 157.283 258.977 157.916C259.102 158.549 259.27 159.135 259.48 159.674C259.694 160.215 259.934 160.658 260.199 161.002H258.867C258.354 160.307 257.967 159.55 257.707 158.732C257.449 157.912 257.32 157.015 257.32 156.041ZM263.821 156.041C263.821 157.015 263.691 157.912 263.431 158.732C263.173 159.55 262.787 160.307 262.274 161.002H260.942C261.143 160.744 261.328 160.429 261.497 160.057C261.669 159.684 261.817 159.275 261.942 158.83C262.07 158.385 262.169 157.924 262.239 157.447C262.312 156.971 262.349 156.502 262.349 156.041C262.349 155.424 262.286 154.799 262.161 154.166C262.039 153.533 261.871 152.946 261.657 152.404C261.446 151.863 261.208 151.42 260.942 151.076H262.274C262.787 151.771 263.173 152.529 263.431 153.35C263.691 154.167 263.821 155.064 263.821 156.041Z" fill="white"/>
<path d="M110.453 185.424C110.073 185.424 109.73 185.356 109.426 185.221C109.124 185.083 108.884 184.88 108.707 184.611C108.533 184.343 108.445 184.012 108.445 183.619C108.445 183.281 108.508 183.001 108.633 182.779C108.758 182.558 108.928 182.381 109.145 182.248C109.361 182.115 109.604 182.015 109.875 181.947C110.148 181.877 110.431 181.826 110.723 181.795C111.074 181.758 111.359 181.726 111.578 181.697C111.797 181.666 111.956 181.619 112.055 181.557C112.156 181.492 112.207 181.391 112.207 181.256V181.232C112.207 180.938 112.12 180.71 111.945 180.549C111.771 180.387 111.52 180.307 111.191 180.307C110.845 180.307 110.57 180.382 110.367 180.533C110.167 180.684 110.031 180.863 109.961 181.068L108.641 180.881C108.745 180.516 108.917 180.212 109.156 179.967C109.396 179.719 109.689 179.535 110.035 179.412C110.382 179.287 110.764 179.225 111.184 179.225C111.473 179.225 111.76 179.258 112.047 179.326C112.333 179.394 112.595 179.506 112.832 179.662C113.069 179.816 113.259 180.025 113.402 180.291C113.548 180.557 113.621 180.889 113.621 181.287V185.303H112.262V184.479H112.215C112.129 184.645 112.008 184.801 111.852 184.947C111.698 185.09 111.504 185.206 111.27 185.295C111.038 185.381 110.766 185.424 110.453 185.424ZM110.82 184.385C111.104 184.385 111.35 184.329 111.559 184.217C111.767 184.102 111.927 183.951 112.039 183.764C112.154 183.576 112.211 183.372 112.211 183.15V182.443C112.167 182.48 112.091 182.514 111.984 182.545C111.88 182.576 111.763 182.604 111.633 182.627C111.503 182.65 111.374 182.671 111.246 182.689C111.118 182.708 111.008 182.723 110.914 182.736C110.703 182.765 110.514 182.812 110.348 182.877C110.181 182.942 110.049 183.033 109.953 183.15C109.857 183.265 109.809 183.413 109.809 183.596C109.809 183.856 109.904 184.053 110.094 184.186C110.284 184.318 110.526 184.385 110.82 184.385ZM116.281 185.303L114.586 179.303H116.027L117.082 183.521H117.137L118.215 179.303H119.641L120.719 183.498H120.777L121.816 179.303H123.262L121.563 185.303H120.09L118.965 181.248H118.883L117.758 185.303H116.281ZM125.976 185.424C125.595 185.424 125.253 185.356 124.948 185.221C124.646 185.083 124.407 184.88 124.229 184.611C124.055 184.343 123.968 184.012 123.968 183.619C123.968 183.281 124.03 183.001 124.155 182.779C124.28 182.558 124.451 182.381 124.667 182.248C124.883 182.115 125.127 182.015 125.397 181.947C125.671 181.877 125.953 181.826 126.245 181.795C126.597 181.758 126.882 181.726 127.101 181.697C127.319 181.666 127.478 181.619 127.577 181.557C127.679 181.492 127.729 181.391 127.729 181.256V181.232C127.729 180.938 127.642 180.71 127.468 180.549C127.293 180.387 127.042 180.307 126.714 180.307C126.368 180.307 126.093 180.382 125.89 180.533C125.689 180.684 125.554 180.863 125.483 181.068L124.163 180.881C124.267 180.516 124.439 180.212 124.679 179.967C124.918 179.719 125.211 179.535 125.558 179.412C125.904 179.287 126.287 179.225 126.706 179.225C126.995 179.225 127.283 179.258 127.569 179.326C127.856 179.394 128.118 179.506 128.354 179.662C128.591 179.816 128.782 180.025 128.925 180.291C129.071 180.557 129.144 180.889 129.144 181.287V185.303H127.784V184.479H127.737C127.651 184.645 127.53 184.801 127.374 184.947C127.22 185.09 127.026 185.206 126.792 185.295C126.56 185.381 126.288 185.424 125.976 185.424ZM126.343 184.385C126.627 184.385 126.873 184.329 127.081 184.217C127.289 184.102 127.45 183.951 127.562 183.764C127.676 183.576 127.733 183.372 127.733 183.15V182.443C127.689 182.48 127.614 182.514 127.507 182.545C127.403 182.576 127.285 182.604 127.155 182.627C127.025 182.65 126.896 182.671 126.769 182.689C126.641 182.708 126.53 182.723 126.437 182.736C126.226 182.765 126.037 182.812 125.87 182.877C125.703 182.942 125.572 183.033 125.476 183.15C125.379 183.265 125.331 183.413 125.331 183.596C125.331 183.856 125.426 184.053 125.616 184.186C125.806 184.318 126.049 184.385 126.343 184.385ZM130.565 185.303V179.303H131.979V185.303H130.565ZM131.276 178.451C131.052 178.451 130.86 178.377 130.698 178.229C130.537 178.077 130.456 177.896 130.456 177.686C130.456 177.472 130.537 177.291 130.698 177.143C130.86 176.992 131.052 176.916 131.276 176.916C131.503 176.916 131.696 176.992 131.854 177.143C132.016 177.291 132.097 177.472 132.097 177.686C132.097 177.896 132.016 178.077 131.854 178.229C131.696 178.377 131.503 178.451 131.276 178.451ZM136.43 179.303V180.396H132.98V179.303H136.43ZM133.832 177.865H135.246V183.498C135.246 183.688 135.275 183.834 135.332 183.936C135.392 184.035 135.47 184.102 135.566 184.139C135.663 184.175 135.77 184.193 135.887 184.193C135.975 184.193 136.056 184.187 136.129 184.174C136.204 184.161 136.262 184.149 136.301 184.139L136.539 185.244C136.464 185.27 136.355 185.299 136.215 185.33C136.077 185.361 135.908 185.38 135.707 185.385C135.353 185.395 135.034 185.342 134.75 185.225C134.466 185.105 134.241 184.92 134.074 184.67C133.91 184.42 133.829 184.107 133.832 183.732V177.865Z" fill="#8A98AC"/>
<path d="M142.95 187.678C142.442 187.678 142.006 187.609 141.642 187.471C141.277 187.335 140.984 187.153 140.763 186.924C140.541 186.695 140.388 186.441 140.302 186.162L141.575 185.854C141.632 185.971 141.716 186.087 141.825 186.201C141.935 186.318 142.082 186.415 142.267 186.49C142.454 186.568 142.69 186.607 142.974 186.607C143.375 186.607 143.707 186.51 143.97 186.314C144.233 186.122 144.364 185.804 144.364 185.361V184.225H144.294C144.221 184.37 144.114 184.52 143.974 184.674C143.836 184.827 143.652 184.956 143.423 185.061C143.196 185.165 142.911 185.217 142.567 185.217C142.106 185.217 141.688 185.109 141.313 184.893C140.941 184.674 140.644 184.348 140.423 183.916C140.204 183.481 140.095 182.937 140.095 182.283C140.095 181.624 140.204 181.068 140.423 180.615C140.644 180.16 140.942 179.814 141.317 179.58C141.692 179.343 142.11 179.225 142.571 179.225C142.923 179.225 143.212 179.285 143.438 179.404C143.668 179.521 143.85 179.663 143.985 179.83C144.121 179.994 144.224 180.149 144.294 180.295H144.372V179.303H145.767V185.4C145.767 185.913 145.644 186.338 145.399 186.674C145.155 187.01 144.82 187.261 144.396 187.428C143.971 187.594 143.489 187.678 142.95 187.678ZM142.962 184.107C143.261 184.107 143.517 184.035 143.728 183.889C143.938 183.743 144.099 183.533 144.208 183.26C144.317 182.986 144.372 182.658 144.372 182.275C144.372 181.898 144.317 181.567 144.208 181.283C144.101 180.999 143.942 180.779 143.731 180.623C143.523 180.464 143.267 180.385 142.962 180.385C142.647 180.385 142.384 180.467 142.173 180.631C141.962 180.795 141.803 181.02 141.696 181.307C141.59 181.59 141.536 181.913 141.536 182.275C141.536 182.643 141.59 182.964 141.696 183.24C141.806 183.514 141.966 183.727 142.177 183.881C142.39 184.032 142.652 184.107 142.962 184.107ZM149.872 185.42C149.271 185.42 148.751 185.295 148.313 185.045C147.879 184.792 147.544 184.436 147.31 183.975C147.075 183.511 146.958 182.965 146.958 182.338C146.958 181.721 147.075 181.179 147.31 180.713C147.547 180.244 147.877 179.88 148.302 179.619C148.726 179.356 149.225 179.225 149.798 179.225C150.168 179.225 150.517 179.285 150.845 179.404C151.175 179.521 151.467 179.704 151.72 179.951C151.975 180.199 152.175 180.514 152.321 180.896C152.467 181.277 152.54 181.73 152.54 182.256V182.689H147.622V181.736H151.185C151.182 181.465 151.123 181.225 151.009 181.014C150.894 180.8 150.734 180.632 150.528 180.51C150.325 180.387 150.088 180.326 149.817 180.326C149.528 180.326 149.274 180.396 149.056 180.537C148.837 180.675 148.666 180.857 148.544 181.084C148.424 181.308 148.363 181.554 148.36 181.822V182.654C148.36 183.003 148.424 183.303 148.552 183.553C148.679 183.8 148.858 183.99 149.087 184.123C149.316 184.253 149.584 184.318 149.892 184.318C150.097 184.318 150.284 184.29 150.45 184.232C150.617 184.173 150.761 184.085 150.884 183.971C151.006 183.856 151.099 183.714 151.161 183.545L152.481 183.693C152.398 184.042 152.239 184.347 152.005 184.607C151.773 184.865 151.476 185.066 151.114 185.209C150.752 185.35 150.338 185.42 149.872 185.42ZM156.732 179.303V180.396H153.283V179.303H156.732ZM154.135 177.865H155.549V183.498C155.549 183.688 155.577 183.834 155.635 183.936C155.695 184.035 155.773 184.102 155.869 184.139C155.965 184.175 156.072 184.193 156.189 184.193C156.278 184.193 156.359 184.187 156.432 184.174C156.507 184.161 156.564 184.149 156.604 184.139L156.842 185.244C156.766 185.27 156.658 185.299 156.518 185.33C156.38 185.361 156.21 185.38 156.01 185.385C155.656 185.395 155.337 185.342 155.053 185.225C154.769 185.105 154.544 184.92 154.377 184.67C154.213 184.42 154.132 184.107 154.135 183.732V177.865ZM158.106 185.303V177.303H163.31V178.518H159.556V180.689H163.04V181.904H159.556V184.088H163.341V185.303H158.106ZM170.085 179.303L167.948 185.303H166.386L164.249 179.303H165.757L167.136 183.76H167.198L168.581 179.303H170.085ZM173.516 185.42C172.914 185.42 172.395 185.295 171.957 185.045C171.522 184.792 171.188 184.436 170.953 183.975C170.719 183.511 170.602 182.965 170.602 182.338C170.602 181.721 170.719 181.179 170.953 180.713C171.19 180.244 171.521 179.88 171.945 179.619C172.37 179.356 172.868 179.225 173.441 179.225C173.811 179.225 174.16 179.285 174.488 179.404C174.819 179.521 175.111 179.704 175.363 179.951C175.618 180.199 175.819 180.514 175.965 180.896C176.111 181.277 176.184 181.73 176.184 182.256V182.689H171.266V181.736H174.828C174.826 181.465 174.767 181.225 174.652 181.014C174.538 180.8 174.378 180.632 174.172 180.51C173.969 180.387 173.732 180.326 173.461 180.326C173.172 180.326 172.918 180.396 172.699 180.537C172.48 180.675 172.31 180.857 172.188 181.084C172.068 181.308 172.007 181.554 172.004 181.822V182.654C172.004 183.003 172.068 183.303 172.195 183.553C172.323 183.8 172.501 183.99 172.73 184.123C172.96 184.253 173.228 184.318 173.535 184.318C173.741 184.318 173.927 184.29 174.094 184.232C174.26 184.173 174.405 184.085 174.527 183.971C174.65 183.856 174.742 183.714 174.805 183.545L176.125 183.693C176.042 184.042 175.883 184.347 175.648 184.607C175.417 184.865 175.12 185.066 174.758 185.209C174.396 185.35 173.982 185.42 173.516 185.42ZM178.794 181.787V185.303H177.38V179.303H178.731V180.322H178.802C178.94 179.986 179.16 179.719 179.462 179.521C179.767 179.324 180.143 179.225 180.591 179.225C181.005 179.225 181.366 179.313 181.673 179.49C181.983 179.667 182.222 179.924 182.392 180.26C182.563 180.596 182.648 181.003 182.646 181.482V185.303H181.231V181.701C181.231 181.3 181.127 180.986 180.919 180.76C180.713 180.533 180.428 180.42 180.063 180.42C179.816 180.42 179.596 180.475 179.403 180.584C179.213 180.691 179.063 180.846 178.954 181.049C178.847 181.252 178.794 181.498 178.794 181.787ZM187.079 179.303V180.396H183.63V179.303H187.079ZM184.481 177.865H185.896V183.498C185.896 183.688 185.924 183.834 185.981 183.936C186.041 184.035 186.119 184.102 186.216 184.139C186.312 184.175 186.419 184.193 186.536 184.193C186.625 184.193 186.705 184.187 186.778 184.174C186.854 184.161 186.911 184.149 186.95 184.139L187.188 185.244C187.113 185.27 187.005 185.299 186.864 185.33C186.726 185.361 186.557 185.38 186.356 185.385C186.002 185.395 185.683 185.342 185.399 185.225C185.116 185.105 184.89 184.92 184.724 184.67C184.56 184.42 184.479 184.107 184.481 183.732V177.865ZM192.918 180.889L191.629 181.029C191.592 180.899 191.529 180.777 191.438 180.662C191.349 180.548 191.229 180.455 191.078 180.385C190.927 180.314 190.742 180.279 190.523 180.279C190.229 180.279 189.982 180.343 189.781 180.471C189.583 180.598 189.486 180.764 189.488 180.967C189.486 181.141 189.549 181.283 189.68 181.393C189.813 181.502 190.031 181.592 190.336 181.662L191.359 181.881C191.927 182.003 192.349 182.197 192.625 182.463C192.904 182.729 193.044 183.076 193.047 183.506C193.044 183.883 192.934 184.217 192.715 184.506C192.499 184.792 192.198 185.016 191.813 185.178C191.427 185.339 190.984 185.42 190.484 185.42C189.75 185.42 189.159 185.266 188.711 184.959C188.263 184.649 187.996 184.218 187.91 183.666L189.289 183.533C189.352 183.804 189.484 184.008 189.688 184.146C189.891 184.285 190.155 184.354 190.48 184.354C190.816 184.354 191.086 184.285 191.289 184.146C191.495 184.008 191.598 183.838 191.598 183.635C191.598 183.463 191.531 183.321 191.398 183.209C191.268 183.097 191.065 183.011 190.789 182.951L189.766 182.736C189.19 182.617 188.764 182.415 188.488 182.131C188.212 181.844 188.076 181.482 188.078 181.045C188.076 180.675 188.176 180.355 188.379 180.084C188.585 179.811 188.87 179.6 189.234 179.451C189.602 179.3 190.025 179.225 190.504 179.225C191.207 179.225 191.76 179.374 192.164 179.674C192.57 179.973 192.822 180.378 192.918 180.889ZM194.564 182.041C194.564 181.064 194.693 180.167 194.951 179.35C195.212 178.529 195.598 177.771 196.111 177.076H197.443C197.245 177.334 197.061 177.65 196.889 178.025C196.717 178.398 196.567 178.807 196.439 179.252C196.314 179.695 196.215 180.154 196.143 180.631C196.072 181.107 196.037 181.577 196.037 182.041C196.037 182.658 196.098 183.283 196.221 183.916C196.346 184.549 196.514 185.135 196.725 185.674C196.938 186.215 197.178 186.658 197.443 187.002H196.111C195.598 186.307 195.212 185.55 194.951 184.732C194.693 183.912 194.564 183.015 194.564 182.041ZM201.065 182.041C201.065 183.015 200.935 183.912 200.675 184.732C200.417 185.55 200.032 186.307 199.519 187.002H198.187C198.387 186.744 198.572 186.429 198.741 186.057C198.913 185.684 199.062 185.275 199.187 184.83C199.314 184.385 199.413 183.924 199.483 183.447C199.556 182.971 199.593 182.502 199.593 182.041C199.593 181.424 199.53 180.799 199.405 180.166C199.283 179.533 199.115 178.946 198.901 178.404C198.69 177.863 198.452 177.42 198.187 177.076H199.519C200.032 177.771 200.417 178.529 200.675 179.35C200.935 180.167 201.065 181.064 201.065 182.041Z" fill="white"/>
<path d="M95.582 185.412C95.0195 185.412 94.5195 185.316 94.082 185.123C93.6471 184.93 93.3034 184.662 93.0508 184.318C92.7982 183.975 92.6641 183.577 92.6484 183.127H94.1172C94.1302 183.343 94.2018 183.532 94.332 183.693C94.4622 183.852 94.6354 183.976 94.8516 184.064C95.0677 184.153 95.3099 184.197 95.5781 184.197C95.8646 184.197 96.1185 184.148 96.3398 184.049C96.5612 183.947 96.7344 183.807 96.8594 183.627C96.9844 183.447 97.0456 183.24 97.043 183.006C97.0456 182.764 96.9831 182.55 96.8555 182.365C96.7279 182.18 96.543 182.036 96.3008 181.932C96.0612 181.827 95.7721 181.775 95.4336 181.775H94.7266V180.658H95.4336C95.7122 180.658 95.9557 180.61 96.1641 180.514C96.375 180.417 96.5404 180.282 96.6602 180.107C96.7799 179.93 96.8385 179.726 96.8359 179.494C96.8385 179.268 96.7878 179.071 96.6836 178.904C96.582 178.735 96.4375 178.604 96.25 178.51C96.0651 178.416 95.8477 178.369 95.5977 178.369C95.3529 178.369 95.1263 178.413 94.918 178.502C94.7096 178.59 94.5417 178.717 94.4141 178.881C94.2865 179.042 94.2188 179.235 94.2109 179.459H92.8164C92.8268 179.011 92.9557 178.618 93.2031 178.279C93.4531 177.938 93.7865 177.673 94.2031 177.482C94.6198 177.29 95.0872 177.193 95.6055 177.193C96.1393 177.193 96.6029 177.294 96.9961 177.494C97.3919 177.692 97.6979 177.959 97.9141 178.295C98.1302 178.631 98.2383 179.002 98.2383 179.408C98.2409 179.859 98.1081 180.236 97.8398 180.541C97.5742 180.846 97.2253 181.045 96.793 181.139V181.201C97.3555 181.279 97.7865 181.488 98.0859 181.826C98.388 182.162 98.5378 182.58 98.5352 183.08C98.5352 183.528 98.4076 183.929 98.1523 184.283C97.8997 184.635 97.5508 184.911 97.1055 185.111C96.6628 185.312 96.1549 185.412 95.582 185.412Z" fill="#516075"/>
<path d="M92.5664 206.818V205.666L95.9609 200.303H96.9219V201.943H96.3359L94.0508 205.564V205.627H98.7891V206.818H92.5664ZM96.3828 208.303V206.467L96.3984 205.951V200.303H97.7656V208.303H96.3828Z" fill="#516075"/>
<path d="M54 79.3027C54 77.0936 55.7909 75.3027 58 75.3027H165C167.209 75.3027 169 77.0936 169 79.3027V102.303H54V79.3027Z" fill="#323A47" fill-opacity="0.75"/>
<circle cx="37.5" cy="89.8027" r="8.5" fill="#454F5F"/>
<circle cx="37.5" cy="121.803" r="8.5" fill="#454F5F"/>
<circle cx="37.5" cy="151.803" r="8.5" fill="#454F5F"/>
<path d="M44.1367 46.502C44.1003 46.1608 43.9466 45.8952 43.6758 45.7051C43.4076 45.515 43.0586 45.4199 42.6289 45.4199C42.3268 45.4199 42.0677 45.4655 41.8516 45.5566C41.6354 45.6478 41.4701 45.7715 41.3555 45.9277C41.2409 46.084 41.1823 46.2624 41.1797 46.4629C41.1797 46.6296 41.2174 46.7741 41.293 46.8965C41.3711 47.0189 41.4766 47.123 41.6094 47.209C41.7422 47.2923 41.8893 47.3626 42.0508 47.4199C42.2122 47.4772 42.375 47.5254 42.5391 47.5645L43.2891 47.752C43.5911 47.8223 43.8815 47.9173 44.1602 48.0371C44.4414 48.1569 44.6927 48.3079 44.9141 48.4902C45.138 48.6725 45.3151 48.8926 45.4453 49.1504C45.5755 49.4082 45.6406 49.7103 45.6406 50.0566C45.6406 50.5254 45.5208 50.9382 45.2813 51.2949C45.0417 51.6491 44.6953 51.9264 44.2422 52.127C43.7917 52.3249 43.2461 52.4238 42.6055 52.4238C41.9831 52.4238 41.4427 52.3275 40.9844 52.1348C40.5286 51.9421 40.1719 51.6608 39.9141 51.291C39.6589 50.9212 39.5208 50.4707 39.5 49.9395H40.9258C40.9466 50.2181 41.0326 50.4499 41.1836 50.6348C41.3346 50.8197 41.5313 50.9577 41.7734 51.0488C42.0182 51.14 42.2917 51.1855 42.5938 51.1855C42.9089 51.1855 43.1849 51.1387 43.4219 51.0449C43.6615 50.9486 43.849 50.8158 43.9844 50.6465C44.1198 50.4746 44.1888 50.2741 44.1914 50.0449C44.1888 49.8366 44.1276 49.6647 44.0078 49.5293C43.888 49.3913 43.7201 49.2767 43.5039 49.1855C43.2904 49.0918 43.0404 49.0085 42.7539 48.9355L41.8438 48.7012C41.1849 48.5319 40.6641 48.2754 40.2813 47.9316C39.901 47.5853 39.7109 47.1257 39.7109 46.5527C39.7109 46.0814 39.8385 45.6686 40.0938 45.3145C40.3516 44.9603 40.7018 44.6855 41.1445 44.4902C41.5872 44.2923 42.0885 44.1934 42.6484 44.1934C43.2161 44.1934 43.7135 44.2923 44.1406 44.4902C44.5703 44.6855 44.9076 44.9577 45.1523 45.3066C45.3971 45.653 45.5234 46.0514 45.5312 46.502H44.1367ZM49.6436 52.3027H46.9326V44.3027H49.6982C50.4925 44.3027 51.1748 44.4629 51.7451 44.7832C52.318 45.1009 52.7581 45.5579 53.0654 46.1543C53.3727 46.7507 53.5264 47.4642 53.5264 48.2949C53.5264 49.1283 53.3714 49.8444 53.0615 50.4434C52.7542 51.0423 52.3102 51.502 51.7295 51.8223C51.1514 52.1426 50.4561 52.3027 49.6436 52.3027ZM48.3818 51.0488H49.5732C50.1305 51.0488 50.5954 50.9473 50.9678 50.7441C51.3402 50.5384 51.6201 50.2324 51.8076 49.8262C51.9951 49.4173 52.0889 48.9069 52.0889 48.2949C52.0889 47.6829 51.9951 47.1751 51.8076 46.7715C51.6201 46.3652 51.3428 46.0618 50.9756 45.8613C50.611 45.6582 50.1579 45.5566 49.6162 45.5566H48.3818V51.0488ZM54.9033 52.3027V44.3027H56.3525V47.9785H56.4502L59.5713 44.3027H61.3408L58.2471 47.8926L61.3682 52.3027H59.626L57.2393 48.873L56.3525 49.9199V52.3027H54.9033ZM71.9238 47.002H70.4629C70.4212 46.7624 70.3444 46.5501 70.2324 46.3652C70.1204 46.1777 69.9811 46.0189 69.8145 45.8887C69.6478 45.7585 69.4577 45.6608 69.2441 45.5957C69.0332 45.528 68.8053 45.4941 68.5605 45.4941C68.1257 45.4941 67.7402 45.6035 67.4043 45.8223C67.0684 46.0384 66.8053 46.3561 66.6152 46.7754C66.4251 47.1921 66.3301 47.7012 66.3301 48.3027C66.3301 48.9147 66.4251 49.4303 66.6152 49.8496C66.8079 50.2663 67.071 50.5814 67.4043 50.7949C67.7402 51.0059 68.1243 51.1113 68.5566 51.1113C68.7962 51.1113 69.0202 51.0801 69.2285 51.0176C69.4395 50.9525 69.6283 50.8574 69.7949 50.7324C69.9642 50.6074 70.1061 50.4538 70.2207 50.2715C70.3379 50.0892 70.4186 49.8809 70.4629 49.6465L71.9238 49.6543C71.8691 50.0345 71.7507 50.3913 71.5684 50.7246C71.3887 51.0579 71.153 51.3522 70.8613 51.6074C70.5697 51.86 70.2285 52.0579 69.8379 52.2012C69.4473 52.3418 69.0137 52.4121 68.5371 52.4121C67.834 52.4121 67.2064 52.2493 66.6543 51.9238C66.1022 51.5983 65.6673 51.1283 65.3496 50.5137C65.0319 49.8991 64.873 49.1621 64.873 48.3027C64.873 47.4408 65.0332 46.7038 65.3535 46.0918C65.6738 45.4772 66.11 45.0072 66.6621 44.6816C67.2142 44.3561 67.8392 44.1934 68.5371 44.1934C68.9824 44.1934 69.3965 44.2559 69.7793 44.3809C70.1621 44.5059 70.5033 44.6895 70.8027 44.9316C71.1022 45.1712 71.3483 45.4655 71.541 45.8145C71.7363 46.1608 71.8639 46.5566 71.9238 47.002ZM75.8057 52.4199C75.2197 52.4199 74.7119 52.291 74.2822 52.0332C73.8525 51.7754 73.5192 51.4147 73.2822 50.9512C73.0479 50.4876 72.9307 49.946 72.9307 49.3262C72.9307 48.7064 73.0479 48.1634 73.2822 47.6973C73.5192 47.2311 73.8525 46.8691 74.2822 46.6113C74.7119 46.3535 75.2197 46.2246 75.8057 46.2246C76.3916 46.2246 76.8994 46.3535 77.3291 46.6113C77.7588 46.8691 78.0908 47.2311 78.3252 47.6973C78.5622 48.1634 78.6807 48.7064 78.6807 49.3262C78.6807 49.946 78.5622 50.4876 78.3252 50.9512C78.0908 51.4147 77.7588 51.7754 77.3291 52.0332C76.8994 52.291 76.3916 52.4199 75.8057 52.4199ZM75.8135 51.2871C76.1312 51.2871 76.3968 51.1999 76.6104 51.0254C76.8239 50.8483 76.9827 50.6113 77.0869 50.3145C77.1937 50.0176 77.2471 49.6868 77.2471 49.3223C77.2471 48.9551 77.1937 48.623 77.0869 48.3262C76.9827 48.0267 76.8239 47.7884 76.6104 47.6113C76.3968 47.4342 76.1312 47.3457 75.8135 47.3457C75.488 47.3457 75.2171 47.4342 75.001 47.6113C74.7874 47.7884 74.6273 48.0267 74.5205 48.3262C74.4163 48.623 74.3643 48.9551 74.3643 49.3223C74.3643 49.6868 74.4163 50.0176 74.5205 50.3145C74.6273 50.6113 74.7874 50.8483 75.001 51.0254C75.2171 51.1999 75.488 51.2871 75.8135 51.2871ZM81.2949 48.7871V52.3027H79.8809V46.3027H81.2324V47.3223H81.3027C81.4408 46.9863 81.6608 46.7194 81.9629 46.5215C82.2676 46.3236 82.6439 46.2246 83.0918 46.2246C83.5059 46.2246 83.8665 46.3132 84.1738 46.4902C84.4837 46.6673 84.7233 46.9238 84.8926 47.2598C85.0645 47.5957 85.1491 48.0033 85.1465 48.4824V52.3027H83.7324V48.7012C83.7324 48.3001 83.6283 47.9863 83.4199 47.7598C83.2142 47.5332 82.929 47.4199 82.5645 47.4199C82.3171 47.4199 82.097 47.4746 81.9043 47.584C81.7142 47.6908 81.5645 47.8457 81.4551 48.0488C81.3483 48.252 81.2949 48.498 81.2949 48.7871ZM87.998 48.7871V52.3027H86.584V46.3027H87.9355V47.3223H88.0059C88.1439 46.9863 88.3639 46.7194 88.666 46.5215C88.9707 46.3236 89.347 46.2246 89.7949 46.2246C90.209 46.2246 90.5697 46.3132 90.877 46.4902C91.1868 46.6673 91.4264 46.9238 91.5957 47.2598C91.7676 47.5957 91.8522 48.0033 91.8496 48.4824V52.3027H90.4355V48.7012C90.4355 48.3001 90.3314 47.9863 90.123 47.7598C89.9173 47.5332 89.6322 47.4199 89.2676 47.4199C89.0202 47.4199 88.8001 47.4746 88.6074 47.584C88.4173 47.6908 88.2676 47.8457 88.1582 48.0488C88.0514 48.252 87.998 48.498 87.998 48.7871ZM95.9434 52.4199C95.3418 52.4199 94.8223 52.2949 94.3848 52.0449C93.9499 51.7923 93.6152 51.4355 93.3809 50.9746C93.1465 50.5111 93.0293 49.9655 93.0293 49.3379C93.0293 48.7207 93.1465 48.179 93.3809 47.7129C93.6178 47.2441 93.9486 46.8796 94.373 46.6191C94.7975 46.3561 95.2962 46.2246 95.8691 46.2246C96.2389 46.2246 96.5879 46.2845 96.916 46.4043C97.2467 46.5215 97.5384 46.7038 97.791 46.9512C98.0462 47.1986 98.2467 47.5137 98.3926 47.8965C98.5384 48.2767 98.6113 48.7298 98.6113 49.2559V49.6895H93.6934V48.7363H97.2559C97.2533 48.4655 97.1947 48.2246 97.0801 48.0137C96.9655 47.8001 96.8053 47.6322 96.5996 47.5098C96.3965 47.3874 96.1595 47.3262 95.8887 47.3262C95.5996 47.3262 95.3457 47.3965 95.127 47.5371C94.9082 47.6751 94.7376 47.8574 94.6152 48.084C94.4954 48.3079 94.4342 48.554 94.4316 48.8223V49.6543C94.4316 50.0033 94.4954 50.3027 94.623 50.5527C94.7507 50.8001 94.929 50.9902 95.1582 51.123C95.3874 51.2533 95.6556 51.3184 95.9629 51.3184C96.1686 51.3184 96.3548 51.2897 96.5215 51.2324C96.6882 51.1725 96.8327 51.0853 96.9551 50.9707C97.0775 50.8561 97.1699 50.7142 97.2324 50.5449L98.5527 50.6934C98.4694 51.0423 98.3105 51.347 98.0762 51.6074C97.8444 51.8652 97.5475 52.0658 97.1855 52.209C96.8236 52.3496 96.4095 52.4199 95.9434 52.4199ZM102.425 52.4199C101.826 52.4199 101.312 52.2884 100.882 52.0254C100.455 51.7624 100.125 51.3991 99.8936 50.9355C99.6644 50.4694 99.5498 49.9329 99.5498 49.3262C99.5498 48.7168 99.667 48.179 99.9014 47.7129C100.136 47.2441 100.466 46.8796 100.894 46.6191C101.323 46.3561 101.831 46.2246 102.417 46.2246C102.904 46.2246 103.335 46.3145 103.71 46.4941C104.088 46.6712 104.388 46.9225 104.612 47.248C104.836 47.571 104.964 47.9486 104.995 48.3809H103.644C103.589 48.0918 103.459 47.8509 103.253 47.6582C103.05 47.4629 102.778 47.3652 102.437 47.3652C102.147 47.3652 101.894 47.4434 101.675 47.5996C101.456 47.7533 101.285 47.9746 101.163 48.2637C101.043 48.5527 100.983 48.8991 100.983 49.3027C100.983 49.7116 101.043 50.0632 101.163 50.3574C101.283 50.6491 101.451 50.8743 101.667 51.0332C101.886 51.1895 102.142 51.2676 102.437 51.2676C102.645 51.2676 102.831 51.2285 102.995 51.1504C103.162 51.0697 103.301 50.9538 103.413 50.8027C103.525 50.6517 103.602 50.4681 103.644 50.252H104.995C104.961 50.6764 104.836 51.0527 104.62 51.3809C104.404 51.7064 104.11 51.9616 103.737 52.1465C103.365 52.3288 102.927 52.4199 102.425 52.4199ZM109.152 46.3027V47.3965H105.703V46.3027H109.152ZM106.555 44.8652H107.969V50.498C107.969 50.6882 107.997 50.834 108.055 50.9355C108.115 51.0345 108.193 51.1022 108.289 51.1387C108.385 51.1751 108.492 51.1934 108.609 51.1934C108.698 51.1934 108.779 51.1868 108.852 51.1738C108.927 51.1608 108.984 51.1491 109.023 51.1387L109.262 52.2441C109.186 52.2702 109.078 52.2988 108.938 52.3301C108.799 52.3613 108.63 52.3796 108.43 52.3848C108.076 52.3952 107.757 52.3418 107.473 52.2246C107.189 52.1048 106.964 51.9199 106.797 51.6699C106.633 51.4199 106.552 51.1074 106.555 50.7324V44.8652ZM110.335 52.3027V46.3027H111.749V52.3027H110.335ZM111.046 45.4512C110.822 45.4512 110.629 45.377 110.468 45.2285C110.306 45.0775 110.226 44.8965 110.226 44.6855C110.226 44.472 110.306 44.291 110.468 44.1426C110.629 43.9915 110.822 43.916 111.046 43.916C111.272 43.916 111.465 43.9915 111.624 44.1426C111.785 44.291 111.866 44.472 111.866 44.6855C111.866 44.8965 111.785 45.0775 111.624 45.2285C111.465 45.377 111.272 45.4512 111.046 45.4512ZM115.82 52.4199C115.234 52.4199 114.727 52.291 114.297 52.0332C113.867 51.7754 113.534 51.4147 113.297 50.9512C113.063 50.4876 112.945 49.946 112.945 49.3262C112.945 48.7064 113.063 48.1634 113.297 47.6973C113.534 47.2311 113.867 46.8691 114.297 46.6113C114.727 46.3535 115.234 46.2246 115.82 46.2246C116.406 46.2246 116.914 46.3535 117.344 46.6113C117.773 46.8691 118.105 47.2311 118.34 47.6973C118.577 48.1634 118.695 48.7064 118.695 49.3262C118.695 49.946 118.577 50.4876 118.34 50.9512C118.105 51.4147 117.773 51.7754 117.344 52.0332C116.914 52.291 116.406 52.4199 115.82 52.4199ZM115.828 51.2871C116.146 51.2871 116.411 51.1999 116.625 51.0254C116.839 50.8483 116.997 50.6113 117.102 50.3145C117.208 50.0176 117.262 49.6868 117.262 49.3223C117.262 48.9551 117.208 48.623 117.102 48.3262C116.997 48.0267 116.839 47.7884 116.625 47.6113C116.411 47.4342 116.146 47.3457 115.828 47.3457C115.503 47.3457 115.232 47.4342 115.016 47.6113C114.802 47.7884 114.642 48.0267 114.535 48.3262C114.431 48.623 114.379 48.9551 114.379 49.3223C114.379 49.6868 114.431 50.0176 114.535 50.3145C114.642 50.6113 114.802 50.8483 115.016 51.0254C115.232 51.1999 115.503 51.2871 115.828 51.2871ZM121.31 48.7871V52.3027H119.896V46.3027H121.247V47.3223H121.317C121.455 46.9863 121.675 46.7194 121.978 46.5215C122.282 46.3236 122.659 46.2246 123.106 46.2246C123.521 46.2246 123.881 46.3132 124.188 46.4902C124.498 46.6673 124.738 46.9238 124.907 47.2598C125.079 47.5957 125.164 48.0033 125.161 48.4824V52.3027H123.747V48.7012C123.747 48.3001 123.643 47.9863 123.435 47.7598C123.229 47.5332 122.944 47.4199 122.579 47.4199C122.332 47.4199 122.112 47.4746 121.919 47.584C121.729 47.6908 121.579 47.8457 121.47 48.0488C121.363 48.252 121.31 48.498 121.31 48.7871Z" fill="white"/>
<path d="M81.2202 86.03H82.7081L84.4872 89.2473H84.5582L86.3374 86.03H87.8253L85.1797 90.5897V93.3027H83.8658V90.5897L81.2202 86.03ZM90.0652 93.4093C89.5325 93.4093 89.0708 93.2921 88.6802 93.0577C88.2896 92.8233 87.9866 92.4954 87.7711 92.074C87.5581 91.6526 87.4515 91.1602 87.4515 90.5968C87.4515 90.0333 87.5581 89.5397 87.7711 89.1159C87.9866 88.6922 88.2896 88.3631 88.6802 88.1287C89.0708 87.8944 89.5325 87.7772 90.0652 87.7772C90.5978 87.7772 91.0595 87.8944 91.4501 88.1287C91.8407 88.3631 92.1426 88.6922 92.3556 89.1159C92.5711 89.5397 92.6788 90.0333 92.6788 90.5968C92.6788 91.1602 92.5711 91.6526 92.3556 92.074C92.1426 92.4954 91.8407 92.8233 91.4501 93.0577C91.0595 93.2921 90.5978 93.4093 90.0652 93.4093ZM90.0723 92.3794C90.3611 92.3794 90.6026 92.3001 90.7967 92.1415C90.9908 91.9805 91.1352 91.7651 91.2299 91.4952C91.327 91.2253 91.3755 90.9247 91.3755 90.5932C91.3755 90.2594 91.327 89.9576 91.2299 89.6877C91.1352 89.4154 90.9908 89.1988 90.7967 89.0378C90.6026 88.8768 90.3611 88.7963 90.0723 88.7963C89.7763 88.7963 89.5301 88.8768 89.3336 89.0378C89.1395 89.1988 88.9939 89.4154 88.8968 89.6877C88.8021 89.9576 88.7548 90.2594 88.7548 90.5932C88.7548 90.9247 88.8021 91.2253 88.8968 91.4952C88.9939 91.7651 89.1395 91.9805 89.3336 92.1415C89.5301 92.3001 89.7763 92.3794 90.0723 92.3794ZM97.2464 91.0087V87.8482H98.532V93.3027H97.2855V92.3333H97.2287C97.1056 92.6387 96.9032 92.8884 96.6214 93.0826C96.3421 93.2767 95.9976 93.3738 95.5881 93.3738C95.2306 93.3738 94.9145 93.2944 94.6399 93.1358C94.3677 92.9748 94.1546 92.7417 94.0007 92.4363C93.8468 92.1285 93.7699 91.7568 93.7699 91.3212V87.8482H95.0554V91.1223C95.0554 91.468 95.1501 91.7426 95.3395 91.9462C95.5289 92.1498 95.7775 92.2516 96.0852 92.2516C96.2746 92.2516 96.4581 92.2054 96.6357 92.1131C96.8132 92.0208 96.9588 91.8835 97.0724 91.7012C97.1884 91.5165 97.2464 91.2857 97.2464 91.0087ZM99.8539 93.3027V87.8482H101.1V88.7573H101.157C101.257 88.4424 101.427 88.1998 101.669 88.0293C101.912 87.8565 102.191 87.7701 102.503 87.7701C102.574 87.7701 102.653 87.7736 102.741 87.7807C102.831 87.7855 102.905 87.7937 102.965 87.8056V88.9881C102.91 88.9692 102.824 88.9526 102.705 88.9384C102.589 88.9218 102.477 88.9135 102.368 88.9135C102.134 88.9135 101.923 88.9644 101.736 89.0662C101.551 89.1657 101.406 89.3042 101.299 89.4817C101.193 89.6593 101.139 89.8641 101.139 90.0961V93.3027H99.8539ZM104.409 93.3027H103.003L105.563 86.03H107.19L109.754 93.3027H108.347L106.405 87.5215H106.348L104.409 93.3027ZM104.455 90.4512H108.29V91.5094H104.455V90.4512ZM110.655 95.3482V87.8482H111.919V88.7502H111.993C112.06 88.6176 112.153 88.4767 112.274 88.3276C112.395 88.1761 112.558 88.0471 112.764 87.9405C112.97 87.8316 113.233 87.7772 113.552 87.7772C113.974 87.7772 114.354 87.8849 114.692 88.1003C115.033 88.3134 115.303 88.6294 115.502 89.0485C115.703 89.4651 115.804 89.9765 115.804 90.5826C115.804 91.1815 115.706 91.6905 115.509 92.1096C115.313 92.5286 115.045 92.8482 114.706 93.0684C114.368 93.2885 113.984 93.3986 113.556 93.3986C113.243 93.3986 112.984 93.3465 112.778 93.2424C112.572 93.1382 112.407 93.0127 112.281 92.8659C112.158 92.7168 112.062 92.5759 111.993 92.4434H111.94V95.3482H110.655ZM111.915 90.5755C111.915 90.9282 111.965 91.2372 112.064 91.5023C112.166 91.7675 112.312 91.9746 112.501 92.1238C112.693 92.2705 112.925 92.3439 113.197 92.3439C113.481 92.3439 113.719 92.2682 113.911 92.1167C114.103 91.9628 114.247 91.7533 114.344 91.4881C114.444 91.2206 114.493 90.9164 114.493 90.5755C114.493 90.2369 114.445 89.9363 114.348 89.6735C114.251 89.4107 114.106 89.2047 113.915 89.0556C113.723 88.9064 113.484 88.8319 113.197 88.8319C112.923 88.8319 112.689 88.9041 112.498 89.0485C112.306 89.1929 112.16 89.3953 112.061 89.6557C111.964 89.9161 111.915 90.2227 111.915 90.5755ZM116.905 95.3482V87.8482H118.169V88.7502H118.243C118.31 88.6176 118.403 88.4767 118.524 88.3276C118.645 88.1761 118.808 88.0471 119.014 87.9405C119.22 87.8316 119.483 87.7772 119.802 87.7772C120.224 87.7772 120.604 87.8849 120.942 88.1003C121.283 88.3134 121.553 88.6294 121.752 89.0485C121.953 89.4651 122.054 89.9765 122.054 90.5826C122.054 91.1815 121.956 91.6905 121.759 92.1096C121.563 92.5286 121.295 92.8482 120.956 93.0684C120.618 93.2885 120.234 93.3986 119.806 93.3986C119.493 93.3986 119.234 93.3465 119.028 93.2424C118.822 93.1382 118.657 93.0127 118.531 92.8659C118.408 92.7168 118.312 92.5759 118.243 92.4434H118.19V95.3482H116.905ZM118.165 90.5755C118.165 90.9282 118.215 91.2372 118.314 91.5023C118.416 91.7675 118.562 91.9746 118.751 92.1238C118.943 92.2705 119.175 92.3439 119.447 92.3439C119.731 92.3439 119.969 92.2682 120.161 92.1167C120.353 91.9628 120.497 91.7533 120.594 91.4881C120.694 91.2206 120.743 90.9164 120.743 90.5755C120.743 90.2369 120.695 89.9363 120.598 89.6735C120.501 89.4107 120.356 89.2047 120.165 89.0556C119.973 88.9064 119.734 88.8319 119.447 88.8319C119.173 88.8319 118.939 88.9041 118.748 89.0485C118.556 89.1929 118.41 89.3953 118.311 89.6557C118.214 89.9161 118.165 90.2227 118.165 90.5755ZM123.947 93.3809C123.731 93.3809 123.546 93.3051 123.393 93.1536C123.239 93.0021 123.163 92.8174 123.165 92.5996C123.163 92.3865 123.239 92.2042 123.393 92.0527C123.546 91.9012 123.731 91.8255 123.947 91.8255C124.155 91.8255 124.336 91.9012 124.49 92.0527C124.646 92.2042 124.725 92.3865 124.728 92.5996C124.725 92.744 124.688 92.8754 124.614 92.9938C124.543 93.1122 124.448 93.2069 124.33 93.2779C124.214 93.3465 124.086 93.3809 123.947 93.3809ZM128.779 87.8482V88.8425H125.643V87.8482H128.779ZM126.417 86.5414H127.703V91.6621C127.703 91.8349 127.729 91.9675 127.781 92.0598C127.835 92.1498 127.906 92.2114 127.994 92.2445C128.082 92.2776 128.179 92.2942 128.285 92.2942C128.366 92.2942 128.439 92.2883 128.505 92.2765C128.574 92.2646 128.626 92.254 128.662 92.2445L128.878 93.2495C128.81 93.2731 128.711 93.2992 128.583 93.3276C128.458 93.356 128.304 93.3726 128.122 93.3773C127.8 93.3868 127.51 93.3382 127.252 93.2317C126.994 93.1228 126.789 92.9547 126.637 92.7275C126.488 92.5002 126.415 92.2161 126.417 91.8752V86.5414ZM134.087 89.29L132.915 89.4178C132.882 89.2994 132.824 89.1882 132.741 89.084C132.66 88.9798 132.552 88.8958 132.414 88.8319C132.277 88.7679 132.109 88.736 131.91 88.736C131.642 88.736 131.418 88.794 131.235 88.91C131.055 89.026 130.967 89.1763 130.969 89.361C130.967 89.5196 131.025 89.6486 131.143 89.748C131.264 89.8475 131.463 89.9292 131.74 89.9931L132.67 90.1919C133.186 90.3032 133.57 90.4796 133.82 90.7211C134.074 90.9625 134.202 91.2786 134.204 91.6692C134.202 92.0125 134.101 92.3155 133.902 92.5783C133.706 92.8387 133.432 93.0423 133.082 93.1891C132.731 93.3359 132.329 93.4093 131.874 93.4093C131.207 93.4093 130.669 93.2696 130.262 92.9902C129.855 92.7085 129.612 92.3167 129.534 91.8148L130.788 91.6941C130.845 91.9403 130.965 92.1261 131.15 92.2516C131.335 92.3771 131.575 92.4398 131.871 92.4398C132.176 92.4398 132.421 92.3771 132.606 92.2516C132.793 92.1261 132.887 91.9711 132.887 91.7864C132.887 91.6301 132.826 91.5011 132.705 91.3993C132.587 91.2975 132.402 91.2194 132.151 91.165L131.221 90.9696C130.698 90.8607 130.311 90.6773 130.06 90.4192C129.809 90.1588 129.685 89.8297 129.687 89.432C129.685 89.0958 129.776 88.8046 129.96 88.5584C130.147 88.3098 130.407 88.1181 130.738 87.9831C131.072 87.8458 131.457 87.7772 131.892 87.7772C132.531 87.7772 133.035 87.9133 133.401 88.1855C133.771 88.4578 133.999 88.8259 134.087 89.29Z" fill="#F3F6FF"/>
<path d="M95.9648 125.303V133.303H94.5156V126.713H94.4688L92.5977 127.908V126.58L94.5859 125.303H95.9648Z" fill="#516075"/>
<path d="M92.7109 159.303V158.256L95.4883 155.533C95.7539 155.265 95.9753 155.027 96.1523 154.818C96.3294 154.61 96.4622 154.408 96.5508 154.213C96.6393 154.018 96.6836 153.809 96.6836 153.588C96.6836 153.335 96.6263 153.119 96.5117 152.939C96.3971 152.757 96.2396 152.617 96.0391 152.518C95.8385 152.419 95.6107 152.369 95.3555 152.369C95.0924 152.369 94.862 152.424 94.6641 152.533C94.4661 152.64 94.3125 152.792 94.2031 152.99C94.0964 153.188 94.043 153.424 94.043 153.697H92.6641C92.6641 153.189 92.7799 152.748 93.0117 152.373C93.2435 151.998 93.5625 151.708 93.9688 151.502C94.3776 151.296 94.8464 151.193 95.375 151.193C95.9115 151.193 96.3828 151.294 96.7891 151.494C97.1953 151.695 97.5104 151.969 97.7344 152.318C97.9609 152.667 98.0742 153.066 98.0742 153.514C98.0742 153.813 98.0169 154.107 97.9023 154.396C97.7878 154.686 97.5859 155.006 97.2969 155.357C97.0104 155.709 96.6081 156.135 96.0898 156.635L94.7109 158.037V158.092H98.1953V159.303H92.7109Z" fill="#516075"/>
<circle cx="271.5" cy="51.8027" r="6.5" fill="#454F5F"/>
<circle cx="289.5" cy="51.8027" r="6.5" fill="#454F5F"/>
<circle cx="307.5" cy="51.8027" r="6.5" fill="#454F5F"/>
<rect x="63.5" y="84.8027" width="9" height="9" stroke="url(#paint5_linear_1173_392)"/>
<rect x="68.5" y="84.8027" width="4" height="4" stroke="url(#paint6_linear_1173_392)"/>
<rect x="176" y="245.303" width="138" height="29" rx="6" fill="#6E43CA"/>
<path d="M212.789 263.303V255.303H214.238V262.088H217.762V263.303H212.789ZM220.684 263.424C220.303 263.424 219.961 263.356 219.656 263.221C219.354 263.083 219.115 262.88 218.938 262.611C218.763 262.343 218.676 262.012 218.676 261.619C218.676 261.281 218.738 261.001 218.863 260.779C218.988 260.558 219.159 260.381 219.375 260.248C219.591 260.115 219.835 260.015 220.105 259.947C220.379 259.877 220.661 259.826 220.953 259.795C221.305 259.758 221.59 259.726 221.809 259.697C222.027 259.666 222.186 259.619 222.285 259.557C222.387 259.492 222.438 259.391 222.438 259.256V259.232C222.438 258.938 222.35 258.71 222.176 258.549C222.001 258.387 221.75 258.307 221.422 258.307C221.076 258.307 220.801 258.382 220.598 258.533C220.397 258.684 220.262 258.863 220.191 259.068L218.871 258.881C218.975 258.516 219.147 258.212 219.387 257.967C219.626 257.719 219.919 257.535 220.266 257.412C220.612 257.287 220.995 257.225 221.414 257.225C221.703 257.225 221.991 257.258 222.277 257.326C222.564 257.394 222.826 257.506 223.063 257.662C223.299 257.816 223.49 258.025 223.633 258.291C223.779 258.557 223.852 258.889 223.852 259.287V263.303H222.492V262.479H222.445C222.359 262.645 222.238 262.801 222.082 262.947C221.928 263.09 221.734 263.206 221.5 263.295C221.268 263.381 220.996 263.424 220.684 263.424ZM221.051 262.385C221.335 262.385 221.581 262.329 221.789 262.217C221.997 262.102 222.158 261.951 222.27 261.764C222.384 261.576 222.441 261.372 222.441 261.15V260.443C222.397 260.48 222.322 260.514 222.215 260.545C222.111 260.576 221.993 260.604 221.863 260.627C221.733 260.65 221.604 260.671 221.477 260.689C221.349 260.708 221.238 260.723 221.145 260.736C220.934 260.765 220.745 260.812 220.578 260.877C220.411 260.942 220.28 261.033 220.184 261.15C220.087 261.265 220.039 261.413 220.039 261.596C220.039 261.856 220.134 262.053 220.324 262.186C220.514 262.318 220.757 262.385 221.051 262.385ZM229.098 260.779V257.303H230.512V263.303H229.141V262.236H229.078C228.943 262.572 228.72 262.847 228.41 263.061C228.103 263.274 227.724 263.381 227.273 263.381C226.88 263.381 226.533 263.294 226.23 263.119C225.931 262.942 225.697 262.686 225.527 262.35C225.358 262.011 225.273 261.602 225.273 261.123V257.303H226.688V260.904C226.688 261.285 226.792 261.587 227 261.811C227.208 262.035 227.482 262.146 227.82 262.146C228.029 262.146 228.23 262.096 228.426 261.994C228.621 261.893 228.781 261.742 228.906 261.541C229.034 261.338 229.098 261.084 229.098 260.779ZM233.38 259.787V263.303H231.966V257.303H233.317V258.322H233.388C233.526 257.986 233.746 257.719 234.048 257.521C234.353 257.324 234.729 257.225 235.177 257.225C235.591 257.225 235.951 257.313 236.259 257.49C236.569 257.667 236.808 257.924 236.978 258.26C237.149 258.596 237.234 259.003 237.231 259.482V263.303H235.817V259.701C235.817 259.3 235.713 258.986 235.505 258.76C235.299 258.533 235.014 258.42 234.649 258.42C234.402 258.42 234.182 258.475 233.989 258.584C233.799 258.691 233.649 258.846 233.54 259.049C233.433 259.252 233.38 259.498 233.38 259.787ZM241.286 263.42C240.687 263.42 240.173 263.288 239.743 263.025C239.316 262.762 238.987 262.399 238.755 261.936C238.526 261.469 238.411 260.933 238.411 260.326C238.411 259.717 238.528 259.179 238.763 258.713C238.997 258.244 239.328 257.88 239.755 257.619C240.185 257.356 240.692 257.225 241.278 257.225C241.765 257.225 242.196 257.314 242.571 257.494C242.949 257.671 243.25 257.923 243.474 258.248C243.698 258.571 243.825 258.949 243.856 259.381H242.505C242.45 259.092 242.32 258.851 242.114 258.658C241.911 258.463 241.639 258.365 241.298 258.365C241.009 258.365 240.755 258.443 240.536 258.6C240.317 258.753 240.147 258.975 240.024 259.264C239.905 259.553 239.845 259.899 239.845 260.303C239.845 260.712 239.905 261.063 240.024 261.357C240.144 261.649 240.312 261.874 240.528 262.033C240.747 262.189 241.004 262.268 241.298 262.268C241.506 262.268 241.692 262.229 241.856 262.15C242.023 262.07 242.162 261.954 242.274 261.803C242.386 261.652 242.463 261.468 242.505 261.252H243.856C243.823 261.676 243.698 262.053 243.481 262.381C243.265 262.706 242.971 262.962 242.599 263.146C242.226 263.329 241.789 263.42 241.286 263.42ZM246.432 259.787V263.303H245.018V255.303H246.4V258.322H246.471C246.611 257.984 246.829 257.717 247.123 257.521C247.42 257.324 247.798 257.225 248.256 257.225C248.673 257.225 249.036 257.312 249.346 257.486C249.656 257.661 249.895 257.916 250.064 258.252C250.236 258.588 250.322 258.998 250.322 259.482V263.303H248.908V259.701C248.908 259.298 248.804 258.984 248.596 258.76C248.39 258.533 248.101 258.42 247.729 258.42C247.479 258.42 247.255 258.475 247.057 258.584C246.861 258.691 246.708 258.846 246.596 259.049C246.486 259.252 246.432 259.498 246.432 259.787ZM255.582 263.303H254.035L256.852 255.303H258.641L261.461 263.303H259.914L257.777 256.943H257.715L255.582 263.303ZM255.633 260.166H259.852V261.33H255.633V260.166ZM262.452 265.553V257.303H263.843V258.295H263.925C263.998 258.149 264.101 257.994 264.233 257.83C264.366 257.663 264.546 257.521 264.772 257.404C264.999 257.285 265.288 257.225 265.64 257.225C266.103 257.225 266.521 257.343 266.894 257.58C267.269 257.814 267.565 258.162 267.784 258.623C268.006 259.081 268.116 259.644 268.116 260.311C268.116 260.969 268.008 261.529 267.792 261.99C267.576 262.451 267.282 262.803 266.909 263.045C266.537 263.287 266.115 263.408 265.644 263.408C265.3 263.408 265.015 263.351 264.788 263.236C264.562 263.122 264.379 262.984 264.241 262.822C264.106 262.658 264 262.503 263.925 262.357H263.866V265.553H262.452ZM263.839 260.303C263.839 260.691 263.894 261.031 264.003 261.322C264.115 261.614 264.275 261.842 264.483 262.006C264.694 262.167 264.95 262.248 265.249 262.248C265.562 262.248 265.823 262.165 266.034 261.998C266.245 261.829 266.404 261.598 266.511 261.307C266.62 261.012 266.675 260.678 266.675 260.303C266.675 259.93 266.621 259.6 266.515 259.311C266.408 259.021 266.249 258.795 266.038 258.631C265.827 258.467 265.564 258.385 265.249 258.385C264.947 258.385 264.69 258.464 264.479 258.623C264.269 258.782 264.108 259.005 263.999 259.291C263.892 259.577 263.839 259.915 263.839 260.303ZM269.327 265.553V257.303H270.718V258.295H270.8C270.873 258.149 270.976 257.994 271.108 257.83C271.241 257.663 271.421 257.521 271.647 257.404C271.874 257.285 272.163 257.225 272.515 257.225C272.978 257.225 273.396 257.343 273.769 257.58C274.144 257.814 274.44 258.162 274.659 258.623C274.881 259.081 274.991 259.644 274.991 260.311C274.991 260.969 274.883 261.529 274.667 261.99C274.451 262.451 274.157 262.803 273.784 263.045C273.412 263.287 272.99 263.408 272.519 263.408C272.175 263.408 271.89 263.351 271.663 263.236C271.437 263.122 271.254 262.984 271.116 262.822C270.981 262.658 270.875 262.503 270.8 262.357H270.741V265.553H269.327ZM270.714 260.303C270.714 260.691 270.769 261.031 270.878 261.322C270.99 261.614 271.15 261.842 271.358 262.006C271.569 262.167 271.825 262.248 272.124 262.248C272.437 262.248 272.698 262.165 272.909 261.998C273.12 261.829 273.279 261.598 273.386 261.307C273.495 261.012 273.55 260.678 273.55 260.303C273.55 259.93 273.496 259.6 273.39 259.311C273.283 259.021 273.124 258.795 272.913 258.631C272.702 258.467 272.439 258.385 272.124 258.385C271.822 258.385 271.565 258.464 271.354 258.623C271.144 258.782 270.983 259.005 270.874 259.291C270.767 259.577 270.714 259.915 270.714 260.303Z" fill="white"/>
<defs>
<filter id="filter0_d_1173_392" x="6" y="15.3027" width="338" height="296" filterUnits="userSpaceOnUse" color-interpolation-filters="sRGB">
<feFlood flood-opacity="0" result="BackgroundImageFix"/>
<feColorMatrix in="SourceAlpha" type="matrix" values="0 0 0 0 0 0 0 0 0 0 0 0 0 0 0 0 0 0 127 0" result="hardAlpha"/>
<feOffset/>
<feGaussianBlur stdDeviation="7.5"/>
<feComposite in2="hardAlpha" operator="out"/>
<feColorMatrix type="matrix" values="0 0 0 0 0.504 0 0 0 0 0 0 0 0 0 0.9 0 0 0 0.15 0"/>
<feBlend mode="normal" in2="BackgroundImageFix" result="effect1_dropShadow_1173_392"/>
<feBlend mode="normal" in="SourceGraphic" in2="effect1_dropShadow_1173_392" result="shape"/>
</filter>
<radialGradient id="paint0_radial_1173_392" cx="0" cy="0" r="1" gradientUnits="userSpaceOnUse" gradientTransform="translate(187.5 163.5) rotate(90) scale(94.5263)">
<stop stop-color="#57009B" stop-opacity="0.15"/>
<stop offset="1" stop-color="#9E00FF" stop-opacity="0"/>
</radialGradient>
<linearGradient id="paint1_linear_1173_392" x1="116.716" y1="0" x2="116.716" y2="233.432" gradientUnits="userSpaceOnUse">
<stop stop-color="#BD30FF"/>
<stop offset="1" stop-color="#7D00FF"/>
</linearGradient>
<linearGradient id="paint2_linear_1173_392" x1="76.7565" y1="0" x2="76.7565" y2="153.513" gradientUnits="userSpaceOnUse">
<stop stop-color="#BD30FF"/>
<stop offset="1" stop-color="#7D00FF"/>
</linearGradient>
<linearGradient id="paint3_linear_1173_392" x1="322.621" y1="293.266" x2="166.073" y2="-31.6855" gradientUnits="userSpaceOnUse">
<stop stop-color="#516067"/>
<stop offset="1" stop-color="#484F5A" stop-opacity="0.19"/>
</linearGradient>
<linearGradient id="paint4_linear_1173_392" x1="322.621" y1="294.723" x2="203.367" y2="3.3711" gradientUnits="userSpaceOnUse">
<stop stop-color="#516067"/>
<stop offset="1" stop-color="#484F5A" stop-opacity="0.19"/>
</linearGradient>
<linearGradient id="paint5_linear_1173_392" x1="68" y1="84.3027" x2="68" y2="94.3027" gradientUnits="userSpaceOnUse">
<stop stop-color="#BD30FF"/>
<stop offset="1" stop-color="#7D00FF"/>
</linearGradient>
<linearGradient id="paint6_linear_1173_392" x1="70.5" y1="84.3027" x2="70.5" y2="89.3027" gradientUnits="userSpaceOnUse">
<stop stop-color="#BD30FF"/>
<stop offset="1" stop-color="#7D00FF"/>
</linearGradient>
</defs>
</svg>
