<svg width="60" height="61" viewBox="0 0 60 61" fill="none" xmlns="http://www.w3.org/2000/svg">
<g clip-path="url(#clip0_182_1339)">
<path d="M30 61C46.5685 61 60 47.3447 60 30.5C60 13.6553 46.5685 0 30 0C13.4315 0 0 13.6553 0 30.5C0 47.3447 13.4315 61 30 61Z" fill="#6747ED"/>
<path fill-rule="evenodd" clip-rule="evenodd" d="M29.5625 34.4396C25.125 34.4396 21.5625 30.8177 21.5625 26.3062C21.5625 21.7948 25.125 18.1729 29.5625 18.1729C34 18.1729 37.5625 21.7948 37.5625 26.3062C37.5625 30.8177 34 34.4396 29.5625 34.4396ZM29.5625 14.1062C36.1875 14.1062 41.5625 19.5708 41.5625 26.3062C41.5625 33.0417 36.1875 38.5062 29.5625 38.5062C22.9375 38.5062 17.5625 33.0417 17.5625 26.3062C17.5625 19.5708 22.9375 14.1062 29.5625 14.1062ZM41 39.1417C41.8125 39.9677 41.8125 41.2385 41 42.001L33 50.1344C32.1875 50.9604 30.9375 50.9604 30.1875 50.1344C29.375 49.3083 29.375 48.0375 30.1875 47.275L38.1875 39.1417C38.9375 38.3156 40.25 38.3156 41 39.1417ZM45.625 16.1396C45.625 17.2833 44.75 18.1729 43.625 18.1729C42.5 18.1729 41.625 17.2833 41.625 16.1396C41.625 14.9958 42.5 14.1062 43.625 14.1062C44.6875 14.1062 45.625 14.9958 45.625 16.1396Z" fill="white"/>
</g>
<defs>
<clipPath id="clip0_182_1339">
<rect width="60" height="61" fill="white"/>
</clipPath>
</defs>
</svg>
