<svg width="24" height="24" viewBox="0 0 24 24" fill="none" xmlns="http://www.w3.org/2000/svg">
<rect width="24" height="24" rx="12" fill="#7D00FF"/>
<g clip-path="url(#clip0_670_19575)">
<path d="M19.5 8H14.5007V9.66633H19.5V8ZM11.1668 9.66633H9.50033V11.3337H11.1668V9.66633ZM9.50033 18H11.1668V13H9.50033V18ZM12.8332 9.66633V11.3337H14.5007V9.66633H12.8332ZM12.8332 18H14.5007V13H12.8332V18ZM12.8332 8H11.1668V9.66633H12.8332V8ZM4.5 8V9.66633H9.50033V8H4.5ZM19.5 13V11.3337H14.5007V13H19.5ZM11.1668 11.3337V13H12.8332V11.3337H11.1668ZM4.5 11.3337V13H9.50033V11.3337H4.5Z" fill="white"/>
</g>
<defs>
<clipPath id="clip0_670_19575">
<rect width="15" height="10" fill="white" transform="translate(4.5 8)"/>
</clipPath>
</defs>
</svg>
