<svg width="146" height="115" viewBox="0 0 146 115" fill="none" xmlns="http://www.w3.org/2000/svg">
<path d="M87.5664 47.9562H77.8553V57.7366H87.5664V47.9562Z" fill="white"/>
<path fill-rule="evenodd" clip-rule="evenodd" d="M22.6238 0C10.129 0 0 10.1453 0 22.6601V92.3399C0 104.855 10.129 115 22.6237 115H123.376C135.871 115 146 104.855 146 92.3399V22.6601C146 10.1453 135.871 0 123.376 0H22.6238ZM87.5664 28.3952H116.699V38.1757H87.5664V28.3952ZM87.5664 47.9562V38.1757H77.8553V28.3952H68.1446V38.1757H58.4337V28.3952H29.2945V38.1757H58.4337V47.9562H29.3008V57.7366H58.4337V87.0783H68.1446V57.7366H58.4401V47.9562H68.1446V38.1757H77.8553V47.9562H68.151V57.7366H77.8553V87.0783H87.5664V57.7366H116.705V47.9562H87.5664Z" fill="white"/>
</svg>
