<svg width="60" height="59" viewBox="0 0 60 59" fill="none" xmlns="http://www.w3.org/2000/svg">
<path fill-rule="evenodd" clip-rule="evenodd" d="M30 55.8468C44.7975 55.8468 56.7933 44.0509 56.7933 29.5C56.7933 14.9491 44.7975 3.15324 30 3.15324C15.2025 3.15324 3.20668 14.9491 3.20668 29.5C3.20668 44.0509 15.2025 55.8468 30 55.8468ZM60 29.5C60 45.7924 46.5685 59 30 59C13.4315 59 0 45.7924 0 29.5C0 13.2076 13.4315 0 30 0C46.5685 0 60 13.2076 60 29.5Z" fill="white"/>
<path d="M37.7449 16H34.3342V18.8211C34.2955 18.8364 34.2569 18.8518 34.2184 18.8675C32.761 19.4616 31.6141 20.2879 30.7777 21.3465C29.9496 22.4051 29.5397 23.6427 29.548 25.0592C29.5397 26.788 30.1566 28.1627 31.3988 29.1832C32.6409 30.2037 34.3344 30.9539 36.4791 31.4337L39.2491 32.0734C40.1766 32.279 40.9592 32.5075 41.5968 32.7588C42.2427 33.0102 42.7313 33.3148 43.0625 33.6727C43.4021 34.0307 43.5718 34.4724 43.5718 34.9979C43.5718 35.5615 43.3855 36.0603 43.0128 36.4944C42.6402 36.9285 42.1144 37.2674 41.4353 37.5111C40.7646 37.7548 39.9737 37.8767 39.0628 37.8767C38.1353 37.8767 37.3031 37.7472 36.5661 37.4883C35.8374 37.2217 35.2536 36.8295 34.8147 36.3116C34.3841 35.7861 34.1398 35.1312 34.0818 34.3468H28.8772C28.9186 36.0299 29.3616 37.4426 30.2063 38.585C31.0592 39.7197 32.2434 40.5765 33.7588 41.1553C33.9466 41.2267 34.1384 41.2936 34.3342 41.3561V44H37.7449V41.9773C38.1908 42.0081 38.6508 42.0235 39.1249 42.0235C39.4691 42.0235 39.8049 42.0156 40.1323 41.9999V44H43.543V41.4666C43.8496 41.3773 44.1449 41.2774 44.4289 41.1667C45.9029 40.5879 47.0291 39.7769 47.8075 38.7335C48.5942 37.6825 48.9917 36.4411 49 35.0093C48.9917 34.0345 48.7971 33.1701 48.4162 32.4161C48.0435 31.6622 47.5177 31.0072 46.8387 30.4512C46.1596 29.8953 45.3564 29.4269 44.4289 29.0461C43.5014 28.6653 42.4829 28.3607 41.3732 28.1322L39.0877 27.6296C38.5328 27.5153 38.0111 27.3782 37.5225 27.2183C37.034 27.0508 36.6034 26.8566 36.2307 26.6357C35.8581 26.4072 35.5641 26.1369 35.3488 25.8246C35.1418 25.5124 35.0465 25.1468 35.0631 24.7279C35.0631 24.2253 35.2204 23.7759 35.5351 23.3799C35.8581 22.9839 36.3218 22.6755 36.9263 22.4546C37.5308 22.2261 38.272 22.1119 39.1498 22.1119C40.4416 22.1119 41.4643 22.367 42.2179 22.8773C42.9714 23.3875 43.3979 24.1034 43.4973 25.0249H48.6522C48.6274 23.6312 48.2216 22.4051 47.4349 21.3465C46.6482 20.2879 45.5468 19.4616 44.1308 18.8675C43.9393 18.7867 43.7434 18.7114 43.543 18.6416V16H40.1323V18.0024C39.8242 17.9851 39.5091 17.9765 39.187 17.9765C38.6922 17.9765 38.2115 17.9976 37.7449 18.0399V16Z" fill="white"/>
<path fill-rule="evenodd" clip-rule="evenodd" d="M21.809 23.1921H16.9045V28.1699H12V33.1477H16.9045V38.1255H21.809V33.1477H26.7135V28.1699H21.809V23.1921ZM21.809 28.1699V33.1477H16.9045V28.1699H21.809Z" fill="white"/>
</svg>
