<svg width="30" height="26" viewBox="0 0 30 26" fill="none" xmlns="http://www.w3.org/2000/svg">
<path d="M28.5244 3.00092C28.0656 3.22221 27.594 3.40878 27.1124 3.56061C27.6864 2.85489 28.1191 2.0269 28.383 1.12931C28.4119 1.0304 28.4125 0.92428 28.3846 0.825011C28.3568 0.725742 28.3019 0.638011 28.2273 0.573444C28.1526 0.508876 28.0616 0.470519 27.9664 0.463456C27.8713 0.456393 27.7764 0.480957 27.6943 0.533893C26.6759 1.19168 25.5673 1.66807 24.4105 1.94504C23.2367 0.700327 21.663 0.0025666 20.0239 0C19.1329 0.00105199 18.2523 0.208584 17.4408 0.608779C16.6293 1.00897 15.9055 1.59265 15.3175 2.32095C14.7295 3.04924 14.2909 3.90545 14.0308 4.83257C13.7708 5.75968 13.6952 6.73643 13.8092 7.69778C11.677 7.49129 9.60432 6.82263 7.7133 5.73119C5.82228 4.63975 4.15117 3.1476 2.79842 1.34267C2.7503 1.27851 2.68861 1.22801 2.61862 1.19548C2.54862 1.16295 2.47243 1.14937 2.39655 1.15591C2.32068 1.16245 2.2474 1.1889 2.18298 1.23301C2.11857 1.27712 2.06495 1.33756 2.02672 1.40916C1.47054 2.45009 1.17783 3.63278 1.1784 4.83679C1.1784 6.47916 1.71658 8.03718 2.66889 9.25481C2.37918 9.14579 2.0987 9.00966 1.8306 8.84794C1.75969 8.80496 1.67976 8.78267 1.59859 8.78322C1.51741 8.78378 1.43775 8.80716 1.36733 8.85111C1.29692 8.89505 1.23815 8.95806 1.19673 9.03401C1.15532 9.10997 1.13266 9.19628 1.13097 9.28458V9.37488C1.13097 11.826 2.34416 14.034 4.19769 15.2378C4.03801 15.2204 3.87914 15.1952 3.72154 15.1624C3.64139 15.1458 3.55866 15.1521 3.48146 15.1808C3.40425 15.2095 3.33522 15.2595 3.28114 15.3259C3.22705 15.3924 3.18977 15.473 3.17295 15.5598C3.15613 15.6466 3.16034 15.7368 3.18518 15.8213C3.51804 16.952 4.11667 17.9685 4.92177 18.7701C5.72688 19.5716 6.71051 20.1304 7.77523 20.3911C5.99932 21.6015 3.94445 22.2394 1.84885 22.231C1.40553 22.231 0.958566 22.2022 0.521636 22.1466C0.416479 22.1344 0.310602 22.161 0.221012 22.2222C0.131422 22.2833 0.0633198 22.3754 0.0276442 22.4837C-0.00803133 22.592 -0.00920933 22.7102 0.0242995 22.8194C0.0578083 22.9285 0.124059 23.0222 0.212409 23.0854C2.93864 24.9899 6.11066 26.0016 9.35055 26C15.7303 26 19.7219 22.7272 21.9458 19.9813C24.7197 16.5576 26.3106 12.0265 26.3106 7.54893C26.3106 7.36137 26.3078 7.17183 26.3024 6.98427C27.3974 6.08688 28.3454 4.99482 29.1064 3.75412C29.1632 3.6619 29.191 3.55208 29.1855 3.4412C29.1799 3.33032 29.1414 3.2244 29.0758 3.1394C29.0101 3.0544 28.9208 2.99493 28.8214 2.96995C28.7219 2.94497 28.6177 2.95584 28.5244 3.00092Z" fill="#5D5F78"/>
</svg>
