<svg width="531" height="343" viewBox="0 0 531 343" fill="none" xmlns="http://www.w3.org/2000/svg">
<g clip-path="url(#clip0_152_269)">
<g clip-path="url(#clip1_152_269)">
<mask id="mask0_152_269" style="mask-type:luminance" maskUnits="userSpaceOnUse" x="-339" y="38" width="1310" height="620">
<path d="M939.26 38.3903L-338.508 112.117L-307.061 657.119L970.706 583.392L939.26 38.3903Z" fill="white"/>
</mask>
<g mask="url(#mask0_152_269)">
<path d="M962.431 439.971C796.401 366.813 878.435 26.3744 589.617 88.6533C318.3 147.159 64.7132 361.548 -334.208 137.723" stroke="url(#paint0_linear_152_269)" stroke-opacity="0.6" stroke-miterlimit="10"/>
<path d="M962.7 444.648C798.612 376.369 861.184 47.9502 572.666 105.36C299.372 158.969 47.0824 374.376 -332.853 161.208" stroke="url(#paint1_linear_152_269)" stroke-opacity="0.6" stroke-miterlimit="10"/>
<path d="M962.969 449.305C800.819 385.905 844.044 70.2547 555.697 122.047C280.537 171.469 29.4257 387.167 -331.515 184.673" stroke="url(#paint2_linear_152_269)" stroke-opacity="0.6" stroke-miterlimit="10"/>
<path d="M963.239 453.983C803.031 395.461 826.83 92.1463 538.747 138.734C261.645 183.555 11.7786 399.976 -330.146 208.117" stroke="url(#paint3_linear_152_269)" stroke-opacity="0.6" stroke-miterlimit="10"/>
<path d="M963.508 458.64C805.224 404.999 809.592 113.96 521.796 155.421C242.734 195.622 -5.86029 412.785 -328.792 231.582" stroke="url(#paint4_linear_152_269)" stroke-opacity="0.6" stroke-miterlimit="10"/>
<path d="M963.777 463.317C807.433 414.554 792.336 135.774 504.843 172.107C223.817 207.63 -23.4938 425.574 -327.438 255.047" stroke="url(#paint5_linear_152_269)" stroke-opacity="0.6" stroke-miterlimit="10"/>
<path d="M964.048 467.994C809.644 424.111 775.077 157.529 487.894 188.814C204.884 219.639 -41.1397 438.403 -326.083 278.531" stroke="url(#paint6_linear_152_269)" stroke-opacity="0.6" stroke-miterlimit="10"/>
<path d="M964.317 472.651C811.854 433.667 757.816 179.224 470.926 205.501C185.931 231.59 -58.7948 451.214 -324.745 301.997" stroke="url(#paint7_linear_152_269)" stroke-opacity="0.6" stroke-miterlimit="10"/>
<path d="M964.586 477.328C814.064 443.222 740.534 200.901 453.974 222.188C166.974 243.5 -76.4271 464.022 -323.376 325.461" stroke="url(#paint8_linear_152_269)" stroke-opacity="0.6" stroke-miterlimit="10"/>
<path d="M964.856 482.005C816.276 452.779 723.27 222.557 437.025 238.894C148.017 255.391 -94.0578 476.831 -322.02 348.945" stroke="url(#paint9_linear_152_269)" stroke-opacity="0.6" stroke-miterlimit="10"/>
<path d="M965.125 486.663C818.484 462.315 705.983 244.135 420.073 255.581C129.074 267.222 -111.714 489.641 -320.667 372.391" stroke="url(#paint10_linear_152_269)" stroke-opacity="0.6" stroke-miterlimit="10"/>
<path d="M965.395 491.34C820.677 471.872 688.695 265.693 403.122 272.268C110.113 279.014 -129.345 502.449 -319.313 395.855" stroke="url(#paint11_linear_152_269)" stroke-opacity="0.6" stroke-miterlimit="10"/>
<path d="M965.664 496.017C822.887 481.428 671.405 287.211 386.153 288.975C91.1487 290.786 -147.001 515.26 -317.975 419.341" stroke="url(#paint12_linear_152_269)" stroke-opacity="0.6" stroke-miterlimit="10"/>
<path d="M965.934 500.674C825.097 490.965 654.131 308.688 369.204 305.662C72.1751 302.499 -164.632 528.069 -316.604 442.805" stroke="url(#paint13_linear_152_269)" stroke-opacity="0.6" stroke-miterlimit="10"/>
<path d="M966.203 505.352C827.308 500.521 636.853 330.126 352.252 322.348C53.222 314.17 -182.28 540.878 -315.251 466.269" stroke="url(#paint14_linear_152_269)" stroke-opacity="0.6" stroke-miterlimit="10"/>
<path d="M966.473 510.029C829.518 510.077 619.575 351.544 335.302 339.055C34.2762 325.822 -199.918 553.707 -313.895 489.754" stroke="url(#paint15_linear_152_269)" stroke-opacity="0.6" stroke-miterlimit="10"/>
<path d="M966.742 514.686C831.728 519.633 602.294 372.902 318.351 355.722C15.3353 337.414 -217.551 566.476 -312.542 513.199" stroke="url(#paint16_linear_152_269)" stroke-opacity="0.6" stroke-miterlimit="10"/>
<path d="M967.011 519.363C833.938 529.189 585.028 394.24 301.381 372.429C-3.60807 348.986 -235.198 579.305 -311.189 536.664" stroke="url(#paint17_linear_152_269)" stroke-opacity="0.6" stroke-miterlimit="10"/>
<path d="M967.281 524.04C836.131 538.746 567.779 415.557 284.431 389.135C-22.5541 360.498 -252.854 592.115 -309.834 560.148" stroke="url(#paint18_linear_152_269)" stroke-opacity="0.6" stroke-miterlimit="10"/>
<path d="M967.55 528.697C838.341 548.282 550.528 436.815 267.48 405.802C-41.4618 371.969 -270.485 604.924 -308.48 583.613" stroke="url(#paint19_linear_152_269)" stroke-opacity="0.6" stroke-miterlimit="10"/>
</g>
</g>
<g opacity="0.5" clip-path="url(#clip2_152_269)">
<mask id="mask1_152_269" style="mask-type:luminance" maskUnits="userSpaceOnUse" x="-253" y="-191" width="837" height="675">
<path d="M418.607 -190.538L-252.469 196.908L-87.2131 483.14L583.863 95.6935L418.607 -190.538Z" fill="white"/>
</mask>
<g mask="url(#mask1_152_269)">
<path d="M540.376 20.3698C430.672 25.9614 382.44 -180.492 243.162 -68.2444C112.324 37.2021 33.4777 222.141 -243.177 209.588" stroke="url(#paint20_linear_152_269)" stroke-opacity="0.5" stroke-miterlimit="10"/>
<path d="M541.794 22.8263C434.467 30.5288 378.978 -164.13 238.538 -54.5974C105.299 48.7387 27.4311 233.876 -236.056 221.922" stroke="url(#paint21_linear_152_269)" stroke-opacity="0.5" stroke-miterlimit="10"/>
<path d="M543.206 25.2721C438.255 35.0862 375.774 -147.403 233.899 -40.9553C98.5111 60.6227 21.3598 245.597 -228.95 234.25" stroke="url(#paint22_linear_152_269)" stroke-opacity="0.5" stroke-miterlimit="10"/>
<path d="M544.624 27.7286C442.051 39.6534 372.418 -130.88 229.27 -27.3191C91.5799 72.299 15.299 257.326 -221.832 246.559" stroke="url(#paint23_linear_152_269)" stroke-opacity="0.5" stroke-miterlimit="10"/>
<path d="M546.036 30.1747C445.831 44.216 369.027 -114.392 224.64 -13.6823C84.6331 83.9704 9.24184 269.052 -214.718 258.882" stroke="url(#paint24_linear_152_269)" stroke-opacity="0.5" stroke-miterlimit="10"/>
<path d="M547.454 32.6309C449.625 48.7834 365.628 -97.8995 220.009 -0.0458498C77.668 95.6106 3.1834 280.766 -207.603 271.206" stroke="url(#paint25_linear_152_269)" stroke-opacity="0.5" stroke-miterlimit="10"/>
<path d="M548.873 35.0875C453.421 53.3508 362.211 -81.4376 215.386 13.6011C70.6941 107.256 -2.87128 292.505 -200.481 283.54" stroke="url(#paint26_linear_152_269)" stroke-opacity="0.5" stroke-miterlimit="10"/>
<path d="M550.285 37.5332C457.215 57.9188 358.775 -65.0074 210.747 27.2429C63.6922 118.876 -8.93679 304.236 -193.375 295.868" stroke="url(#paint27_linear_152_269)" stroke-opacity="0.5" stroke-miterlimit="10"/>
<path d="M551.704 39.9897C461.011 62.4858 355.325 -48.5822 206.118 40.8794C56.6798 130.474 -14.9887 315.96 -186.251 308.187" stroke="url(#paint28_linear_152_269)" stroke-opacity="0.5" stroke-miterlimit="10"/>
<path d="M553.121 42.446C464.806 67.0534 351.877 -32.1724 201.494 54.5264C49.6598 142.063 -21.0417 327.684 -179.13 320.521" stroke="url(#paint29_linear_152_269)" stroke-opacity="0.5" stroke-miterlimit="10"/>
<path d="M554.533 44.8921C468.594 71.6105 348.396 -15.7991 196.864 68.1629C42.6318 153.615 -27.1071 339.416 -172.021 332.834" stroke="url(#paint30_linear_152_269)" stroke-opacity="0.5" stroke-miterlimit="10"/>
<path d="M555.952 47.3486C472.38 76.1835 344.91 0.563921 192.235 81.7996C35.5837 165.15 -33.159 351.14 -164.906 345.158" stroke="url(#paint31_linear_152_269)" stroke-opacity="0.5" stroke-miterlimit="10"/>
<path d="M557.37 49.8048C476.175 80.7512 341.411 16.9057 187.601 95.4519C28.5289 176.676 -39.2241 362.871 -157.793 357.496" stroke="url(#paint32_linear_152_269)" stroke-opacity="0.5" stroke-miterlimit="10"/>
<path d="M558.782 52.2508C479.964 85.3081 337.909 33.2215 182.971 109.088C21.4512 188.173 -45.2774 374.595 -150.67 369.815" stroke="url(#paint33_linear_152_269)" stroke-opacity="0.5" stroke-miterlimit="10"/>
<path d="M560.201 54.7074C483.76 89.8756 334.395 49.5168 178.342 122.725C14.3753 199.641 -51.3378 386.324 -143.555 382.139" stroke="url(#paint34_linear_152_269)" stroke-opacity="0.5" stroke-miterlimit="10"/>
<path d="M561.618 57.1636C487.554 94.4432 330.875 65.8012 173.718 136.372C7.29668 211.097 -57.389 398.061 -136.434 394.473" stroke="url(#paint35_linear_152_269)" stroke-opacity="0.5" stroke-miterlimit="10"/>
<path d="M563.031 59.6097C491.349 99.0106 327.337 82.0548 169.082 149.998C0.204428 222.519 -63.4538 409.764 -129.325 406.786" stroke="url(#paint36_linear_152_269)" stroke-opacity="0.5" stroke-miterlimit="10"/>
<path d="M564.449 62.0659C495.144 103.578 323.803 98.2925 164.449 163.65C-6.89369 233.931 -69.5088 421.503 -122.21 419.109" stroke="url(#paint37_linear_152_269)" stroke-opacity="0.5" stroke-miterlimit="10"/>
<path d="M565.867 64.5225C498.93 108.151 320.273 114.514 159.826 177.297C-14.0092 245.311 -75.5734 433.235 -115.089 431.443" stroke="url(#paint38_linear_152_269)" stroke-opacity="0.5" stroke-miterlimit="10"/>
<path d="M567.279 66.9682C502.719 112.708 316.723 130.705 155.19 190.923C-21.1165 256.659 -81.6261 444.959 -107.974 443.767" stroke="url(#paint39_linear_152_269)" stroke-opacity="0.5" stroke-miterlimit="10"/>
<path d="M568.698 69.4248C506.514 117.275 313.103 146.687 150.566 204.57C-28.3187 267.784 -87.6911 456.69 -100.859 456.09" stroke="url(#paint40_linear_152_269)" stroke-opacity="0.5" stroke-miterlimit="10"/>
<path d="M570.116 71.881C510.308 121.843 309.64 163.05 145.942 218.217C-35.351 279.31 -93.744 468.414 -93.744 468.414" stroke="url(#paint41_linear_152_269)" stroke-opacity="0.5" stroke-miterlimit="10"/>
</g>
</g>
</g>
<defs>
<linearGradient id="paint0_linear_152_269" x1="303.269" y1="100.936" x2="324.954" y2="476.753" gradientUnits="userSpaceOnUse">
<stop stop-color="#A2AABF"/>
<stop offset="1" stop-opacity="0"/>
</linearGradient>
<linearGradient id="paint1_linear_152_269" x1="304.214" y1="117.326" x2="325.223" y2="481.431" gradientUnits="userSpaceOnUse">
<stop stop-color="#A2AABF"/>
<stop offset="1" stop-opacity="0"/>
</linearGradient>
<linearGradient id="paint2_linear_152_269" x1="305.155" y1="133.762" x2="325.484" y2="486.088" gradientUnits="userSpaceOnUse">
<stop stop-color="#A2AABF"/>
<stop offset="1" stop-opacity="0"/>
</linearGradient>
<linearGradient id="paint3_linear_152_269" x1="306.104" y1="150.073" x2="325.762" y2="490.765" gradientUnits="userSpaceOnUse">
<stop stop-color="#A2AABF"/>
<stop offset="1" stop-opacity="0"/>
</linearGradient>
<linearGradient id="paint4_linear_152_269" x1="307.042" y1="166.309" x2="326.031" y2="495.422" gradientUnits="userSpaceOnUse">
<stop stop-color="#A2AABF"/>
<stop offset="1" stop-opacity="0"/>
</linearGradient>
<linearGradient id="paint5_linear_152_269" x1="307.973" y1="182.47" x2="326.3" y2="500.099" gradientUnits="userSpaceOnUse">
<stop stop-color="#A2AABF"/>
<stop offset="1" stop-opacity="0"/>
</linearGradient>
<linearGradient id="paint6_linear_152_269" x1="308.902" y1="198.559" x2="326.571" y2="504.777" gradientUnits="userSpaceOnUse">
<stop stop-color="#A2AABF"/>
<stop offset="1" stop-opacity="0"/>
</linearGradient>
<linearGradient id="paint7_linear_152_269" x1="309.816" y1="214.529" x2="326.832" y2="509.434" gradientUnits="userSpaceOnUse">
<stop stop-color="#A2AABF"/>
<stop offset="1" stop-opacity="0"/>
</linearGradient>
<linearGradient id="paint8_linear_152_269" x1="310.738" y1="230.385" x2="327.109" y2="514.111" gradientUnits="userSpaceOnUse">
<stop stop-color="#A2AABF"/>
<stop offset="1" stop-opacity="0"/>
</linearGradient>
<linearGradient id="paint9_linear_152_269" x1="311.647" y1="246.128" x2="327.379" y2="518.788" gradientUnits="userSpaceOnUse">
<stop stop-color="#A2AABF"/>
<stop offset="1" stop-opacity="0"/>
</linearGradient>
<linearGradient id="paint10_linear_152_269" x1="312.545" y1="261.691" x2="327.648" y2="523.445" gradientUnits="userSpaceOnUse">
<stop stop-color="#A2AABF"/>
<stop offset="1" stop-opacity="0"/>
</linearGradient>
<linearGradient id="paint11_linear_152_269" x1="313.433" y1="277.084" x2="327.918" y2="528.122" gradientUnits="userSpaceOnUse">
<stop stop-color="#A2AABF"/>
<stop offset="1" stop-opacity="0"/>
</linearGradient>
<linearGradient id="paint12_linear_152_269" x1="314.304" y1="292.331" x2="328.179" y2="532.8" gradientUnits="userSpaceOnUse">
<stop stop-color="#A2AABF"/>
<stop offset="1" stop-opacity="0"/>
</linearGradient>
<linearGradient id="paint13_linear_152_269" x1="315.182" y1="307.399" x2="328.457" y2="537.457" gradientUnits="userSpaceOnUse">
<stop stop-color="#A2AABF"/>
<stop offset="1" stop-opacity="0"/>
</linearGradient>
<linearGradient id="paint14_linear_152_269" x1="316.043" y1="322.315" x2="328.726" y2="542.134" gradientUnits="userSpaceOnUse">
<stop stop-color="#A2AABF"/>
<stop offset="1" stop-opacity="0"/>
</linearGradient>
<linearGradient id="paint15_linear_152_269" x1="316.896" y1="337.105" x2="328.996" y2="546.811" gradientUnits="userSpaceOnUse">
<stop stop-color="#A2AABF"/>
<stop offset="1" stop-opacity="0"/>
</linearGradient>
<linearGradient id="paint16_linear_152_269" x1="317.74" y1="351.721" x2="329.265" y2="551.468" gradientUnits="userSpaceOnUse">
<stop stop-color="#A2AABF"/>
<stop offset="1" stop-opacity="0"/>
</linearGradient>
<linearGradient id="paint17_linear_152_269" x1="318.577" y1="366.24" x2="329.536" y2="556.168" gradientUnits="userSpaceOnUse">
<stop stop-color="#A2AABF"/>
<stop offset="1" stop-opacity="0"/>
</linearGradient>
<linearGradient id="paint18_linear_152_269" x1="319.407" y1="380.627" x2="329.819" y2="561.087" gradientUnits="userSpaceOnUse">
<stop stop-color="#A2AABF"/>
<stop offset="1" stop-opacity="0"/>
</linearGradient>
<linearGradient id="paint19_linear_152_269" x1="320.229" y1="394.866" x2="330.12" y2="566.283" gradientUnits="userSpaceOnUse">
<stop stop-color="#A2AABF"/>
<stop offset="1" stop-opacity="0"/>
</linearGradient>
<linearGradient id="paint20_linear_152_269" x1="91.6206" y1="16.2892" x2="205.576" y2="213.666" gradientUnits="userSpaceOnUse">
<stop stop-color="#A2AABF"/>
<stop offset="1" stop-opacity="0"/>
</linearGradient>
<linearGradient id="paint21_linear_152_269" x1="96.5903" y1="24.8972" x2="206.995" y2="216.123" gradientUnits="userSpaceOnUse">
<stop stop-color="#A2AABF"/>
<stop offset="1" stop-opacity="0"/>
</linearGradient>
<linearGradient id="paint22_linear_152_269" x1="101.57" y1="33.5311" x2="208.402" y2="218.571" gradientUnits="userSpaceOnUse">
<stop stop-color="#A2AABF"/>
<stop offset="1" stop-opacity="0"/>
</linearGradient>
<linearGradient id="paint23_linear_152_269" x1="106.52" y1="42.0956" x2="209.825" y2="221.025" gradientUnits="userSpaceOnUse">
<stop stop-color="#A2AABF"/>
<stop offset="1" stop-opacity="0"/>
</linearGradient>
<linearGradient id="paint24_linear_152_269" x1="111.443" y1="50.6229" x2="211.237" y2="223.471" gradientUnits="userSpaceOnUse">
<stop stop-color="#A2AABF"/>
<stop offset="1" stop-opacity="0"/>
</linearGradient>
<linearGradient id="paint25_linear_152_269" x1="116.343" y1="59.1105" x2="212.655" y2="225.927" gradientUnits="userSpaceOnUse">
<stop stop-color="#A2AABF"/>
<stop offset="1" stop-opacity="0"/>
</linearGradient>
<linearGradient id="paint26_linear_152_269" x1="121.222" y1="67.5603" x2="214.074" y2="228.384" gradientUnits="userSpaceOnUse">
<stop stop-color="#A2AABF"/>
<stop offset="1" stop-opacity="0"/>
</linearGradient>
<linearGradient id="paint27_linear_152_269" x1="126.06" y1="75.9498" x2="215.481" y2="230.832" gradientUnits="userSpaceOnUse">
<stop stop-color="#A2AABF"/>
<stop offset="1" stop-opacity="0"/>
</linearGradient>
<linearGradient id="paint28_linear_152_269" x1="130.873" y1="84.2748" x2="216.904" y2="233.286" gradientUnits="userSpaceOnUse">
<stop stop-color="#A2AABF"/>
<stop offset="1" stop-opacity="0"/>
</linearGradient>
<linearGradient id="paint29_linear_152_269" x1="135.646" y1="92.5434" x2="218.322" y2="235.743" gradientUnits="userSpaceOnUse">
<stop stop-color="#A2AABF"/>
<stop offset="1" stop-opacity="0"/>
</linearGradient>
<linearGradient id="paint30_linear_152_269" x1="140.365" y1="100.717" x2="219.734" y2="238.189" gradientUnits="userSpaceOnUse">
<stop stop-color="#A2AABF"/>
<stop offset="1" stop-opacity="0"/>
</linearGradient>
<linearGradient id="paint31_linear_152_269" x1="145.033" y1="108.801" x2="221.153" y2="240.645" gradientUnits="userSpaceOnUse">
<stop stop-color="#A2AABF"/>
<stop offset="1" stop-opacity="0"/>
</linearGradient>
<linearGradient id="paint32_linear_152_269" x1="149.652" y1="116.811" x2="222.567" y2="243.104" gradientUnits="userSpaceOnUse">
<stop stop-color="#A2AABF"/>
<stop offset="1" stop-opacity="0"/>
</linearGradient>
<linearGradient id="paint33_linear_152_269" x1="154.224" y1="124.722" x2="223.983" y2="245.547" gradientUnits="userSpaceOnUse">
<stop stop-color="#A2AABF"/>
<stop offset="1" stop-opacity="0"/>
</linearGradient>
<linearGradient id="paint34_linear_152_269" x1="158.748" y1="132.556" x2="225.401" y2="248.004" gradientUnits="userSpaceOnUse">
<stop stop-color="#A2AABF"/>
<stop offset="1" stop-opacity="0"/>
</linearGradient>
<linearGradient id="paint35_linear_152_269" x1="163.232" y1="140.324" x2="226.819" y2="250.46" gradientUnits="userSpaceOnUse">
<stop stop-color="#A2AABF"/>
<stop offset="1" stop-opacity="0"/>
</linearGradient>
<linearGradient id="paint36_linear_152_269" x1="167.664" y1="148" x2="228.231" y2="252.906" gradientUnits="userSpaceOnUse">
<stop stop-color="#A2AABF"/>
<stop offset="1" stop-opacity="0"/>
</linearGradient>
<linearGradient id="paint37_linear_152_269" x1="172.066" y1="155.625" x2="229.656" y2="255.374" gradientUnits="userSpaceOnUse">
<stop stop-color="#A2AABF"/>
<stop offset="1" stop-opacity="0"/>
</linearGradient>
<linearGradient id="paint38_linear_152_269" x1="176.429" y1="163.182" x2="231.148" y2="257.958" gradientUnits="userSpaceOnUse">
<stop stop-color="#A2AABF"/>
<stop offset="1" stop-opacity="0"/>
</linearGradient>
<linearGradient id="paint39_linear_152_269" x1="180.747" y1="170.66" x2="232.724" y2="260.687" gradientUnits="userSpaceOnUse">
<stop stop-color="#A2AABF"/>
<stop offset="1" stop-opacity="0"/>
</linearGradient>
<linearGradient id="paint40_linear_152_269" x1="185.009" y1="178.042" x2="234.408" y2="263.603" gradientUnits="userSpaceOnUse">
<stop stop-color="#A2AABF"/>
<stop offset="1" stop-opacity="0"/>
</linearGradient>
<linearGradient id="paint41_linear_152_269" x1="189.3" y1="185.476" x2="241.055" y2="275.118" gradientUnits="userSpaceOnUse">
<stop stop-color="#A2AABF"/>
<stop offset="1" stop-opacity="0"/>
</linearGradient>
<clipPath id="clip0_152_269">
<rect width="531" height="343" fill="white"/>
</clipPath>
<clipPath id="clip1_152_269">
<rect width="1226.4" height="545.908" fill="white" transform="matrix(-0.99834 0.0576041 0.0576041 0.99834 911.361 40)"/>
</clipPath>
<clipPath id="clip2_152_269">
<rect width="742.504" height="330.512" fill="white" transform="matrix(-0.866025 0.5 0.5 0.866025 403.955 -182.079)"/>
</clipPath>
</defs>
</svg>
